{"glyphs":{"0":{"ha":875,"x_min":0,"x_max":0,"o":"m 438 992 b 822 497 688 992 822 889 b 438 -19 822 99 688 -19 b 53 497 188 -19 53 99 b 438 992 53 889 188 992 m 439 226 b 560 497 550 226 560 251 b 439 749 560 729 550 749 b 318 497 329 749 318 729 b 439 226 318 251 329 226 "},"1":{"ha":875,"x_min":0,"x_max":0,"o":"m 364 0 l 364 682 l 147 600 l 79 826 l 624 1015 l 624 0 "},"2":{"ha":875,"x_min":0,"x_max":0,"o":"m 69 940 b 419 992 147 969 282 992 b 788 694 664 992 788 943 b 414 233 788 490 733 438 l 796 233 l 796 0 l 46 0 l 46 217 b 504 665 479 531 504 549 b 389 753 504 733 481 753 b 124 715 296 753 190 735 "},"3":{"ha":875,"x_min":0,"x_max":0,"o":"m 249 613 l 406 613 b 489 678 471 613 489 618 b 322 749 489 735 467 749 b 103 725 265 749 153 739 l 56 958 b 393 992 146 978 282 992 b 774 735 686 992 774 929 b 564 506 774 594 738 519 b 793 257 747 497 793 415 b 393 -19 793 51 683 -19 b 53 11 290 -19 144 -7 l 100 250 b 322 226 149 236 265 226 b 503 304 476 226 503 242 b 413 383 503 371 476 383 l 249 383 "},"4":{"ha":875,"x_min":0,"x_max":0,"o":"m -1 214 l -1 308 b 397 968 107 500 286 806 l 726 968 l 726 436 l 847 436 l 847 214 l 726 214 l 726 0 l 474 0 l 474 214 m 474 714 b 308 436 418 632 346 507 l 474 436 "},"5":{"ha":875,"x_min":0,"x_max":0,"o":"m 767 968 l 767 735 l 363 735 l 363 617 b 438 619 389 618 415 619 b 794 315 718 619 794 538 b 411 -19 794 54 701 -19 b 71 11 321 -19 146 -7 l 118 250 b 340 226 161 236 283 226 b 504 308 482 226 504 231 b 335 393 504 382 492 393 b 114 382 274 393 175 389 l 114 968 "},"6":{"ha":875,"x_min":0,"x_max":0,"o":"m 746 725 b 507 749 701 739 607 749 b 349 613 399 749 361 736 b 464 619 385 618 422 619 b 826 315 746 619 826 538 b 446 -19 826 54 736 -19 b 61 493 161 -19 61 99 b 507 992 61 889 163 992 b 793 958 599 992 719 978 l 746 725 m 551 308 b 425 396 551 375 536 396 b 344 392 397 396 371 393 b 446 226 350 243 375 226 b 551 308 532 226 551 244 "},"7":{"ha":875,"x_min":0,"x_max":0,"o":"m 861 894 b 456 0 761 735 539 263 l 156 0 b 508 735 244 244 400 604 l 61 735 l 61 968 l 861 968 "},"8":{"ha":875,"x_min":0,"x_max":0,"o":"m 439 196 b 546 289 524 196 546 215 b 439 396 546 363 526 396 b 331 289 350 396 331 363 b 439 196 331 215 354 196 m 439 600 b 538 688 507 600 538 619 b 439 772 538 763 507 772 b 338 688 368 772 338 763 b 439 600 338 619 368 600 m 438 -19 b 54 257 135 -19 54 58 b 281 506 54 415 96 497 b 69 735 107 519 69 594 b 438 992 69 917 126 992 b 806 735 749 992 806 917 b 594 506 806 594 768 519 b 821 257 779 497 821 415 b 439 -19 821 58 742 -19 "},"9":{"ha":875,"x_min":0,"x_max":0,"o":"m 213 0 b 476 354 322 122 424 251 l 424 354 b 61 658 142 354 61 436 b 442 992 61 918 150 992 b 826 660 760 992 826 910 b 531 0 826 397 717 197 l 213 0 m 463 578 b 540 579 486 578 513 578 b 543 638 543 599 543 618 b 442 747 543 726 532 747 b 336 664 354 747 336 733 b 463 578 336 590 350 578 "}," ":{"ha":343,"x_min":0,"x_max":0,"o":""},"þ":{"ha":839,"x_min":0,"x_max":0,"o":"m 88 968 l 342 968 l 342 732 b 422 735 368 733 396 735 b 782 356 672 735 782 647 b 486 -19 782 68 647 -19 b 342 4 426 -19 383 -8 l 342 -267 l 88 -267 m 342 224 b 425 186 342 204 376 186 b 529 350 504 186 529 226 b 422 525 529 500 503 525 b 342 513 396 525 358 519 "},"Ž":{"ha":881,"x_min":0,"x_max":0,"o":"m 18 50 b 442 735 138 233 363 597 l 43 735 l 43 968 l 867 968 l 867 921 b 443 233 789 771 528 353 l 872 233 l 872 0 l 18 0 m 465 1125 l 547 1217 l 753 1217 l 583 1038 l 344 1038 l 169 1217 l 381 1217 "},"ž":{"ha":693,"x_min":0,"x_max":0,"o":"m 689 714 l 689 679 b 390 217 611 544 476 339 l 667 217 l 667 0 l 1 0 l 1 33 b 301 497 103 174 254 410 l 26 497 l 26 714 m 357 876 l 439 968 l 644 968 l 475 789 l 236 789 l 61 968 l 272 968 "},"½":{"ha":1308,"x_min":0,"x_max":0,"o":"m 779 594 b 1008 626 826 613 924 626 b 1281 424 1179 626 1281 576 b 1186 243 1281 349 1260 268 b 1008 172 1069 204 1014 199 l 1282 172 l 1282 0 l 764 0 b 939 314 772 174 817 253 b 1074 400 1000 344 1074 353 b 989 443 1074 433 1057 443 b 811 418 932 443 853 429 m 1028 968 l 379 0 l 139 0 l 788 968 m 185 364 l 185 729 l 51 678 l -4 846 l 386 1003 l 386 364 "},"¦":{"ha":599,"x_min":0,"x_max":0,"o":"m 432 1049 l 432 539 l 167 539 l 167 1049 m 432 154 l 432 -356 l 167 -356 l 167 154 "},"!":{"ha":464,"x_min":0,"x_max":0,"o":"m 379 968 l 322 344 l 140 344 l 83 968 m 233 256 b 381 128 344 256 381 238 b 233 -12 381 8 344 -12 b 89 128 125 -12 89 8 b 233 256 89 238 125 256 "},"\"":{"ha":604,"x_min":0,"x_max":0,"o":"m 267 968 l 240 621 l 78 621 l 63 968 m 542 968 l 515 621 l 354 621 l 342 968 "},"#":{"ha":1063,"x_min":0,"x_max":0,"o":"m 65 778 l 228 778 l 242 969 l 474 969 l 460 778 l 614 778 l 628 969 l 860 969 l 846 778 l 1021 778 l 1008 576 l 833 576 l 821 404 l 997 404 l 983 204 l 808 204 l 794 0 l 563 0 l 576 204 l 422 204 l 408 0 l 176 0 l 190 204 l 28 204 l 42 404 l 203 404 l 215 576 l 53 576 m 435 404 l 589 404 l 601 576 l 447 576 "},"%":{"ha":1468,"x_min":0,"x_max":0,"o":"m 1164 968 l 521 0 l 296 0 l 938 968 m 319 992 b 613 672 538 992 613 925 b 319 339 613 415 538 339 b 28 672 101 339 28 415 b 319 992 28 925 101 992 m 319 513 b 392 672 382 513 392 526 b 319 821 392 808 382 821 b 246 672 257 821 246 808 b 319 513 246 526 257 513 m 1147 633 b 1440 314 1365 633 1440 567 b 1147 -19 1440 57 1365 -19 b 856 314 929 -19 856 57 b 1147 633 856 567 929 633 m 1147 154 b 1219 314 1210 154 1219 168 b 1147 463 1219 450 1210 463 b 1074 314 1085 463 1074 450 b 1147 154 1074 168 1085 154 "},"(":{"ha":488,"x_min":0,"x_max":0,"o":"m 94 346 b 428 1078 94 786 236 1001 l 543 893 b 361 346 431 825 361 717 b 543 -201 361 -24 431 -133 l 428 -386 b 94 346 236 -310 94 -94 "},")":{"ha":488,"x_min":0,"x_max":0,"o":"m 393 346 b 60 -386 393 -94 251 -310 l -56 -201 b 126 346 57 -133 126 -25 b -56 893 126 715 57 825 l 60 1078 b 393 346 251 1001 393 786 "},"*":{"ha":790,"x_min":0,"x_max":0,"o":"m 42 815 l 217 815 l 128 968 l 308 1071 l 396 918 l 482 1071 l 663 968 l 572 815 l 749 815 l 749 611 l 572 611 l 661 460 l 481 358 l 396 507 l 308 358 l 128 461 l 217 611 l 42 611 "},",":{"ha":436,"x_min":0,"x_max":0,"o":"m 221 -221 l -4 -221 l 106 150 l 389 150 "},"-":{"ha":460,"x_min":0,"x_max":0,"o":"m 35 522 l 425 522 l 425 278 l 35 278 "},".":{"ha":436,"x_min":0,"x_max":0,"o":"m 217 256 b 364 128 328 256 364 238 b 217 -12 364 8 328 -12 b 72 128 108 -12 72 8 b 217 256 72 238 108 256 "},"/":{"ha":704,"x_min":0,"x_max":0,"o":"m 747 968 l 253 0 l -15 0 l 479 968 "},";":{"ha":436,"x_min":0,"x_max":0,"o":"m 221 -221 l -4 -221 l 106 150 l 389 150 m 217 729 b 364 601 328 729 364 713 b 217 463 364 483 328 463 b 72 601 108 463 72 483 b 217 729 72 713 108 729 "},"<":{"ha":754,"x_min":0,"x_max":0,"o":"m 414 510 l 714 247 l 585 60 l 81 446 l 81 568 l 583 953 l 714 768 "},"A":{"ha":967,"x_min":0,"x_max":0,"o":"m 697 968 b 1031 0 783 674 931 249 l 738 0 b 668 186 718 46 693 113 l 293 186 b 243 0 272 113 256 47 l -44 0 b 293 968 28 254 190 714 m 463 735 b 360 415 435 657 397 539 l 592 415 b 497 735 553 538 518 656 "},"B":{"ha":1021,"x_min":0,"x_max":0,"o":"m 604 226 b 654 306 633 226 654 243 b 599 390 654 372 632 390 l 371 390 l 371 226 m 371 606 l 600 606 b 640 672 624 606 640 613 b 600 742 640 729 624 742 l 371 742 m 715 506 b 942 257 900 497 942 415 b 682 0 942 58 839 0 l 106 0 l 106 968 l 682 968 b 926 735 875 968 926 897 b 715 506 926 594 889 519 "},"D":{"ha":1069,"x_min":0,"x_max":0,"o":"m 544 968 b 1008 490 857 968 1008 868 b 544 0 1008 113 857 0 l 106 0 l 106 968 m 725 486 b 510 735 725 718 688 735 l 371 735 l 371 235 l 510 235 b 725 486 688 235 725 258 "},"E":{"ha":876,"x_min":0,"x_max":0,"o":"m 847 968 l 847 735 l 371 735 l 371 613 l 714 613 l 714 383 l 371 383 l 371 233 l 847 233 l 847 0 l 106 0 l 106 968 "},"G":{"ha":1006,"x_min":0,"x_max":0,"o":"m 644 383 l 474 383 l 474 613 l 918 613 l 918 32 b 525 -19 835 6 664 -19 b 61 493 211 -19 61 99 b 578 992 61 889 247 992 b 890 958 668 992 817 978 l 847 725 b 606 749 803 739 661 749 b 344 490 410 749 344 729 b 588 226 344 251 410 226 b 644 229 604 226 626 228 "},"H":{"ha":1054,"x_min":0,"x_max":0,"o":"m 371 0 l 106 0 l 106 968 l 371 968 l 371 633 l 685 633 l 685 968 l 949 968 l 949 0 l 685 0 l 685 386 l 371 386 "},"I":{"ha":476,"x_min":0,"x_max":0,"o":"m 371 968 l 371 0 l 106 0 l 106 968 "},"J":{"ha":671,"x_min":0,"x_max":0,"o":"m 574 267 b 250 -19 574 46 408 -19 b 0 15 153 -19 69 -7 l 39 250 b 214 226 89 235 143 226 b 306 315 278 226 306 257 l 306 968 l 572 968 "},"K":{"ha":982,"x_min":0,"x_max":0,"o":"m 371 0 l 106 0 l 106 968 l 371 968 m 693 0 b 372 511 538 321 417 489 b 672 968 418 554 536 718 l 985 968 b 694 524 842 718 732 564 b 1008 0 732 492 854 321 "},"M":{"ha":1338,"x_min":0,"x_max":0,"o":"m 682 456 b 897 968 743 618 835 836 l 1232 968 l 1232 0 l 975 0 l 975 586 b 767 72 917 456 818 210 l 554 72 b 361 586 508 204 417 463 l 361 0 l 106 0 l 106 968 l 456 968 b 682 456 524 833 617 617 "},"N":{"ha":1136,"x_min":0,"x_max":0,"o":"m 1031 0 l 701 0 b 364 593 593 200 479 399 l 364 0 l 106 0 l 106 968 l 449 968 b 768 392 558 782 667 588 l 768 968 l 1031 968 "},"O":{"ha":1085,"x_min":0,"x_max":0,"o":"m 543 992 b 1024 497 856 992 1024 889 b 543 -19 1024 99 856 -19 b 61 497 229 -19 61 99 b 543 992 61 889 229 992 m 543 224 b 740 494 721 224 740 249 b 543 746 740 726 721 746 b 344 494 364 746 344 726 b 543 224 344 249 364 224 "},"Q":{"ha":1085,"x_min":0,"x_max":0,"o":"m 543 992 b 1024 497 856 992 1024 889 b 794 53 1024 224 940 92 b 1076 -267 850 32 938 -62 l 775 -267 b 543 -19 678 -103 601 -26 b 61 497 229 -19 61 99 b 543 992 61 889 229 992 m 543 224 b 740 494 721 224 740 249 b 543 746 740 726 721 746 b 344 494 364 746 344 726 b 543 224 344 249 364 224 "},"R":{"ha":1025,"x_min":0,"x_max":0,"o":"m 371 536 l 593 536 b 649 638 621 536 649 560 b 594 742 649 713 626 742 l 371 742 m 715 410 b 1025 0 779 386 833 324 l 696 0 b 442 321 547 261 496 321 l 371 321 l 371 0 l 106 0 l 106 968 l 682 968 b 944 685 875 968 944 847 b 715 410 944 544 889 424 "},"S":{"ha":863,"x_min":0,"x_max":0,"o":"m 758 718 b 483 749 694 733 600 749 b 329 686 349 749 329 725 b 508 606 329 636 349 625 b 824 307 726 578 824 493 b 382 -19 824 57 704 -19 b 54 29 254 -19 133 0 l 107 256 b 378 224 169 240 264 224 b 536 288 514 224 536 239 b 339 371 536 336 518 350 b 47 644 142 394 47 464 b 486 992 47 894 181 992 b 810 943 613 992 733 972 "},"U":{"ha":1038,"x_min":0,"x_max":0,"o":"m 675 968 l 942 968 l 942 250 b 518 -19 942 36 771 -19 b 96 250 264 -19 96 36 l 96 968 l 363 968 l 363 308 b 518 229 363 256 397 229 b 675 308 639 229 675 256 "},"V":{"ha":914,"x_min":0,"x_max":0,"o":"m 231 968 b 464 296 299 806 415 472 b 671 968 526 465 626 799 l 957 968 b 614 0 886 714 718 254 l 276 0 b -61 968 190 290 46 719 "},"W":{"ha":1453,"x_min":0,"x_max":0,"o":"m 729 504 b 593 0 688 329 633 135 l 256 0 b -14 968 188 290 72 719 l 274 968 b 446 353 329 806 407 529 b 611 968 488 489 575 789 l 847 968 b 1019 353 900 800 985 496 b 1174 968 1072 522 1140 793 l 1453 968 b 1179 0 1394 714 1261 254 l 842 0 b 729 504 811 157 767 353 "},"X":{"ha":974,"x_min":0,"x_max":0,"o":"m 321 968 b 497 726 364 910 426 824 b 649 968 560 818 618 910 l 982 968 b 664 492 900 839 782 664 b 999 0 800 297 935 101 l 664 0 b 496 254 625 63 565 154 b 306 0 425 157 361 69 l -28 0 b 329 489 33 76 183 282 b -29 968 188 685 43 879 l 321 968 "},"Y":{"ha":929,"x_min":0,"x_max":0,"o":"m 254 968 b 483 653 308 896 393 781 b 689 968 571 781 649 896 l 1018 968 b 614 371 917 807 761 579 l 614 0 l 349 0 l 349 369 b -99 968 182 601 -8 860 l 254 968 "},"Z":{"ha":881,"x_min":0,"x_max":0,"o":"m 18 50 b 442 735 138 233 363 597 l 43 735 l 43 968 l 867 968 l 867 921 b 443 233 789 771 528 353 l 872 233 l 872 0 l 18 0 "},"[":{"ha":578,"x_min":0,"x_max":0,"o":"m 603 1049 l 603 829 l 393 829 l 393 -143 l 603 -143 l 603 -361 l 131 -361 l 131 1049 "},"^":{"ha":821,"x_min":0,"x_max":0,"o":"m 408 682 l 297 411 l 24 411 l 292 968 l 526 968 l 799 411 l 522 411 "},"a":{"ha":803,"x_min":0,"x_max":0,"o":"m 725 36 b 369 -19 624 1 479 -19 b 58 217 124 -19 58 29 b 336 449 58 417 163 449 b 485 432 382 449 438 442 b 339 532 485 507 471 532 b 113 497 251 532 174 514 l 76 696 b 406 735 168 718 297 735 b 725 457 621 735 725 667 m 485 275 b 394 282 460 281 428 282 b 318 224 339 282 318 275 b 390 164 318 174 329 164 b 485 179 422 164 458 169 "},"f":{"ha":553,"x_min":0,"x_max":0,"o":"m 572 714 l 572 497 l 363 497 l 363 0 l 108 0 l 108 497 l -4 497 l -4 714 l 108 714 l 108 742 b 393 1014 108 956 238 1014 b 625 975 479 1014 565 997 l 572 782 b 451 801 539 793 493 801 b 363 722 383 801 363 779 l 363 714 "},"i":{"ha":426,"x_min":0,"x_max":0,"o":"m 342 714 l 88 714 l 88 0 l 342 0 m 214 1036 b 356 919 321 1036 356 1021 b 214 789 356 808 321 789 b 72 919 107 789 72 808 b 214 1036 72 1021 107 1036 "},"j":{"ha":426,"x_min":0,"x_max":0,"o":"m 214 1036 b 356 919 321 1036 356 1021 b 214 789 356 808 321 789 b 72 919 107 789 72 808 b 214 1036 72 1021 107 1036 m 342 714 l 88 714 l 88 1 b -11 -79 88 -49 54 -79 l -11 -282 b 342 10 246 -282 342 -204 "},"k":{"ha":868,"x_min":0,"x_max":0,"o":"m 342 0 l 88 0 l 88 1003 l 342 1003 m 868 0 b 631 390 753 238 660 368 b 850 714 661 419 743 529 l 560 714 b 342 378 446 521 372 410 b 578 0 369 361 443 238 "},"l":{"ha":438,"x_min":0,"x_max":0,"o":"m 342 217 b 383 36 342 149 356 88 l 150 -36 b 88 210 110 19 88 107 l 88 1003 l 342 1003 "},"s":{"ha":664,"x_min":0,"x_max":0,"o":"m 571 511 b 358 539 515 525 432 539 b 283 500 308 539 283 538 b 399 456 283 474 294 471 b 631 233 558 432 631 385 b 296 -19 631 32 472 -19 b 43 19 217 -19 107 -4 l 89 207 b 283 181 143 193 214 181 b 389 221 357 181 389 185 b 257 268 389 247 369 257 b 42 483 115 282 42 325 b 369 735 42 685 193 735 b 615 694 449 735 553 718 "},"v":{"ha":713,"x_min":0,"x_max":0,"o":"m 222 714 b 357 261 274 571 318 417 b 486 714 406 410 451 564 l 736 714 b 490 0 671 490 581 224 l 193 0 b -33 714 122 256 49 483 "},"x":{"ha":722,"x_min":0,"x_max":0,"o":"m 753 714 b 513 363 704 636 608 497 b 754 0 606 226 700 88 l 479 0 b 372 165 456 42 417 100 b 247 0 318 93 274 32 l -26 0 b 242 356 25 61 135 208 b -22 714 140 500 36 642 l 264 714 b 378 554 290 679 333 618 b 481 714 424 621 460 679 "},"z":{"ha":693,"x_min":0,"x_max":0,"o":"m 689 714 l 689 679 b 390 217 611 544 476 339 l 667 217 l 667 0 l 1 0 l 1 33 b 301 497 103 174 254 410 l 26 497 l 26 714 "},"{":{"ha":581,"x_min":0,"x_max":0,"o":"m 65 239 l 65 451 b 221 731 147 451 221 508 b 471 1082 221 967 356 1043 l 590 896 b 461 619 503 858 461 814 b 339 346 461 415 385 360 b 461 67 385 332 461 272 b 590 -208 461 -126 497 -168 l 471 -390 b 221 -39 356 -351 221 -275 b 65 240 221 183 147 240 "},"|":{"ha":599,"x_min":0,"x_max":0,"o":"m 432 1049 l 432 -356 l 167 -356 l 167 1049 "},"Ç":{"ha":810,"x_min":0,"x_max":0,"o":"m 61 493 b 525 992 61 889 211 992 b 810 958 617 992 736 978 l 763 725 b 588 749 719 739 644 749 b 344 490 410 749 344 729 b 588 226 344 251 410 226 b 763 250 644 226 719 236 l 810 11 b 525 -19 735 -7 617 -19 b 61 493 211 -19 61 99 m 551 0 l 551 -50 b 690 -162 639 -50 690 -82 b 483 -282 690 -253 636 -282 b 358 -267 424 -282 392 -276 l 394 -175 b 469 -185 408 -182 442 -185 b 506 -158 497 -185 506 -175 b 411 -131 506 -132 479 -125 l 461 0 "},"É":{"ha":876,"x_min":0,"x_max":0,"o":"m 106 968 l 106 0 l 847 0 l 847 233 l 371 233 l 371 383 l 714 383 l 714 613 l 371 613 l 371 735 l 847 735 l 847 968 m 333 1038 l 506 1217 l 758 1217 l 542 1038 "},"Ñ":{"ha":1136,"x_min":0,"x_max":0,"o":"m 1031 0 l 701 0 b 364 593 593 200 479 399 l 364 0 l 106 0 l 106 968 l 449 968 b 768 392 558 782 667 588 l 768 968 l 1031 968 m 836 1144 b 656 1013 811 1078 749 1013 b 457 1069 563 1013 525 1069 b 396 1013 432 1069 415 1057 l 290 1117 b 449 1226 325 1176 374 1226 b 657 1172 558 1226 594 1172 b 721 1238 688 1172 701 1185 "},"Ö":{"ha":1085,"x_min":0,"x_max":0,"o":"m 543 992 b 61 497 229 992 61 889 b 543 -19 61 99 229 -19 b 1024 497 856 -19 1024 99 b 543 992 1024 889 856 992 m 543 224 b 344 494 364 224 344 249 b 543 746 344 726 364 746 b 740 494 721 746 740 726 b 543 224 740 249 721 224 m 374 1224 b 482 1124 456 1224 482 1210 b 374 1013 482 1029 456 1013 b 267 1124 293 1013 267 1029 b 374 1224 267 1210 293 1224 m 704 1224 b 811 1124 785 1224 811 1210 b 704 1013 811 1029 785 1013 b 596 1124 621 1013 596 1029 b 704 1224 596 1210 621 1224 "},"Ü":{"ha":1038,"x_min":0,"x_max":0,"o":"m 675 308 b 518 229 675 256 639 229 b 363 308 397 229 363 256 l 363 968 l 96 968 l 96 250 b 518 -19 96 36 264 -19 b 942 250 771 -19 942 36 l 942 968 l 675 968 m 350 1224 b 458 1124 432 1224 458 1210 b 350 1013 458 1029 432 1013 b 243 1124 269 1013 243 1029 b 350 1224 243 1210 269 1224 m 681 1224 b 788 1124 761 1224 788 1210 b 681 1013 788 1029 761 1013 b 572 1124 597 1013 572 1029 b 681 1224 572 1210 597 1224 "},"á":{"ha":803,"x_min":0,"x_max":0,"o":"m 725 457 b 406 735 725 667 621 735 b 76 696 297 735 168 718 l 113 497 b 339 532 174 514 251 532 b 485 432 471 532 485 507 b 336 449 438 442 382 449 b 58 217 163 449 58 417 b 369 -19 58 29 124 -19 b 725 36 479 -19 624 1 m 485 179 b 390 164 458 169 422 164 b 318 224 329 164 318 174 b 394 282 318 275 339 282 b 485 275 428 282 460 281 l 485 179 m 250 789 l 422 968 l 675 968 l 458 789 "},"à":{"ha":803,"x_min":0,"x_max":0,"o":"m 725 36 b 369 -19 624 1 479 -19 b 58 217 124 -19 58 29 b 336 449 58 417 163 449 b 485 432 382 449 438 442 b 339 532 485 507 471 532 b 113 497 251 532 174 514 l 76 696 b 406 735 168 718 297 735 b 725 457 621 735 725 667 m 485 275 b 394 282 460 281 428 282 b 318 224 339 282 318 275 b 390 164 318 174 329 164 b 485 179 422 164 458 169 m 333 789 l 117 968 l 369 968 l 542 789 "},"â":{"ha":803,"x_min":0,"x_max":0,"o":"m 725 457 b 406 735 725 667 621 735 b 76 696 297 735 168 718 l 113 497 b 339 532 174 514 251 532 b 485 432 471 532 485 507 b 336 449 438 442 382 449 b 58 217 163 449 58 417 b 369 -19 58 29 124 -19 b 725 36 479 -19 624 1 m 485 179 b 390 164 458 169 422 164 b 318 224 329 164 318 174 b 394 282 318 275 339 282 b 485 275 428 282 460 281 l 485 179 m 397 881 l 315 789 l 110 789 l 279 968 l 518 968 l 693 789 l 482 789 "},"ä":{"ha":803,"x_min":0,"x_max":0,"o":"m 725 457 b 406 735 725 667 621 735 b 76 696 297 735 168 718 l 113 497 b 339 532 174 514 251 532 b 485 432 471 532 485 507 b 336 449 438 442 382 449 b 58 217 163 449 58 417 b 369 -19 58 29 124 -19 b 725 36 479 -19 624 1 m 485 179 b 390 164 458 169 422 164 b 318 224 329 164 318 174 b 394 282 318 275 339 282 b 485 275 428 282 460 281 l 485 179 m 225 981 b 333 881 307 981 333 967 b 225 769 333 786 307 769 b 118 881 144 769 118 786 b 225 981 118 967 144 981 m 556 981 b 663 881 636 981 663 967 b 556 769 663 786 636 769 b 447 881 472 769 447 786 b 556 981 447 967 472 981 "},"ã":{"ha":803,"x_min":0,"x_max":0,"o":"m 725 457 b 406 735 725 667 621 735 b 76 696 297 735 168 718 l 113 497 b 339 532 174 514 251 532 b 485 432 471 532 485 507 b 336 449 438 442 382 449 b 58 217 163 449 58 417 b 369 -19 58 29 124 -19 b 725 36 479 -19 624 1 m 485 179 b 390 164 458 169 422 164 b 318 224 329 164 318 174 b 394 282 318 275 339 282 b 485 275 428 282 460 281 l 485 179 m 658 900 b 478 768 633 833 571 768 b 279 825 385 768 347 825 b 218 768 254 825 238 813 l 113 872 b 271 982 147 932 196 982 b 479 928 381 982 417 928 b 543 993 510 928 524 940 "},"å":{"ha":803,"x_min":0,"x_max":0,"o":"m 725 36 b 369 -19 624 1 479 -19 b 58 217 124 -19 58 29 b 336 449 58 417 163 449 b 485 432 382 449 438 442 b 339 532 485 507 471 532 b 113 497 251 532 174 514 l 76 696 b 406 735 168 718 297 735 b 725 457 621 735 725 667 m 485 275 b 394 282 460 281 428 282 b 318 224 339 282 318 275 b 390 164 318 174 329 164 b 485 179 422 164 458 169 m 394 1033 b 572 892 518 1033 572 1004 b 394 750 572 778 518 750 b 214 892 269 750 214 778 b 394 1033 214 1004 269 1033 m 394 939 b 335 890 343 939 335 926 b 394 843 335 853 343 843 b 453 890 444 843 453 854 b 394 939 453 928 444 939 "},"ç":{"ha":658,"x_min":0,"x_max":0,"o":"m 647 15 b 415 -19 589 -7 490 -19 b 56 361 204 -19 56 68 b 415 735 56 651 206 735 b 647 704 494 735 590 724 l 597 493 b 440 521 560 504 497 521 b 310 357 356 521 310 511 b 440 196 310 211 356 196 b 597 226 501 196 560 213 m 442 0 l 442 -50 b 581 -162 529 -50 581 -82 b 374 -282 581 -253 526 -282 b 249 -267 314 -282 282 -276 l 285 -175 b 360 -185 299 -182 332 -185 b 396 -158 388 -185 396 -175 b 301 -131 396 -132 369 -125 l 351 0 "},"é":{"ha":776,"x_min":0,"x_max":0,"o":"m 642 208 b 446 189 592 197 497 189 b 315 276 363 189 318 201 l 728 276 b 397 735 754 664 646 735 b 56 361 194 735 56 651 b 413 -19 56 68 217 -19 b 678 19 500 -19 607 -4 m 418 547 b 514 458 486 547 513 532 l 317 458 b 418 547 329 525 349 547 m 267 789 l 439 968 l 692 968 l 475 789 "},"è":{"ha":776,"x_min":0,"x_max":0,"o":"m 678 19 b 413 -19 607 -4 500 -19 b 56 361 217 -19 56 68 b 397 735 56 651 194 735 b 728 276 646 735 754 664 l 315 276 b 446 189 318 201 363 189 b 642 208 497 189 592 197 m 418 547 b 317 458 349 547 329 525 l 514 458 b 418 547 513 532 486 547 m 353 789 l 136 968 l 389 968 l 561 789 "},"ê":{"ha":776,"x_min":0,"x_max":0,"o":"m 642 208 b 446 189 592 197 497 189 b 315 276 363 189 318 201 l 728 276 b 397 735 754 664 646 735 b 56 361 194 735 56 651 b 413 -19 56 68 217 -19 b 678 19 500 -19 607 -4 m 418 547 b 514 458 486 547 513 532 l 317 458 b 418 547 329 525 349 547 m 413 881 l 331 789 l 125 789 l 294 968 l 533 968 l 708 789 l 497 789 "},"ë":{"ha":776,"x_min":0,"x_max":0,"o":"m 642 208 b 446 189 592 197 497 189 b 315 276 363 189 318 201 l 728 276 b 397 735 754 664 646 735 b 56 361 194 735 56 651 b 413 -19 56 68 217 -19 b 678 19 500 -19 607 -4 m 418 547 b 514 458 486 547 513 532 l 317 458 b 418 547 329 525 349 547 m 249 981 b 357 881 331 981 357 967 b 249 769 357 786 331 769 b 142 881 168 769 142 786 b 249 981 142 967 168 981 m 579 981 b 686 881 660 981 686 967 b 579 769 686 786 660 769 b 471 881 496 769 471 786 b 579 981 471 967 496 981 "},"í":{"ha":426,"x_min":0,"x_max":0,"o":"m 342 0 l 88 0 l 88 714 l 342 714 m 50 789 l 222 968 l 475 968 l 258 789 "},"ì":{"ha":426,"x_min":0,"x_max":0,"o":"m 342 0 l 88 0 l 88 714 l 342 714 m 163 789 l -54 968 l 199 968 l 371 789 "},"î":{"ha":426,"x_min":0,"x_max":0,"o":"m 342 0 l 88 0 l 88 714 l 342 714 m 211 881 l 129 789 l -76 789 l 93 968 l 332 968 l 507 789 l 296 789 "},"ï":{"ha":426,"x_min":0,"x_max":0,"o":"m 342 0 l 88 0 l 88 714 l 342 714 m 51 981 b 160 881 133 981 160 967 b 51 769 160 786 133 769 b -56 881 -29 769 -56 786 b 51 981 -56 967 -29 981 m 382 981 b 489 881 463 981 489 967 b 382 769 489 786 463 769 b 274 881 299 769 274 786 b 382 981 274 967 299 981 "},"ñ":{"ha":850,"x_min":0,"x_max":0,"o":"m 342 0 l 88 0 l 88 668 b 474 735 183 700 332 735 b 772 393 668 735 772 647 l 772 0 l 518 0 l 518 376 b 418 510 518 476 504 510 b 342 500 396 510 371 506 m 700 900 b 519 768 675 833 613 768 b 321 825 426 768 389 825 b 260 768 296 825 279 813 l 154 872 b 313 982 189 932 238 982 b 521 928 422 982 458 928 b 585 993 551 928 565 940 "},"ó":{"ha":822,"x_min":0,"x_max":0,"o":"m 410 -19 b 767 361 646 -19 767 68 b 410 735 767 653 644 735 b 56 361 179 735 56 653 b 410 -19 56 68 176 -19 m 410 540 b 511 357 490 540 511 525 b 410 175 511 194 490 175 b 310 357 331 175 310 194 b 410 540 310 525 331 540 m 249 789 l 421 968 l 674 968 l 457 789 "},"ò":{"ha":822,"x_min":0,"x_max":0,"o":"m 410 -19 b 56 361 176 -19 56 68 b 410 735 56 653 179 735 b 767 361 644 735 767 653 b 410 -19 767 68 646 -19 m 410 540 b 310 357 331 540 310 525 b 410 175 310 194 331 175 b 511 357 490 175 511 194 b 410 540 511 525 490 540 m 360 789 l 143 968 l 396 968 l 568 789 "},"ô":{"ha":822,"x_min":0,"x_max":0,"o":"m 410 -19 b 767 361 646 -19 767 68 b 410 735 767 653 644 735 b 56 361 179 735 56 653 b 410 -19 56 68 176 -19 m 410 540 b 511 357 490 540 511 525 b 410 175 511 194 490 175 b 310 357 331 175 310 194 b 410 540 310 525 331 540 m 403 881 l 321 789 l 115 789 l 285 968 l 524 968 l 699 789 l 488 789 "},"ö":{"ha":822,"x_min":0,"x_max":0,"o":"m 410 -19 b 767 361 646 -19 767 68 b 410 735 767 653 644 735 b 56 361 179 735 56 653 b 410 -19 56 68 176 -19 m 410 540 b 511 357 490 540 511 525 b 410 175 511 194 490 175 b 310 357 331 175 310 194 b 410 540 310 525 331 540 m 244 981 b 353 881 326 981 353 967 b 244 769 353 786 326 769 b 138 881 164 769 138 786 b 244 981 138 967 164 981 m 575 981 b 682 881 656 981 682 967 b 575 769 682 786 656 769 b 467 881 492 769 467 786 b 575 981 467 967 492 981 "},"õ":{"ha":822,"x_min":0,"x_max":0,"o":"m 410 -19 b 767 361 646 -19 767 68 b 410 735 767 653 644 735 b 56 361 179 735 56 653 b 410 -19 56 68 176 -19 m 410 540 b 511 357 490 540 511 525 b 410 175 511 194 490 175 b 310 357 331 175 310 194 b 410 540 310 525 331 540 m 682 900 b 501 768 657 833 594 768 b 303 825 408 768 371 825 b 242 768 278 825 261 813 l 136 872 b 294 982 171 932 219 982 b 503 928 404 982 440 928 b 567 993 533 928 547 940 "},"ú":{"ha":850,"x_min":0,"x_max":0,"o":"m 510 214 b 432 204 479 208 456 204 b 332 338 346 204 332 238 l 332 714 l 79 714 l 79 321 b 376 -21 79 67 182 -21 b 763 46 518 -21 667 14 l 763 714 l 510 714 m 268 789 l 440 968 l 693 968 l 476 789 "},"ù":{"ha":850,"x_min":0,"x_max":0,"o":"m 510 714 l 763 714 l 763 46 b 376 -21 667 14 518 -21 b 79 321 182 -21 79 67 l 79 714 l 332 714 l 332 338 b 432 204 332 238 346 204 b 510 214 456 204 479 208 m 365 789 l 149 968 l 401 968 l 574 789 "},"û":{"ha":850,"x_min":0,"x_max":0,"o":"m 510 214 b 432 204 479 208 456 204 b 332 338 346 204 332 238 l 332 714 l 79 714 l 79 321 b 376 -21 79 67 182 -21 b 763 46 518 -21 667 14 l 763 714 l 510 714 m 421 881 l 339 789 l 133 789 l 303 968 l 542 968 l 717 789 l 506 789 "},"ü":{"ha":850,"x_min":0,"x_max":0,"o":"m 510 214 b 432 204 479 208 456 204 b 332 338 346 204 332 238 l 332 714 l 79 714 l 79 321 b 376 -21 79 67 182 -21 b 763 46 518 -21 667 14 l 763 714 l 510 714 m 253 981 b 361 881 335 981 361 967 b 253 769 361 786 335 769 b 146 881 172 769 146 786 b 253 981 146 967 172 981 m 583 981 b 690 881 664 981 690 967 b 583 769 690 786 664 769 b 475 881 500 769 475 786 b 583 981 475 967 500 981 "},"†":{"ha":657,"x_min":0,"x_max":0,"o":"m 42 815 l 226 815 l 226 1000 l 429 1000 l 429 815 l 615 815 l 615 611 l 429 611 l 429 329 l 226 329 l 226 611 l 42 611 "},"¢":{"ha":626,"x_min":0,"x_max":0,"o":"m 507 1036 l 507 886 b 621 863 546 882 589 874 l 574 676 b 507 688 558 682 529 686 l 507 344 b 574 358 529 346 558 351 l 621 174 b 507 146 589 161 546 151 l 507 -19 l 318 -19 l 318 144 b 56 519 164 169 56 269 b 318 886 56 767 165 863 l 318 1036 m 285 515 b 318 379 285 443 299 401 l 318 656 b 285 515 299 632 285 592 "},"£":{"ha":863,"x_min":0,"x_max":0,"o":"m 35 578 l 106 578 l 106 644 b 528 992 106 876 222 992 b 851 943 654 992 775 972 l 800 718 b 525 749 736 733 642 749 b 371 667 390 749 371 725 l 371 578 l 651 578 l 651 371 l 371 371 l 371 233 l 813 233 l 813 0 l 106 0 l 106 371 l 35 371 "},"§":{"ha":863,"x_min":0,"x_max":0,"o":"m 742 736 b 490 765 683 751 597 765 b 350 707 367 765 350 743 b 514 632 350 660 367 650 b 829 353 713 606 829 526 b 757 188 829 285 799 231 b 800 42 785 150 800 103 b 371 -282 800 -192 650 -282 b 75 -236 256 -282 144 -264 l 122 -26 b 374 -56 181 -42 267 -56 b 514 3 497 -56 514 -33 b 350 78 514 50 497 60 b 35 357 151 104 35 183 b 100 531 35 429 60 486 b 64 668 76 567 64 611 b 493 992 64 901 214 992 b 789 946 608 992 719 974 m 326 415 b 297 375 307 407 297 393 b 506 297 297 329 314 317 b 536 293 515 296 526 294 b 567 335 556 303 567 315 b 358 413 567 381 550 393 b 326 415 347 414 336 414 "},"•":{"ha":822,"x_min":0,"x_max":0,"o":"m 410 78 b 56 458 176 78 56 165 b 410 832 56 750 179 832 b 767 458 644 832 767 750 b 410 78 767 165 646 78 "},"¶":{"ha":967,"x_min":0,"x_max":0,"o":"m 638 0 l 638 285 l 533 285 l 533 0 l 310 0 l 310 285 l 285 285 b 22 619 111 285 22 436 b 285 968 22 829 92 968 l 861 968 l 861 0 "},"®":{"ha":800,"x_min":0,"x_max":0,"o":"m 592 693 b 492 586 592 607 556 586 b 567 440 526 571 561 550 l 425 440 b 392 529 425 497 407 529 l 381 529 l 381 440 l 242 440 l 242 818 l 488 818 b 592 693 560 818 592 761 m 447 683 b 429 708 447 697 443 708 l 381 708 l 381 658 l 429 658 b 447 683 443 658 447 667 m 757 628 b 401 261 757 346 644 261 b 43 628 157 261 43 346 b 401 992 43 914 158 992 b 757 628 643 992 757 914 m 611 628 b 401 858 611 831 560 858 b 193 628 243 858 193 831 b 401 397 193 438 243 397 b 611 628 560 397 611 438 "},"©":{"ha":1113,"x_min":0,"x_max":0,"o":"m 557 992 b 1051 497 869 992 1051 889 b 557 -19 1051 99 869 -19 b 61 497 243 -19 61 99 b 557 992 61 889 243 992 m 557 153 b 846 497 779 153 846 189 b 557 815 846 788 779 815 b 267 497 333 815 267 788 b 557 153 267 189 333 153 m 776 238 b 606 210 729 219 671 210 b 325 490 411 210 325 253 b 606 765 325 725 411 765 b 776 740 676 765 731 757 l 738 579 b 624 594 708 588 661 594 b 531 488 557 594 531 585 b 624 382 531 397 557 382 b 738 399 664 382 708 388 "},"™":{"ha":1279,"x_min":0,"x_max":0,"o":"m 168 456 l 168 817 l 0 817 l 0 968 l 506 968 l 506 817 l 338 817 l 338 456 m 890 701 l 1010 968 l 1210 968 l 1210 456 l 1046 456 l 1046 728 l 932 494 l 825 494 l 721 728 l 721 456 l 557 456 l 557 968 l 764 968 "},"´":{"ha":651,"x_min":0,"x_max":0,"o":"m 117 789 l 289 968 l 542 968 l 325 789 "},"¨":{"ha":718,"x_min":0,"x_max":0,"o":"m 179 981 b 288 881 261 981 288 967 b 179 769 288 786 261 769 b 72 881 99 769 72 786 b 179 981 72 967 99 981 m 510 981 b 617 881 590 981 617 967 b 510 769 617 786 590 769 b 401 881 426 769 401 786 b 510 981 401 967 426 981 "},"≠":{"ha":754,"x_min":0,"x_max":0,"o":"m 715 954 l 669 861 l 719 861 l 719 617 l 549 617 l 444 404 l 719 404 l 719 160 l 325 160 l 276 61 l 38 61 l 86 160 l 35 160 l 35 404 l 206 404 l 310 617 l 35 617 l 35 861 l 431 861 l 476 954 "},"Æ":{"ha":1356,"x_min":0,"x_max":0,"o":"m 1326 968 l 1326 735 l 850 735 l 850 613 l 1124 613 l 1124 383 l 850 383 l 850 233 l 1326 233 l 1326 0 l 585 0 l 585 186 l 199 186 b 85 0 153 113 114 47 l -237 0 b 431 968 -78 254 240 714 m 585 415 l 585 735 l 556 735 b 344 415 501 657 424 539 "},"Ø":{"ha":1085,"x_min":0,"x_max":0,"o":"m 1107 968 l 964 807 b 1024 497 1003 732 1024 632 b 543 -19 1024 99 856 -19 b 276 26 438 -19 347 -6 l 253 0 l -15 0 l 128 163 b 61 497 83 242 61 350 b 543 992 61 889 229 992 b 818 944 653 992 746 978 l 839 968 m 543 746 b 344 494 364 746 344 726 b 346 408 344 463 344 433 l 639 740 b 543 746 614 744 582 746 m 543 224 b 740 494 721 224 740 249 b 739 551 740 515 740 535 l 454 228 b 543 224 478 225 507 224 "},"¥":{"ha":929,"x_min":0,"x_max":0,"o":"m 138 511 l 246 511 b -99 968 108 699 -26 881 l 254 968 b 483 653 308 896 393 781 b 689 968 571 781 649 896 l 1018 968 b 713 511 939 842 828 676 l 807 511 l 807 338 l 614 338 l 614 256 l 807 256 l 807 82 l 614 82 l 614 0 l 349 0 l 349 82 l 138 82 l 138 256 l 349 256 l 349 338 l 138 338 "},"∑":{"ha":883,"x_min":0,"x_max":0,"o":"m 294 486 b 21 968 183 668 60 883 l 858 968 l 858 735 l 460 735 b 608 481 481 697 539 597 b 449 233 543 374 485 285 l 875 233 l 875 0 l 0 0 b 294 486 60 90 189 310 "},"æ":{"ha":1192,"x_min":0,"x_max":0,"o":"m 1093 19 b 828 -19 1022 -4 915 -19 b 649 17 760 -19 699 -8 b 369 -19 560 -6 457 -19 b 58 217 124 -19 58 29 b 336 449 58 417 163 449 b 485 432 382 449 438 442 b 339 526 485 507 471 526 b 113 497 251 526 174 514 l 76 696 b 406 735 168 718 297 735 b 618 689 500 735 568 719 b 813 735 668 721 733 735 b 1143 276 1061 735 1169 664 l 731 276 b 861 189 733 201 778 189 b 1057 208 913 189 1007 197 m 499 182 b 482 275 489 211 482 243 b 397 282 457 281 431 282 b 321 224 342 282 321 275 b 393 164 321 174 332 164 b 499 182 425 164 482 176 m 833 547 b 732 458 764 547 744 525 l 929 458 b 833 547 928 532 901 547 "},"ø":{"ha":822,"x_min":0,"x_max":0,"o":"m 840 714 l 726 586 b 767 361 753 531 767 458 b 410 -19 767 68 646 -19 b 214 14 332 -19 267 -8 l 201 0 l -15 0 l 97 126 b 56 361 69 183 56 260 b 410 735 56 653 179 735 b 611 700 490 735 558 725 l 624 714 m 410 540 b 310 363 331 540 310 525 l 463 533 b 410 540 449 539 432 540 m 410 175 b 511 346 488 175 510 193 l 361 179 b 410 175 374 175 390 175 "},"¬":{"ha":754,"x_min":0,"x_max":0,"o":"m 35 631 l 719 631 l 719 0 l 457 0 l 457 386 l 35 386 "},"…":{"ha":1488,"x_min":0,"x_max":0,"o":"m 256 256 b 403 128 367 256 403 238 b 256 -12 403 8 367 -12 b 111 128 147 -12 111 8 b 256 256 111 238 147 256 m 740 256 b 888 128 851 256 888 238 b 740 -12 888 8 851 -12 b 596 128 632 -12 596 8 b 740 256 596 238 632 256 m 1229 256 b 1376 128 1340 256 1376 238 b 1229 -12 1376 8 1340 -12 b 1085 128 1121 -12 1085 8 b 1229 256 1085 238 1121 256 "},"Õ":{"ha":1085,"x_min":0,"x_max":0,"o":"m 543 992 b 61 497 229 992 61 889 b 543 -19 61 99 229 -19 b 1024 497 856 -19 1024 99 b 543 992 1024 889 856 992 m 543 224 b 344 494 364 224 344 249 b 543 746 344 726 364 746 b 740 494 721 746 740 726 b 543 224 740 249 721 224 m 815 1144 b 635 1013 790 1078 728 1013 b 436 1069 542 1013 504 1069 b 375 1013 411 1069 394 1057 l 269 1117 b 428 1226 304 1176 353 1226 b 636 1172 538 1226 574 1172 b 700 1238 667 1172 681 1185 "},"Œ":{"ha":1510,"x_min":0,"x_max":0,"o":"m 1481 968 l 1481 735 l 993 735 b 1018 613 1004 699 1013 658 l 1278 613 l 1278 383 l 1018 383 b 988 233 1013 326 1001 276 l 1481 233 l 1481 0 l 732 0 b 543 -19 676 -14 613 -19 b 61 497 229 -19 61 99 b 543 992 61 889 229 992 b 754 968 624 992 693 985 m 543 224 b 740 494 721 224 740 249 b 543 746 740 726 721 746 b 344 494 364 746 344 726 b 543 224 344 249 364 224 "},"œ":{"ha":1226,"x_min":0,"x_max":0,"o":"m 1128 19 b 863 -19 1057 -4 950 -19 b 644 43 775 -19 700 -1 b 410 -19 592 -1 515 -19 b 56 361 176 -19 56 68 b 410 735 56 653 179 735 b 639 679 511 735 586 719 b 847 735 690 719 760 735 b 1178 276 1096 735 1204 664 l 765 276 b 896 189 768 201 813 189 b 1092 208 947 189 1042 197 m 410 540 b 310 357 331 540 310 525 b 410 175 310 194 331 175 b 511 357 490 175 511 194 b 410 540 511 525 490 540 m 868 547 b 767 458 799 547 779 525 l 964 458 b 868 547 963 532 936 547 "},"–":{"ha":851,"x_min":0,"x_max":0,"o":"m 63 522 l 789 522 l 789 278 l 63 278 "},"—":{"ha":1240,"x_min":0,"x_max":0,"o":"m 63 522 l 1178 522 l 1178 278 l 63 278 "},"’":{"ha":410,"x_min":0,"x_max":0,"o":"m 226 688 l 32 688 l 140 1058 l 378 1058 "},"ÿ":{"ha":713,"x_min":0,"x_max":0,"o":"m 736 714 b 369 -267 646 393 513 33 l 92 -267 b 208 -36 131 -200 174 -112 b -33 714 139 218 49 483 l 222 714 b 357 261 274 571 318 417 b 486 714 406 410 451 564 m 201 981 b 310 881 283 981 310 967 b 201 769 310 786 283 769 b 94 881 121 769 94 786 b 201 981 94 967 121 981 m 532 981 b 639 881 613 981 639 967 b 532 769 639 786 613 769 b 424 881 449 769 424 786 b 532 981 424 967 449 981 "},"Ÿ":{"ha":929,"x_min":0,"x_max":0,"o":"m 254 968 b 483 653 308 896 393 781 b 689 968 571 781 649 896 l 1018 968 b 614 371 917 807 761 579 l 614 0 l 349 0 l 349 369 b -99 968 182 601 -8 860 l 254 968 m 317 1224 b 425 1124 399 1224 425 1210 b 317 1013 425 1029 399 1013 b 210 1124 236 1013 210 1029 b 317 1224 210 1210 236 1224 m 647 1224 b 754 1124 728 1224 754 1210 b 647 1013 754 1029 728 1013 b 539 1124 564 1013 539 1029 b 647 1224 539 1210 564 1224 "},"⁄":{"ha":914,"x_min":0,"x_max":0,"o":"m 914 968 l 243 0 l 18 0 l 688 968 "},"‹":{"ha":578,"x_min":0,"x_max":0,"o":"m 361 454 l 550 192 l 407 46 l 28 451 l 406 856 l 550 713 "},"ﬁ":{"ha":881,"x_min":0,"x_max":0,"o":"m 793 0 l 539 0 l 539 497 l 363 497 l 363 0 l 108 0 l 108 497 l -4 497 l -4 714 l 108 714 l 108 742 b 492 1014 108 954 247 1014 b 778 975 597 1014 704 996 l 725 782 b 536 801 690 789 611 801 b 363 722 425 801 363 785 l 363 714 l 793 714 "},"·":{"ha":460,"x_min":0,"x_max":0,"o":"m 228 561 b 388 424 349 561 388 542 b 228 272 388 296 349 272 b 72 424 111 272 72 296 b 228 561 72 542 111 561 "},"‚":{"ha":382,"x_min":0,"x_max":0,"o":"m 213 -221 l 18 -221 l 126 150 l 364 150 "},"„":{"ha":726,"x_min":0,"x_max":0,"o":"m 542 -235 l 347 -235 l 456 136 l 693 136 m 228 -235 l 33 -235 l 142 136 l 379 136 "},"Ê":{"ha":876,"x_min":0,"x_max":0,"o":"m 106 968 l 106 0 l 847 0 l 847 233 l 371 233 l 371 383 l 714 383 l 714 613 l 371 613 l 371 735 l 847 735 l 847 968 m 483 1129 l 401 1038 l 196 1038 l 365 1217 l 604 1217 l 779 1038 l 568 1038 "},"Ë":{"ha":876,"x_min":0,"x_max":0,"o":"m 106 968 l 106 0 l 847 0 l 847 233 l 371 233 l 371 383 l 714 383 l 714 613 l 371 613 l 371 735 l 847 735 l 847 968 m 315 1224 b 424 1124 397 1224 424 1210 b 315 1013 424 1029 397 1013 b 208 1124 235 1013 208 1029 b 315 1224 208 1210 235 1224 m 646 1224 b 753 1124 726 1224 753 1210 b 646 1013 753 1029 726 1013 b 538 1124 563 1013 538 1029 b 646 1224 538 1210 563 1224 "},"È":{"ha":876,"x_min":0,"x_max":0,"o":"m 847 968 l 847 735 l 371 735 l 371 613 l 714 613 l 714 383 l 371 383 l 371 233 l 847 233 l 847 0 l 106 0 l 106 968 m 475 1038 l 258 1217 l 511 1217 l 683 1038 "},"Í":{"ha":476,"x_min":0,"x_max":0,"o":"m 106 968 l 106 0 l 371 0 l 371 968 m 94 1038 l 267 1217 l 519 1217 l 303 1038 "},"Î":{"ha":476,"x_min":0,"x_max":0,"o":"m 106 968 l 106 0 l 371 0 l 371 968 m 235 1129 l 153 1038 l -53 1038 l 117 1217 l 356 1217 l 531 1038 l 319 1038 "},"Ï":{"ha":476,"x_min":0,"x_max":0,"o":"m 106 968 l 106 0 l 371 0 l 371 968 m 74 1224 b 182 1124 156 1224 182 1210 b 74 1013 182 1029 156 1013 b -33 1124 -7 1013 -33 1029 b 74 1224 -33 1210 -7 1224 m 404 1224 b 511 1124 485 1224 511 1210 b 404 1013 511 1029 485 1013 b 296 1124 321 1013 296 1029 b 404 1224 296 1210 321 1224 "},"Ì":{"ha":476,"x_min":0,"x_max":0,"o":"m 371 968 l 371 0 l 106 0 l 106 968 m 179 1038 l -37 1217 l 215 1217 l 388 1038 "},"Ó":{"ha":1085,"x_min":0,"x_max":0,"o":"m 543 992 b 61 497 229 992 61 889 b 543 -19 61 99 229 -19 b 1024 497 856 -19 1024 99 b 543 992 1024 889 856 992 m 543 224 b 344 494 364 224 344 249 b 543 746 344 726 364 746 b 740 494 721 746 740 726 b 543 224 740 249 721 224 m 333 1038 l 506 1217 l 758 1217 l 542 1038 "},"Ô":{"ha":1085,"x_min":0,"x_max":0,"o":"m 543 992 b 61 497 229 992 61 889 b 543 -19 61 99 229 -19 b 1024 497 856 -19 1024 99 b 543 992 1024 889 856 992 m 543 224 b 344 494 364 224 344 249 b 543 746 344 726 364 746 b 740 494 721 746 740 726 b 543 224 740 249 721 224 m 538 1129 l 456 1038 l 250 1038 l 419 1217 l 658 1217 l 833 1038 l 622 1038 "},"Ò":{"ha":1085,"x_min":0,"x_max":0,"o":"m 543 992 b 1024 497 856 992 1024 889 b 543 -19 1024 99 856 -19 b 61 497 229 -19 61 99 b 543 992 61 889 229 992 m 543 224 b 740 494 721 224 740 249 b 543 746 740 726 721 746 b 344 494 364 746 344 726 b 543 224 344 249 364 224 m 493 1038 l 276 1217 l 529 1217 l 701 1038 "},"Ú":{"ha":1038,"x_min":0,"x_max":0,"o":"m 675 308 b 518 229 675 256 639 229 b 363 308 397 229 363 256 l 363 968 l 96 968 l 96 250 b 518 -19 96 36 264 -19 b 942 250 771 -19 942 36 l 942 968 l 675 968 m 344 1038 l 517 1217 l 769 1217 l 553 1038 "},"Û":{"ha":1038,"x_min":0,"x_max":0,"o":"m 675 308 b 518 229 675 256 639 229 b 363 308 397 229 363 256 l 363 968 l 96 968 l 96 250 b 518 -19 96 36 264 -19 b 942 250 771 -19 942 36 l 942 968 l 675 968 m 510 1129 l 428 1038 l 222 1038 l 392 1217 l 631 1217 l 806 1038 l 594 1038 "},"Ù":{"ha":1038,"x_min":0,"x_max":0,"o":"m 675 968 l 942 968 l 942 250 b 518 -19 942 36 771 -19 b 96 250 264 -19 96 36 l 96 968 l 363 968 l 363 308 b 518 229 363 256 397 229 b 675 308 639 229 675 256 m 483 1038 l 267 1217 l 519 1217 l 692 1038 "},"ı":{"ha":426,"x_min":0,"x_max":0,"o":"m 342 0 l 88 0 l 88 714 l 342 714 "},"˜":{"ha":976,"x_min":0,"x_max":0,"o":"m 742 900 b 561 768 717 833 654 768 b 363 825 468 768 431 825 b 301 768 338 825 321 813 l 196 872 b 354 982 231 932 279 982 b 563 928 464 982 500 928 b 626 993 593 928 607 940 "},"¯":{"ha":706,"x_min":0,"x_max":0,"o":"m 153 957 l 576 957 l 576 788 l 153 788 "},"˘":{"ha":711,"x_min":0,"x_max":0,"o":"m 285 968 b 360 904 285 915 310 904 b 433 968 407 904 433 915 l 583 968 b 353 763 583 826 499 763 b 124 968 211 763 124 826 "},"˙":{"ha":718,"x_min":0,"x_max":0,"o":"m 365 981 b 474 881 447 981 474 967 b 365 769 474 786 447 769 b 258 881 285 769 258 786 b 365 981 258 967 285 981 "},"˚":{"ha":975,"x_min":0,"x_max":0,"o":"m 500 1033 b 678 892 624 1033 678 1004 b 500 750 678 778 624 750 b 319 892 375 750 319 778 b 500 1033 319 1004 375 1033 m 500 939 b 440 890 449 939 440 926 b 500 843 440 853 449 843 b 558 890 550 843 558 854 b 500 939 558 928 550 939 "},"˝":{"ha":651,"x_min":0,"x_max":0,"o":"m 208 789 l 343 968 l 542 968 l 372 789 m 472 789 l 607 968 l 806 968 l 636 789 "},"˛":{"ha":874,"x_min":0,"x_max":0,"o":"m 685 17 b 582 -111 600 -35 582 -64 b 656 -160 582 -144 596 -160 b 757 -126 694 -160 733 -146 l 815 -233 b 626 -282 768 -267 689 -282 b 435 -158 478 -282 435 -240 b 622 17 435 -85 494 -17 "},"ˇ":{"ha":890,"x_min":0,"x_max":0,"o":"m 471 876 l 553 968 l 758 968 l 589 789 l 350 789 l 175 968 l 386 968 "},"Ā":{"ha":967,"x_min":0,"x_max":0,"o":"m 293 968 b -44 0 190 714 28 254 l 243 0 b 293 186 256 47 272 113 l 668 186 b 738 0 693 113 718 46 l 1031 0 b 697 968 931 249 783 674 m 497 735 b 592 415 518 656 553 538 l 360 415 b 463 735 397 539 435 657 l 497 735 m 275 1193 l 699 1193 l 699 1024 l 275 1024 "},"Ą":{"ha":967,"x_min":0,"x_max":0,"o":"m 697 968 b 1031 0 783 674 931 249 l 738 0 b 668 186 718 46 693 113 l 293 186 b 243 0 272 113 256 47 l -44 0 b 293 968 28 254 190 714 m 463 735 b 360 415 435 657 397 539 l 592 415 b 497 735 553 538 518 656 m 950 17 b 847 -111 865 -35 847 -64 b 921 -160 847 -144 861 -160 b 1022 -126 960 -160 999 -146 l 1081 -233 b 892 -282 1033 -267 954 -282 b 700 -158 743 -282 700 -240 b 888 17 700 -85 760 -17 "},"Ć":{"ha":810,"x_min":0,"x_max":0,"o":"m 61 493 b 525 992 61 889 211 992 b 810 958 617 992 736 978 l 763 725 b 588 749 719 739 644 749 b 344 490 410 749 344 729 b 588 226 344 251 410 226 b 763 250 644 226 719 236 l 810 11 b 525 -19 735 -7 617 -19 b 61 493 211 -19 61 99 m 321 1038 l 493 1217 l 746 1217 l 529 1038 "},"Č":{"ha":810,"x_min":0,"x_max":0,"o":"m 61 493 b 525 992 61 889 211 992 b 810 958 617 992 736 978 l 763 725 b 588 749 719 739 644 749 b 344 490 410 749 344 729 b 588 226 344 251 410 226 b 763 250 644 226 719 236 l 810 11 b 525 -19 735 -7 617 -19 b 61 493 211 -19 61 99 m 511 1125 l 593 1217 l 799 1217 l 629 1038 l 390 1038 l 215 1217 l 426 1217 "},"Ĉ":{"ha":810,"x_min":0,"x_max":0,"o":"m 61 493 b 525 992 61 889 211 992 b 810 958 617 992 736 978 l 763 725 b 588 749 719 739 644 749 b 344 490 410 749 344 729 b 588 226 344 251 410 226 b 763 250 644 226 719 236 l 810 11 b 525 -19 735 -7 617 -19 b 61 493 211 -19 61 99 m 517 1129 l 435 1038 l 229 1038 l 399 1217 l 638 1217 l 813 1038 l 601 1038 "},"Ċ":{"ha":810,"x_min":0,"x_max":0,"o":"m 61 493 b 525 992 61 889 211 992 b 810 958 617 992 736 978 l 763 725 b 588 749 719 739 644 749 b 344 490 410 749 344 729 b 588 226 344 251 410 226 b 763 250 644 226 719 236 l 810 11 b 525 -19 735 -7 617 -19 b 61 493 211 -19 61 99 m 535 1232 b 643 1132 617 1232 643 1218 b 535 1021 643 1038 617 1021 b 428 1132 454 1021 428 1038 b 535 1232 428 1218 454 1232 "},"Ď":{"ha":1069,"x_min":0,"x_max":0,"o":"m 544 968 b 1008 490 857 968 1008 868 b 544 0 1008 113 857 0 l 106 0 l 106 968 m 725 486 b 510 735 725 718 688 735 l 371 735 l 371 235 l 510 235 b 725 486 688 235 725 258 m 503 1125 l 585 1217 l 790 1217 l 621 1038 l 382 1038 l 207 1217 l 418 1217 "},"Ĕ":{"ha":876,"x_min":0,"x_max":0,"o":"m 106 968 l 106 0 l 847 0 l 847 233 l 371 233 l 371 383 l 714 383 l 714 613 l 371 613 l 371 735 l 847 735 l 847 968 m 432 1210 b 507 1146 432 1157 457 1146 b 581 1210 554 1146 581 1157 l 731 1210 b 500 1004 731 1068 646 1004 b 271 1210 358 1004 271 1068 "},"Ě":{"ha":876,"x_min":0,"x_max":0,"o":"m 106 968 l 106 0 l 847 0 l 847 233 l 371 233 l 371 383 l 714 383 l 714 613 l 371 613 l 371 735 l 847 735 l 847 968 m 492 1125 l 574 1217 l 779 1217 l 610 1038 l 371 1038 l 196 1217 l 407 1217 "},"Ė":{"ha":876,"x_min":0,"x_max":0,"o":"m 106 968 l 106 0 l 847 0 l 847 233 l 371 233 l 371 383 l 714 383 l 714 613 l 371 613 l 371 735 l 847 735 l 847 968 m 503 1232 b 611 1132 585 1232 611 1218 b 503 1021 611 1038 585 1021 b 396 1132 422 1021 396 1038 b 503 1232 396 1218 422 1232 "},"Ē":{"ha":876,"x_min":0,"x_max":0,"o":"m 106 968 l 106 0 l 847 0 l 847 233 l 371 233 l 371 383 l 714 383 l 714 613 l 371 613 l 371 735 l 847 735 l 847 968 m 265 1193 l 689 1193 l 689 1024 l 265 1024 "},"Ę":{"ha":876,"x_min":0,"x_max":0,"o":"m 847 968 l 847 735 l 371 735 l 371 613 l 714 613 l 714 383 l 371 383 l 371 233 l 847 233 l 847 0 l 106 0 l 106 968 m 785 17 b 682 -111 700 -35 682 -64 b 756 -160 682 -144 696 -160 b 857 -126 794 -160 833 -146 l 915 -233 b 726 -282 868 -267 789 -282 b 535 -158 578 -282 535 -240 b 722 17 535 -85 594 -17 "},"Ğ":{"ha":1006,"x_min":0,"x_max":0,"o":"m 644 383 l 474 383 l 474 613 l 918 613 l 918 32 b 525 -19 835 6 664 -19 b 61 493 211 -19 61 99 b 578 992 61 889 247 992 b 890 958 668 992 817 978 l 847 725 b 606 749 803 739 661 749 b 344 490 410 749 344 729 b 588 226 344 251 410 226 b 644 229 604 226 626 228 m 472 1210 b 547 1146 472 1157 497 1146 b 621 1210 594 1146 621 1157 l 771 1210 b 540 1004 771 1068 686 1004 b 311 1210 399 1004 311 1068 "},"Ĝ":{"ha":1006,"x_min":0,"x_max":0,"o":"m 644 383 l 474 383 l 474 613 l 918 613 l 918 32 b 525 -19 835 6 664 -19 b 61 493 211 -19 61 99 b 578 992 61 889 247 992 b 890 958 668 992 817 978 l 847 725 b 606 749 803 739 661 749 b 344 490 410 749 344 729 b 588 226 344 251 410 226 b 644 229 604 226 626 228 m 549 1129 l 467 1038 l 261 1038 l 431 1217 l 669 1217 l 844 1038 l 633 1038 "},"Ģ":{"ha":1006,"x_min":0,"x_max":0,"o":"m 644 383 l 474 383 l 474 613 l 918 613 l 918 32 b 525 -19 835 6 664 -19 b 61 493 211 -19 61 99 b 578 992 61 889 247 992 b 890 958 668 992 817 978 l 847 725 b 606 749 803 739 661 749 b 344 490 410 749 344 729 b 588 226 344 251 410 226 b 644 229 604 226 626 228 m 542 -303 l 344 -303 l 444 -71 l 700 -71 "},"Ġ":{"ha":1006,"x_min":0,"x_max":0,"o":"m 644 383 l 474 383 l 474 613 l 918 613 l 918 32 b 525 -19 835 6 664 -19 b 61 493 211 -19 61 99 b 578 992 61 889 247 992 b 890 958 668 992 817 978 l 847 725 b 606 749 803 739 661 749 b 344 490 410 749 344 729 b 588 226 344 251 410 226 b 644 229 604 226 626 228 m 571 1232 b 679 1132 653 1232 679 1218 b 571 1021 679 1038 653 1021 b 464 1132 490 1021 464 1038 b 571 1232 464 1218 490 1232 "},"Ħ":{"ha":1054,"x_min":0,"x_max":0,"o":"m 35 908 l 106 908 l 106 968 l 371 968 l 371 908 l 685 908 l 685 968 l 949 968 l 949 908 l 1019 908 l 1019 697 l 949 697 l 949 0 l 685 0 l 685 386 l 371 386 l 371 0 l 106 0 l 106 697 l 35 697 m 685 633 l 685 697 l 371 697 l 371 633 "},"Ĥ":{"ha":1054,"x_min":0,"x_max":0,"o":"m 371 0 l 106 0 l 106 968 l 371 968 l 371 633 l 685 633 l 685 968 l 949 968 l 949 0 l 685 0 l 685 386 l 371 386 m 521 1129 l 439 1038 l 233 1038 l 403 1217 l 642 1217 l 817 1038 l 606 1038 "},"Ĳ":{"ha":1144,"x_min":0,"x_max":0,"o":"m 371 968 l 371 0 l 106 0 l 106 968 m 1047 267 b 724 -19 1047 46 882 -19 b 474 15 626 -19 543 -7 l 513 250 b 688 226 563 235 617 226 b 779 315 751 226 779 257 l 779 968 l 1046 968 "},"Ī":{"ha":476,"x_min":0,"x_max":0,"o":"m 106 968 l 106 0 l 371 0 l 371 968 m 26 1193 l 450 1193 l 450 1024 l 26 1024 "},"Į":{"ha":476,"x_min":0,"x_max":0,"o":"m 371 968 l 371 0 l 106 0 l 106 968 m 303 17 b 200 -111 218 -35 200 -64 b 274 -160 200 -144 214 -160 b 375 -126 313 -160 351 -146 l 433 -233 b 244 -282 386 -267 307 -282 b 53 -158 96 -282 53 -240 b 240 17 53 -85 113 -17 "},"Ĩ":{"ha":476,"x_min":0,"x_max":0,"o":"m 106 968 l 106 0 l 371 0 l 371 968 m 511 1144 b 331 1013 486 1078 424 1013 b 132 1069 238 1013 200 1069 b 71 1013 107 1069 90 1057 l -35 1117 b 124 1226 0 1176 49 1226 b 332 1172 233 1226 269 1172 b 396 1238 363 1172 376 1185 "},"Ĵ":{"ha":671,"x_min":0,"x_max":0,"o":"m 574 267 b 250 -19 574 46 408 -19 b 0 15 153 -19 69 -7 l 39 250 b 214 226 89 235 143 226 b 306 315 278 226 306 257 l 306 968 l 572 968 m 432 1129 l 350 1038 l 144 1038 l 314 1217 l 553 1217 l 728 1038 l 517 1038 "},"Ķ":{"ha":982,"x_min":0,"x_max":0,"o":"m 371 0 l 106 0 l 106 968 l 371 968 m 693 0 b 372 511 538 321 417 489 b 672 968 418 554 536 718 l 985 968 b 694 524 842 718 732 564 b 1008 0 732 492 854 321 m 479 -303 l 282 -303 l 382 -71 l 638 -71 "},"Ĺ":{"ha":772,"x_min":0,"x_max":0,"o":"m 371 968 l 371 233 l 785 233 l 785 0 l 106 0 l 106 968 m 144 1038 l 317 1217 l 569 1217 l 353 1038 "},"Ľ":{"ha":772,"x_min":0,"x_max":0,"o":"m 371 968 l 371 233 l 785 233 l 785 0 l 106 0 l 106 968 m 704 1003 l 624 736 l 474 736 l 499 1003 "},"Ļ":{"ha":772,"x_min":0,"x_max":0,"o":"m 371 968 l 371 233 l 785 233 l 785 0 l 106 0 l 106 968 m 428 -303 l 231 -303 l 331 -71 l 586 -71 "},"Ń":{"ha":1136,"x_min":0,"x_max":0,"o":"m 1031 0 l 701 0 b 364 593 593 200 479 399 l 364 0 l 106 0 l 106 968 l 449 968 b 768 392 558 782 667 588 l 768 968 l 1031 968 m 407 1038 l 579 1217 l 832 1217 l 615 1038 "},"Ň":{"ha":1136,"x_min":0,"x_max":0,"o":"m 1031 0 l 701 0 b 364 593 593 200 479 399 l 364 0 l 106 0 l 106 968 l 449 968 b 768 392 558 782 667 588 l 768 968 l 1031 968 m 594 1125 l 676 1217 l 882 1217 l 713 1038 l 474 1038 l 299 1217 l 510 1217 "},"Ņ":{"ha":1136,"x_min":0,"x_max":0,"o":"m 1031 0 l 701 0 b 364 593 593 200 479 399 l 364 0 l 106 0 l 106 968 l 449 968 b 768 392 558 782 667 588 l 768 968 l 1031 968 m 543 -303 l 346 -303 l 446 -71 l 701 -71 "},"Ŏ":{"ha":1085,"x_min":0,"x_max":0,"o":"m 543 992 b 61 497 229 992 61 889 b 543 -19 61 99 229 -19 b 1024 497 856 -19 1024 99 b 543 992 1024 889 856 992 m 543 224 b 344 494 364 224 344 249 b 543 746 344 726 364 746 b 740 494 721 746 740 726 b 543 224 740 249 721 224 m 476 1210 b 551 1146 476 1157 501 1146 b 625 1210 599 1146 625 1157 l 775 1210 b 544 1004 775 1068 690 1004 b 315 1210 403 1004 315 1068 "},"Ő":{"ha":1085,"x_min":0,"x_max":0,"o":"m 543 992 b 61 497 229 992 61 889 b 543 -19 61 99 229 -19 b 1024 497 856 -19 1024 99 b 543 992 1024 889 856 992 m 543 224 b 344 494 364 224 344 249 b 543 746 344 726 364 746 b 740 494 721 746 740 726 b 543 224 740 249 721 224 m 276 1038 l 411 1217 l 610 1217 l 440 1038 m 540 1038 l 675 1217 l 874 1217 l 704 1038 "},"Ō":{"ha":1085,"x_min":0,"x_max":0,"o":"m 543 992 b 61 497 229 992 61 889 b 543 -19 61 99 229 -19 b 1024 497 856 -19 1024 99 b 543 992 1024 889 856 992 m 543 224 b 344 494 364 224 344 249 b 543 746 344 726 364 746 b 740 494 721 746 740 726 b 543 224 740 249 721 224 m 332 1193 l 756 1193 l 756 1024 l 332 1024 "},"Ŕ":{"ha":1025,"x_min":0,"x_max":0,"o":"m 371 536 l 593 536 b 649 638 621 536 649 560 b 594 742 649 713 626 742 l 371 742 m 715 410 b 1025 0 779 386 833 324 l 696 0 b 442 321 547 261 496 321 l 371 321 l 371 0 l 106 0 l 106 968 l 682 968 b 944 685 875 968 944 847 b 715 410 944 544 889 424 m 317 1038 l 489 1217 l 742 1217 l 525 1038 "},"Ř":{"ha":1025,"x_min":0,"x_max":0,"o":"m 371 536 l 593 536 b 649 638 621 536 649 560 b 594 742 649 713 626 742 l 371 742 m 715 410 b 1025 0 779 386 833 324 l 696 0 b 442 321 547 261 496 321 l 371 321 l 371 0 l 106 0 l 106 968 l 682 968 b 944 685 875 968 944 847 b 715 410 944 544 889 424 m 492 1125 l 574 1217 l 779 1217 l 610 1038 l 371 1038 l 196 1217 l 407 1217 "},"Ŗ":{"ha":1025,"x_min":0,"x_max":0,"o":"m 371 536 l 593 536 b 649 638 621 536 649 560 b 594 742 649 713 626 742 l 371 742 m 715 410 b 1025 0 779 386 833 324 l 696 0 b 442 321 547 261 496 321 l 371 321 l 371 0 l 106 0 l 106 968 l 682 968 b 944 685 875 968 944 847 b 715 410 944 544 889 424 m 506 -303 l 308 -303 l 408 -71 l 664 -71 "},"Ś":{"ha":863,"x_min":0,"x_max":0,"o":"m 758 718 b 483 749 694 733 600 749 b 329 686 349 749 329 725 b 508 606 329 636 349 625 b 824 307 726 578 824 493 b 382 -19 824 57 704 -19 b 54 29 254 -19 133 0 l 107 256 b 378 224 169 240 264 224 b 536 288 514 224 536 239 b 339 371 536 336 518 350 b 47 644 142 394 47 464 b 486 992 47 894 181 992 b 810 943 613 992 733 972 m 285 1038 l 457 1217 l 710 1217 l 493 1038 "},"Ş":{"ha":863,"x_min":0,"x_max":0,"o":"m 758 718 b 483 749 694 733 600 749 b 329 686 349 749 329 725 b 508 606 329 636 349 625 b 824 307 726 578 824 493 b 382 -19 824 57 704 -19 b 54 29 254 -19 133 0 l 107 256 b 378 224 169 240 264 224 b 536 288 514 224 536 239 b 339 371 536 336 518 350 b 47 644 142 394 47 464 b 486 992 47 894 181 992 b 810 943 613 992 733 972 m 468 0 l 468 -50 b 607 -162 556 -50 607 -82 b 400 -282 607 -253 553 -282 b 275 -267 340 -282 308 -276 l 311 -175 b 386 -185 325 -182 358 -185 b 422 -158 414 -185 422 -175 b 328 -131 422 -132 396 -125 l 378 0 "},"Ŝ":{"ha":863,"x_min":0,"x_max":0,"o":"m 758 718 b 483 749 694 733 600 749 b 329 686 349 749 329 725 b 508 606 329 636 349 625 b 824 307 726 578 824 493 b 382 -19 824 57 704 -19 b 54 29 254 -19 133 0 l 107 256 b 378 224 169 240 264 224 b 536 288 514 224 536 239 b 339 371 536 336 518 350 b 47 644 142 394 47 464 b 486 992 47 894 181 992 b 810 943 613 992 733 972 m 451 1129 l 369 1038 l 164 1038 l 333 1217 l 572 1217 l 747 1038 l 536 1038 "},"Ș":{"ha":863,"x_min":0,"x_max":0,"o":"m 758 718 b 483 749 694 733 600 749 b 329 686 349 749 329 725 b 508 606 329 636 349 625 b 824 307 726 578 824 493 b 382 -19 824 57 704 -19 b 54 29 254 -19 133 0 l 107 256 b 378 224 169 240 264 224 b 536 288 514 224 536 239 b 339 371 536 336 518 350 b 47 644 142 394 47 464 b 486 992 47 894 181 992 b 810 943 613 992 733 972 m 433 -303 l 236 -303 l 336 -71 l 592 -71 "},"Ŧ":{"ha":903,"x_min":0,"x_max":0,"o":"m 235 474 l 318 474 l 318 735 l 0 735 l 0 968 l 903 968 l 903 735 l 585 735 l 585 474 l 661 474 l 661 304 l 585 304 l 585 0 l 318 0 l 318 304 l 235 304 "},"Ť":{"ha":903,"x_min":0,"x_max":0,"o":"m 318 0 l 318 735 l 0 735 l 0 968 l 903 968 l 903 735 l 585 735 l 585 0 m 461 1125 l 543 1217 l 749 1217 l 579 1038 l 340 1038 l 165 1217 l 376 1217 "},"Ţ":{"ha":903,"x_min":0,"x_max":0,"o":"m 318 0 l 318 735 l 0 735 l 0 968 l 903 968 l 903 735 l 585 735 l 585 0 m 460 -303 l 263 -303 l 363 -71 l 618 -71 "},"Ŭ":{"ha":1038,"x_min":0,"x_max":0,"o":"m 675 308 b 518 229 675 256 639 229 b 363 308 397 229 363 256 l 363 968 l 96 968 l 96 250 b 518 -19 96 36 264 -19 b 942 250 771 -19 942 36 l 942 968 l 675 968 m 447 1210 b 522 1146 447 1157 472 1146 b 596 1210 569 1146 596 1157 l 746 1210 b 515 1004 746 1068 661 1004 b 286 1210 374 1004 286 1068 "},"Ű":{"ha":1038,"x_min":0,"x_max":0,"o":"m 675 308 b 518 229 675 256 639 229 b 363 308 397 229 363 256 l 363 968 l 96 968 l 96 250 b 518 -19 96 36 264 -19 b 942 250 771 -19 942 36 l 942 968 l 675 968 m 267 1038 l 401 1217 l 600 1217 l 431 1038 m 531 1038 l 665 1217 l 864 1217 l 694 1038 "},"Ū":{"ha":1038,"x_min":0,"x_max":0,"o":"m 675 308 b 518 229 675 256 639 229 b 363 308 397 229 363 256 l 363 968 l 96 968 l 96 250 b 518 -19 96 36 264 -19 b 942 250 771 -19 942 36 l 942 968 l 675 968 m 303 1193 l 726 1193 l 726 1024 l 303 1024 "},"Ų":{"ha":1038,"x_min":0,"x_max":0,"o":"m 675 968 l 942 968 l 942 250 b 518 -19 942 36 771 -19 b 96 250 264 -19 96 36 l 96 968 l 363 968 l 363 308 b 518 229 363 256 397 229 b 675 308 639 229 675 256 m 626 17 b 524 -111 542 -35 524 -64 b 597 -160 524 -144 538 -160 b 699 -126 636 -160 675 -146 l 757 -233 b 568 -282 710 -267 631 -282 b 376 -158 419 -282 376 -240 b 564 17 376 -85 436 -17 "},"Ů":{"ha":1038,"x_min":0,"x_max":0,"o":"m 675 968 l 942 968 l 942 250 b 518 -19 942 36 771 -19 b 96 250 264 -19 96 36 l 96 968 l 363 968 l 363 308 b 518 229 363 256 397 229 b 675 308 639 229 675 256 m 517 1261 b 694 1119 640 1261 694 1232 b 517 978 694 1006 640 978 b 336 1119 392 978 336 1006 b 517 1261 336 1232 392 1261 m 517 1167 b 457 1118 465 1167 457 1154 b 517 1071 457 1081 465 1071 b 575 1118 567 1071 575 1082 b 517 1167 575 1156 567 1167 "},"Ũ":{"ha":1038,"x_min":0,"x_max":0,"o":"m 675 308 b 518 229 675 256 639 229 b 363 308 397 229 363 256 l 363 968 l 96 968 l 96 250 b 518 -19 96 36 264 -19 b 942 250 771 -19 942 36 l 942 968 l 675 968 m 792 1144 b 611 1013 767 1078 704 1013 b 413 1069 518 1013 481 1069 b 351 1013 388 1069 371 1057 l 246 1117 b 404 1226 281 1176 329 1226 b 613 1172 514 1226 550 1172 b 676 1238 643 1172 657 1185 "},"Ŵ":{"ha":1453,"x_min":0,"x_max":0,"o":"m 729 504 b 842 0 767 353 811 157 l 1179 0 b 1453 968 1261 254 1394 714 l 1174 968 b 1019 353 1140 793 1072 522 b 847 968 985 496 900 800 l 611 968 b 446 353 575 789 488 489 b 274 968 407 529 329 806 l -14 968 b 256 0 72 719 188 290 l 593 0 b 729 504 633 135 688 329 m 725 1129 l 643 1038 l 438 1038 l 607 1217 l 846 1217 l 1021 1038 l 810 1038 "},"Ŷ":{"ha":929,"x_min":0,"x_max":0,"o":"m 254 968 b 483 653 308 896 393 781 b 689 968 571 781 649 896 l 1018 968 b 614 371 917 807 761 579 l 614 0 l 349 0 l 349 369 b -99 968 182 601 -8 860 l 254 968 m 478 1129 l 396 1038 l 190 1038 l 360 1217 l 599 1217 l 774 1038 l 563 1038 "},"Ź":{"ha":881,"x_min":0,"x_max":0,"o":"m 18 50 b 442 735 138 233 363 597 l 43 735 l 43 968 l 867 968 l 867 921 b 443 233 789 771 528 353 l 872 233 l 872 0 l 18 0 m 288 1038 l 460 1217 l 713 1217 l 496 1038 "},"Ż":{"ha":881,"x_min":0,"x_max":0,"o":"m 18 50 b 442 735 138 233 363 597 l 43 735 l 43 968 l 867 968 l 867 921 b 443 233 789 771 528 353 l 872 233 l 872 0 l 18 0 m 454 1232 b 563 1132 536 1232 563 1218 b 454 1021 563 1038 536 1021 b 347 1132 374 1021 347 1038 b 454 1232 347 1218 374 1232 "},"ă":{"ha":803,"x_min":0,"x_max":0,"o":"m 725 457 b 406 735 725 667 621 735 b 76 696 297 735 168 718 l 113 497 b 339 532 174 514 251 532 b 485 432 471 532 485 507 b 336 449 438 442 382 449 b 58 217 163 449 58 417 b 369 -19 58 29 124 -19 b 725 36 479 -19 624 1 m 485 179 b 390 164 458 169 422 164 b 318 224 329 164 318 174 b 394 282 318 275 339 282 b 485 275 428 282 460 281 l 485 179 m 329 968 b 404 904 329 915 354 904 b 478 968 451 904 478 915 l 628 968 b 397 763 628 826 543 763 b 168 968 256 763 168 826 "},"":{"ha":651,"x_min":0,"x_max":0,"o":"m 144 1038 l 317 1217 l 569 1217 l 353 1038 "},"ā":{"ha":803,"x_min":0,"x_max":0,"o":"m 725 457 b 406 735 725 667 621 735 b 76 696 297 735 168 718 l 113 497 b 339 532 174 514 251 532 b 485 432 471 532 485 507 b 336 449 438 442 382 449 b 58 217 163 449 58 417 b 369 -19 58 29 124 -19 b 725 36 479 -19 624 1 m 485 179 b 390 164 458 169 422 164 b 318 224 329 164 318 174 b 394 282 318 275 339 282 b 485 275 428 282 460 281 l 485 179 m 185 957 l 608 957 l 608 788 l 185 788 "},"ą":{"ha":803,"x_min":0,"x_max":0,"o":"m 725 36 b 369 -19 624 1 479 -19 b 58 217 124 -19 58 29 b 336 449 58 417 163 449 b 485 432 382 449 438 442 b 339 532 485 507 471 532 b 113 497 251 532 174 514 l 76 696 b 406 735 168 718 297 735 b 725 457 621 735 725 667 m 485 275 b 394 282 460 281 428 282 b 318 224 339 282 318 275 b 390 164 318 174 329 164 b 485 179 422 164 458 169 m 661 17 b 558 -111 576 -35 558 -64 b 632 -160 558 -144 572 -160 b 733 -126 671 -160 710 -146 l 792 -233 b 603 -282 744 -267 665 -282 b 411 -158 454 -282 411 -240 b 599 17 411 -85 471 -17 "},"ć":{"ha":658,"x_min":0,"x_max":0,"o":"m 647 15 b 415 -19 589 -7 490 -19 b 56 361 204 -19 56 68 b 415 735 56 651 206 735 b 647 704 494 735 590 724 l 597 493 b 440 521 560 504 497 521 b 310 357 356 521 310 511 b 440 196 310 211 356 196 b 597 226 501 196 560 213 m 232 789 l 404 968 l 657 968 l 440 789 "},"":{"ha":890,"x_min":0,"x_max":0,"o":"m 492 1125 l 574 1217 l 779 1217 l 610 1038 l 371 1038 l 196 1217 l 407 1217 "},"č":{"ha":658,"x_min":0,"x_max":0,"o":"m 647 15 b 415 -19 589 -7 490 -19 b 56 361 204 -19 56 68 b 415 735 56 651 206 735 b 647 704 494 735 590 724 l 597 493 b 440 521 560 504 497 521 b 310 357 356 521 310 511 b 440 196 310 211 356 196 b 597 226 501 196 560 213 m 404 876 l 486 968 l 692 968 l 522 789 l 283 789 l 108 968 l 319 968 "},"ĉ":{"ha":658,"x_min":0,"x_max":0,"o":"m 647 15 b 415 -19 589 -7 490 -19 b 56 361 204 -19 56 68 b 415 735 56 651 206 735 b 647 704 494 735 590 724 l 597 493 b 440 521 560 504 497 521 b 310 357 356 521 310 511 b 440 196 310 211 356 196 b 597 226 501 196 560 213 m 406 881 l 324 789 l 118 789 l 288 968 l 526 968 l 701 789 l 490 789 "},"ċ":{"ha":658,"x_min":0,"x_max":0,"o":"m 647 15 b 415 -19 589 -7 490 -19 b 56 361 204 -19 56 68 b 415 735 56 651 206 735 b 647 704 494 735 590 724 l 597 493 b 440 521 560 504 497 521 b 310 357 356 521 310 511 b 440 196 310 211 356 196 b 597 226 501 196 560 213 m 401 981 b 510 881 483 981 510 967 b 401 769 510 786 483 769 b 294 881 321 769 294 786 b 401 981 294 967 321 981 "},"¸":{"ha":874,"x_min":0,"x_max":0,"o":"m 551 0 l 551 -50 b 690 -162 639 -50 690 -82 b 483 -282 690 -253 636 -282 b 358 -267 424 -282 392 -276 l 394 -175 b 469 -185 408 -182 442 -185 b 506 -158 497 -185 506 -175 b 411 -131 506 -132 479 -125 l 461 0 "},"":{"ha":354,"x_min":0,"x_max":0,"o":"m 281 -303 l 83 -303 l 183 -71 l 439 -71 "},"ď":{"ha":839,"x_min":0,"x_max":0,"o":"m 497 492 b 413 531 497 511 463 531 b 310 365 335 531 310 490 b 417 190 310 215 336 190 b 497 203 443 190 479 196 m 751 29 b 417 -19 674 1 536 -19 b 56 361 167 -19 56 68 b 351 735 56 647 190 735 b 497 713 411 735 456 725 l 497 1003 l 751 1003 m 1038 1003 l 957 736 l 807 736 l 832 1003 "},"":{"ha":731,"x_min":0,"x_max":0,"o":"m 200 1224 b 308 1124 282 1224 308 1210 b 200 1013 308 1029 282 1013 b 93 1124 119 1013 93 1029 b 200 1224 93 1210 119 1224 m 531 1224 b 638 1124 611 1224 638 1210 b 531 1013 638 1029 611 1013 b 422 1124 447 1013 422 1029 b 531 1224 422 1210 447 1224 "},"÷":{"ha":754,"x_min":0,"x_max":0,"o":"m 35 631 l 719 631 l 719 386 l 35 386 m 369 335 b 517 207 481 335 517 317 b 369 67 517 88 481 67 b 225 207 261 67 225 88 b 369 335 225 317 261 335 m 369 947 b 517 819 481 947 517 931 b 369 681 517 701 481 681 b 225 819 261 681 225 701 b 369 947 225 931 261 947 "},"ĕ":{"ha":776,"x_min":0,"x_max":0,"o":"m 642 208 b 446 189 592 197 497 189 b 315 276 363 189 318 201 l 728 276 b 397 735 754 664 646 735 b 56 361 194 735 56 651 b 413 -19 56 68 217 -19 b 678 19 500 -19 607 -4 m 418 547 b 514 458 486 547 513 532 l 317 458 b 418 547 329 525 349 547 m 343 968 b 418 904 343 915 368 904 b 492 968 465 904 492 915 l 642 968 b 411 763 642 826 557 763 b 182 968 269 763 182 826 "},"ě":{"ha":776,"x_min":0,"x_max":0,"o":"m 642 208 b 446 189 592 197 497 189 b 315 276 363 189 318 201 l 728 276 b 397 735 754 664 646 735 b 56 361 194 735 56 651 b 413 -19 56 68 217 -19 b 678 19 500 -19 607 -4 m 418 547 b 514 458 486 547 513 532 l 317 458 b 418 547 329 525 349 547 m 413 876 l 494 968 l 700 968 l 531 789 l 292 789 l 117 968 l 328 968 "},"ė":{"ha":776,"x_min":0,"x_max":0,"o":"m 642 208 b 446 189 592 197 497 189 b 315 276 363 189 318 201 l 728 276 b 397 735 754 664 646 735 b 56 361 194 735 56 651 b 413 -19 56 68 217 -19 b 678 19 500 -19 607 -4 m 418 547 b 514 458 486 547 513 532 l 317 458 b 418 547 329 525 349 547 m 414 981 b 522 881 496 981 522 967 b 414 769 522 786 496 769 b 307 881 333 769 307 786 b 414 981 307 967 333 981 "},"ē":{"ha":776,"x_min":0,"x_max":0,"o":"m 642 208 b 446 189 592 197 497 189 b 315 276 363 189 318 201 l 728 276 b 397 735 754 664 646 735 b 56 361 194 735 56 651 b 413 -19 56 68 217 -19 b 678 19 500 -19 607 -4 m 418 547 b 514 458 486 547 513 532 l 317 458 b 418 547 329 525 349 547 m 207 957 l 631 957 l 631 788 l 207 788 "},"ę":{"ha":776,"x_min":0,"x_max":0,"o":"m 678 19 b 413 -19 607 -4 500 -19 b 56 361 217 -19 56 68 b 397 735 56 651 194 735 b 728 276 646 735 754 664 l 315 276 b 446 189 318 201 363 189 b 642 208 497 189 592 197 m 418 547 b 317 458 349 547 329 525 l 514 458 b 418 547 513 532 486 547 m 638 17 b 535 -111 553 -35 535 -64 b 608 -160 535 -144 549 -160 b 710 -126 647 -160 686 -146 l 768 -233 b 579 -282 721 -267 642 -282 b 388 -158 431 -282 388 -240 b 575 17 388 -85 447 -17 "},"₣":{"ha":807,"x_min":0,"x_max":0,"o":"m 63 272 l 106 272 l 106 968 l 829 968 l 829 735 l 371 735 l 371 560 l 644 560 l 644 331 l 371 331 l 371 272 l 486 272 l 486 103 l 371 103 l 371 0 l 106 0 l 106 103 l 63 103 "},"ğ":{"ha":839,"x_min":0,"x_max":0,"o":"m 497 231 b 410 197 497 211 458 197 b 310 356 331 197 310 231 b 417 538 310 518 336 538 b 497 521 436 538 471 532 m 497 21 b 339 -78 497 -54 438 -78 b 114 -49 257 -78 196 -67 l 72 -242 b 343 -283 142 -265 242 -283 b 751 58 571 -283 751 -235 l 751 686 b 417 735 674 714 536 735 b 56 349 167 735 56 640 b 332 -14 56 61 160 -14 b 497 21 392 -14 453 1 m 351 968 b 426 904 351 915 376 904 b 500 968 474 904 500 915 l 650 968 b 419 763 650 826 565 763 b 190 968 278 763 190 826 "},"ĝ":{"ha":839,"x_min":0,"x_max":0,"o":"m 497 231 b 410 197 497 211 458 197 b 310 356 331 197 310 231 b 417 538 310 518 336 538 b 497 521 436 538 471 532 m 497 21 b 339 -78 497 -54 438 -78 b 114 -49 257 -78 196 -67 l 72 -242 b 343 -283 142 -265 242 -283 b 751 58 571 -283 751 -235 l 751 686 b 417 735 674 714 536 735 b 56 349 167 735 56 640 b 332 -14 56 61 160 -14 b 497 21 392 -14 453 1 m 421 881 l 339 789 l 133 789 l 303 968 l 542 968 l 717 789 l 506 789 "},"ģ":{"ha":839,"x_min":0,"x_max":0,"o":"m 497 231 b 410 197 497 211 458 197 b 310 356 331 197 310 231 b 417 538 310 518 336 538 b 497 521 436 538 471 532 m 497 21 b 339 -78 497 -54 438 -78 b 114 -49 257 -78 196 -67 l 72 -242 b 343 -283 142 -265 242 -283 b 751 58 571 -283 751 -235 l 751 686 b 417 735 674 714 536 735 b 56 349 167 735 56 640 b 332 -14 56 61 160 -14 b 497 21 392 -14 453 1 m 489 821 l 292 821 l 392 1053 l 647 1053 "},"ġ":{"ha":839,"x_min":0,"x_max":0,"o":"m 497 231 b 410 197 497 211 458 197 b 310 356 331 197 310 231 b 417 538 310 518 336 538 b 497 521 436 538 471 532 m 497 21 b 339 -78 497 -54 438 -78 b 114 -49 257 -78 196 -67 l 72 -242 b 343 -283 142 -265 242 -283 b 751 58 571 -283 751 -235 l 751 686 b 417 735 674 714 536 735 b 56 349 167 735 56 640 b 332 -14 56 61 160 -14 b 497 21 392 -14 453 1 m 411 981 b 519 881 493 981 519 967 b 411 769 519 786 493 769 b 304 881 331 769 304 786 b 411 981 304 967 331 981 "},"ħ":{"ha":850,"x_min":0,"x_max":0,"o":"m 33 957 l 88 957 l 88 1003 l 342 1003 l 342 957 l 457 957 l 457 788 l 342 788 l 342 694 b 526 735 397 715 469 735 b 772 419 667 735 772 692 l 772 0 l 518 0 l 518 408 b 418 511 518 496 465 511 b 342 485 378 511 342 503 l 342 0 l 88 0 l 88 788 l 33 788 "},"ĥ":{"ha":850,"x_min":0,"x_max":0,"o":"m 772 0 l 518 0 l 518 408 b 418 511 518 496 465 511 b 342 485 378 511 342 503 l 342 0 l 88 0 l 88 1003 l 342 1003 l 342 694 b 526 735 397 715 469 735 b 772 419 667 735 772 692 m 326 1129 l 244 1038 l 39 1038 l 208 1217 l 447 1217 l 622 1038 l 411 1038 "},"":{"ha":842,"x_min":0,"x_max":0,"o":"m 208 1038 l 343 1217 l 542 1217 l 372 1038 m 472 1038 l 607 1217 l 806 1217 l 636 1038 "},"ĳ":{"ha":856,"x_min":0,"x_max":0,"o":"m 342 714 l 88 714 l 88 0 l 342 0 m 214 1036 b 356 919 321 1036 356 1021 b 214 789 356 808 321 789 b 72 919 107 789 72 808 b 214 1036 72 1021 107 1036 m 642 1036 b 783 919 749 1036 783 1021 b 642 789 783 808 749 789 b 500 919 535 789 500 808 b 642 1036 500 1021 535 1036 m 769 714 l 515 714 l 515 1 b 417 -79 515 -49 482 -79 l 417 -282 b 769 10 674 -282 769 -204 "},"ī":{"ha":426,"x_min":0,"x_max":0,"o":"m 342 0 l 88 0 l 88 714 l 342 714 m 3 957 l 426 957 l 426 788 l 3 788 "},"į":{"ha":426,"x_min":0,"x_max":0,"o":"m 342 714 l 88 714 l 88 0 l 342 0 m 214 1036 b 356 919 321 1036 356 1021 b 214 789 356 808 321 789 b 72 919 107 789 72 808 b 214 1036 72 1021 107 1036 m 238 17 b 50 -158 110 -17 50 -85 b 242 -282 50 -240 93 -282 b 431 -233 304 -282 383 -267 l 372 -126 b 271 -160 349 -146 310 -160 b 197 -111 211 -160 197 -144 b 300 17 197 -64 215 -35 "},"ĩ":{"ha":426,"x_min":0,"x_max":0,"o":"m 342 0 l 88 0 l 88 714 l 342 714 m 488 900 b 307 768 463 833 400 768 b 108 825 214 768 176 825 b 47 768 83 825 67 813 l -58 872 b 100 982 -24 932 25 982 b 308 928 210 982 246 928 b 372 993 339 928 353 940 "},"ĵ":{"ha":426,"x_min":0,"x_max":0,"o":"m 201 881 l 119 789 l -86 789 l 83 968 l 322 968 l 497 789 l 286 789 m 342 714 l 88 714 l 88 1 b -11 -79 88 -49 54 -79 l -11 -282 b 342 10 246 -282 342 -204 "},"ķ":{"ha":868,"x_min":0,"x_max":0,"o":"m 342 0 l 88 0 l 88 1003 l 342 1003 m 868 0 b 631 390 753 238 660 368 b 850 714 661 419 743 529 l 560 714 b 342 378 446 521 372 410 b 578 0 369 361 443 238 m 419 -303 l 222 -303 l 322 -71 l 578 -71 "},"ĺ":{"ha":438,"x_min":0,"x_max":0,"o":"m 342 217 b 383 36 342 149 356 88 l 150 -36 b 88 210 110 19 88 107 l 88 1003 l 342 1003 m 81 1038 l 253 1217 l 506 1217 l 289 1038 "},"ľ":{"ha":438,"x_min":0,"x_max":0,"o":"m 342 217 b 383 36 342 149 356 88 l 150 -36 b 88 210 110 19 88 107 l 88 1003 l 342 1003 m 644 1003 l 564 736 l 414 736 l 439 1003 "},"ļ":{"ha":438,"x_min":0,"x_max":0,"o":"m 342 217 b 383 36 342 149 356 88 l 150 -36 b 88 210 110 19 88 107 l 88 1003 l 342 1003 m 243 -303 l 46 -303 l 146 -71 l 401 -71 "},"":{"ha":436,"x_min":0,"x_max":0,"o":"m 153 1193 l 576 1193 l 576 1024 l 153 1024 "},"ń":{"ha":850,"x_min":0,"x_max":0,"o":"m 342 0 l 88 0 l 88 668 b 474 735 183 700 332 735 b 772 393 668 735 772 647 l 772 0 l 518 0 l 518 376 b 418 510 518 476 504 510 b 342 500 396 510 371 506 m 263 789 l 435 968 l 688 968 l 471 789 "},"ň":{"ha":850,"x_min":0,"x_max":0,"o":"m 342 0 l 88 0 l 88 668 b 474 735 183 700 332 735 b 772 393 668 735 772 647 l 772 0 l 518 0 l 518 376 b 418 510 518 476 504 510 b 342 500 396 510 371 506 m 428 876 l 510 968 l 715 968 l 546 789 l 307 789 l 132 968 l 343 968 "},"ņ":{"ha":850,"x_min":0,"x_max":0,"o":"m 342 0 l 88 0 l 88 668 b 474 735 183 700 332 735 b 772 393 668 735 772 647 l 772 0 l 518 0 l 518 376 b 418 510 518 476 504 510 b 342 500 396 510 371 506 m 400 -303 l 203 -303 l 303 -71 l 558 -71 "},"ŏ":{"ha":822,"x_min":0,"x_max":0,"o":"m 410 -19 b 767 361 646 -19 767 68 b 410 735 767 653 644 735 b 56 361 179 735 56 653 b 410 -19 56 68 176 -19 m 410 540 b 511 357 490 540 511 525 b 410 175 511 194 490 175 b 310 357 331 175 310 194 b 410 540 310 525 331 540 m 340 968 b 415 904 340 915 365 904 b 489 968 463 904 489 915 l 639 968 b 408 763 639 826 554 763 b 179 968 267 763 179 826 "},"ő":{"ha":822,"x_min":0,"x_max":0,"o":"m 410 -19 b 767 361 646 -19 767 68 b 410 735 767 653 644 735 b 56 361 179 735 56 653 b 410 -19 56 68 176 -19 m 410 540 b 511 357 490 540 511 525 b 410 175 511 194 490 175 b 310 357 331 175 310 194 b 410 540 310 525 331 540 m 146 789 l 281 968 l 479 968 l 310 789 m 410 789 l 544 968 l 743 968 l 574 789 "},"ō":{"ha":822,"x_min":0,"x_max":0,"o":"m 410 -19 b 767 361 646 -19 767 68 b 410 735 767 653 644 735 b 56 361 179 735 56 653 b 410 -19 56 68 176 -19 m 410 540 b 511 357 490 540 511 525 b 410 175 511 194 490 175 b 310 357 331 175 310 194 b 410 540 310 525 331 540 m 199 957 l 622 957 l 622 788 l 199 788 "},"ŕ":{"ha":576,"x_min":0,"x_max":0,"o":"m 88 714 l 342 714 l 342 657 b 506 735 365 701 403 735 b 576 731 526 735 550 733 l 576 496 b 468 510 547 506 504 510 b 342 444 400 510 342 485 l 342 0 l 88 0 m 213 789 l 385 968 l 638 968 l 421 789 "},"ř":{"ha":576,"x_min":0,"x_max":0,"o":"m 88 714 l 342 714 l 342 657 b 506 735 365 701 403 735 b 576 731 526 735 550 733 l 576 496 b 468 510 547 506 504 510 b 342 444 400 510 342 485 l 342 0 l 88 0 m 353 876 l 435 968 l 640 968 l 471 789 l 232 789 l 57 968 l 268 968 "},"ŗ":{"ha":576,"x_min":0,"x_max":0,"o":"m 88 714 l 342 714 l 342 657 b 506 735 365 701 403 735 b 576 731 526 735 550 733 l 576 496 b 468 510 547 506 504 510 b 342 444 400 510 342 485 l 342 0 l 88 0 m 231 -303 l 33 -303 l 133 -71 l 389 -71 "},"ś":{"ha":664,"x_min":0,"x_max":0,"o":"m 571 511 b 358 539 515 525 432 539 b 283 500 308 539 283 538 b 399 456 283 474 294 471 b 631 233 558 432 631 385 b 296 -19 631 32 472 -19 b 43 19 217 -19 107 -4 l 89 207 b 283 181 143 193 214 181 b 389 221 357 181 389 185 b 257 268 389 247 369 257 b 42 483 115 282 42 325 b 369 735 42 685 193 735 b 615 694 449 735 553 718 m 176 789 l 349 968 l 601 968 l 385 789 "},"ş":{"ha":664,"x_min":0,"x_max":0,"o":"m 571 511 b 358 539 515 525 432 539 b 283 500 308 539 283 538 b 399 456 283 474 294 471 b 631 233 558 432 631 385 b 296 -19 631 32 472 -19 b 43 19 217 -19 107 -4 l 89 207 b 283 181 143 193 214 181 b 389 221 357 181 389 185 b 257 268 389 247 369 257 b 42 483 115 282 42 325 b 369 735 42 685 193 735 b 615 694 449 735 553 718 m 375 0 l 375 -50 b 514 -162 463 -50 514 -82 b 307 -282 514 -253 460 -282 b 182 -267 247 -282 215 -276 l 218 -175 b 293 -185 232 -182 265 -185 b 329 -158 321 -185 329 -175 b 235 -131 329 -132 303 -125 l 285 0 "},"ŝ":{"ha":664,"x_min":0,"x_max":0,"o":"m 571 511 b 358 539 515 525 432 539 b 283 500 308 539 283 538 b 399 456 283 474 294 471 b 631 233 558 432 631 385 b 296 -19 631 32 472 -19 b 43 19 217 -19 107 -4 l 89 207 b 283 181 143 193 214 181 b 389 221 357 181 389 185 b 257 268 389 247 369 257 b 42 483 115 282 42 325 b 369 735 42 685 193 735 b 615 694 449 735 553 718 m 354 881 l 272 789 l 67 789 l 236 968 l 475 968 l 650 789 l 439 789 "},"ș":{"ha":664,"x_min":0,"x_max":0,"o":"m 571 511 b 358 539 515 525 432 539 b 283 500 308 539 283 538 b 399 456 283 474 294 471 b 631 233 558 432 631 385 b 296 -19 631 32 472 -19 b 43 19 217 -19 107 -4 l 89 207 b 283 181 143 193 214 181 b 389 221 357 181 389 185 b 257 268 389 247 369 257 b 42 483 115 282 42 325 b 369 735 42 685 193 735 b 615 694 449 735 553 718 m 333 -303 l 136 -303 l 236 -71 l 492 -71 "},"ŧ":{"ha":608,"x_min":0,"x_max":0,"o":"m 57 429 l 122 429 l 122 497 l 10 497 l 10 714 l 122 714 l 122 806 l 376 908 l 376 714 l 586 714 l 586 497 l 376 497 l 376 429 l 481 429 l 481 288 l 376 288 l 376 271 b 465 193 376 215 397 193 b 568 211 507 193 536 201 l 608 19 b 378 -19 550 -4 464 -19 b 122 242 222 -19 122 28 l 122 288 l 57 288 "},"ť":{"ha":608,"x_min":0,"x_max":0,"o":"m 586 497 l 586 714 l 376 714 l 376 908 l 122 806 l 122 714 l 10 714 l 10 497 l 122 497 l 122 242 b 374 -19 122 28 218 -19 b 608 19 460 -19 550 -4 l 568 211 b 461 193 536 201 503 193 b 376 271 393 193 376 215 l 376 497 m 696 1074 l 615 807 l 465 807 l 490 1074 "},"ţ":{"ha":608,"x_min":0,"x_max":0,"o":"m 376 497 l 376 271 b 461 193 376 215 393 193 b 568 211 503 193 536 201 l 608 19 b 374 -19 550 -4 460 -19 b 122 242 218 -19 122 28 l 122 497 l 10 497 l 10 714 l 122 714 l 122 806 l 376 908 l 376 714 l 586 714 l 586 497 m 317 -303 l 119 -303 l 219 -71 l 475 -71 "},"ŭ":{"ha":850,"x_min":0,"x_max":0,"o":"m 510 214 b 432 204 479 208 456 204 b 332 338 346 204 332 238 l 332 714 l 79 714 l 79 321 b 376 -21 79 67 182 -21 b 763 46 518 -21 667 14 l 763 714 l 510 714 m 350 968 b 425 904 350 915 375 904 b 499 968 472 904 499 915 l 649 968 b 418 763 649 826 564 763 b 189 968 276 763 189 826 "},"ű":{"ha":850,"x_min":0,"x_max":0,"o":"m 510 214 b 432 204 479 208 456 204 b 332 338 346 204 332 238 l 332 714 l 79 714 l 79 321 b 376 -21 79 67 182 -21 b 763 46 518 -21 667 14 l 763 714 l 510 714 m 150 789 l 285 968 l 483 968 l 314 789 m 414 789 l 549 968 l 747 968 l 578 789 "},"ū":{"ha":850,"x_min":0,"x_max":0,"o":"m 510 214 b 432 204 479 208 456 204 b 332 338 346 204 332 238 l 332 714 l 79 714 l 79 321 b 376 -21 79 67 182 -21 b 763 46 518 -21 667 14 l 763 714 l 510 714 m 207 957 l 631 957 l 631 788 l 207 788 "},"ų":{"ha":850,"x_min":0,"x_max":0,"o":"m 510 714 l 763 714 l 763 46 b 376 -21 667 14 518 -21 b 79 321 182 -21 79 67 l 79 714 l 332 714 l 332 338 b 432 204 332 238 346 204 b 510 214 456 204 479 208 m 651 17 b 549 -111 567 -35 549 -64 b 622 -160 549 -144 563 -160 b 724 -126 661 -160 700 -146 l 782 -233 b 593 -282 735 -267 656 -282 b 401 -158 444 -282 401 -240 b 589 17 401 -85 461 -17 "},"ů":{"ha":850,"x_min":0,"x_max":0,"o":"m 510 714 l 763 714 l 763 46 b 376 -21 667 14 518 -21 b 79 321 182 -21 79 67 l 79 714 l 332 714 l 332 338 b 432 204 332 238 346 204 b 510 214 456 204 479 208 m 419 1033 b 597 892 543 1033 597 1004 b 419 750 597 778 543 750 b 239 892 294 750 239 778 b 419 1033 239 1004 294 1033 m 419 939 b 360 890 368 939 360 926 b 419 843 360 853 368 843 b 478 890 469 843 478 854 b 419 939 478 928 469 939 "},"ũ":{"ha":850,"x_min":0,"x_max":0,"o":"m 510 214 b 432 204 479 208 456 204 b 332 338 346 204 332 238 l 332 714 l 79 714 l 79 321 b 376 -21 79 67 182 -21 b 763 46 518 -21 667 14 l 763 714 l 510 714 m 696 900 b 515 768 671 833 608 768 b 317 825 422 768 385 825 b 256 768 292 825 275 813 l 150 872 b 308 982 185 932 233 982 b 517 928 418 982 454 928 b 581 993 547 928 561 940 "},"ŵ":{"ha":1176,"x_min":0,"x_max":0,"o":"m 583 351 b 490 0 564 249 517 82 l 193 0 b -33 714 122 256 49 483 l 222 714 b 357 268 274 571 318 424 b 481 714 393 382 451 599 l 700 714 b 821 268 735 601 794 386 b 950 714 869 417 915 564 l 1200 714 b 954 0 1133 490 1044 224 l 656 0 b 583 351 639 93 604 260 m 585 881 l 503 789 l 297 789 l 467 968 l 706 968 l 881 789 l 669 789 "},"ŷ":{"ha":713,"x_min":0,"x_max":0,"o":"m 736 714 b 369 -267 646 393 513 33 l 92 -267 b 208 -36 131 -200 174 -112 b -33 714 139 218 49 483 l 222 714 b 357 261 274 571 318 417 b 486 714 406 410 451 564 m 356 881 l 274 789 l 68 789 l 238 968 l 476 968 l 651 789 l 440 789 "},"ź":{"ha":693,"x_min":0,"x_max":0,"o":"m 689 714 l 689 679 b 390 217 611 544 476 339 l 667 217 l 667 0 l 1 0 l 1 33 b 301 497 103 174 254 410 l 26 497 l 26 714 m 213 789 l 385 968 l 638 968 l 421 789 "},"ż":{"ha":693,"x_min":0,"x_max":0,"o":"m 689 714 l 689 679 b 390 217 611 544 476 339 l 667 217 l 667 0 l 1 0 l 1 33 b 301 497 103 174 254 410 l 26 497 l 26 714 m 353 981 b 461 881 435 981 461 967 b 353 769 461 786 435 769 b 246 881 272 769 246 786 b 353 981 246 967 272 981 "},"r":{"ha":576,"x_min":0,"x_max":0,"o":"m 88 714 l 342 714 l 342 657 b 506 735 365 701 403 735 b 576 731 526 735 550 733 l 576 496 b 468 510 547 506 504 510 b 342 444 400 510 342 485 l 342 0 l 88 0 "},"m":{"ha":1253,"x_min":0,"x_max":0,"o":"m 342 0 l 88 0 l 88 668 b 467 735 183 700 325 735 b 640 689 538 735 597 719 b 883 735 715 715 801 735 b 1174 393 1078 735 1174 647 l 1174 0 l 921 0 l 921 376 b 828 510 921 476 908 510 b 749 503 807 510 772 506 b 758 393 754 469 758 432 l 758 0 l 504 0 l 504 376 b 411 510 504 476 492 510 b 342 500 389 510 364 506 "},"o":{"ha":822,"x_min":0,"x_max":0,"o":"m 410 -19 b 56 361 176 -19 56 68 b 410 735 56 653 179 735 b 767 361 644 735 767 653 b 410 -19 767 68 646 -19 m 410 540 b 310 357 331 540 310 525 b 410 175 310 194 331 175 b 511 357 490 175 511 194 b 410 540 511 525 490 540 "},"t":{"ha":608,"x_min":0,"x_max":0,"o":"m 376 497 l 376 271 b 461 193 376 215 393 193 b 568 211 503 193 536 201 l 608 19 b 374 -19 550 -4 460 -19 b 122 242 218 -19 122 28 l 122 497 l 10 497 l 10 714 l 122 714 l 122 806 l 376 908 l 376 714 l 586 714 l 586 497 "},"w":{"ha":1176,"x_min":0,"x_max":0,"o":"m 583 351 b 490 0 564 249 517 82 l 193 0 b -33 714 122 256 49 483 l 222 714 b 357 268 274 571 318 424 b 481 714 393 382 451 599 l 700 714 b 821 268 735 601 794 386 b 950 714 869 417 915 564 l 1200 714 b 954 0 1133 490 1044 224 l 656 0 b 583 351 639 93 604 260 "},"y":{"ha":713,"x_min":0,"x_max":0,"o":"m 736 714 b 369 -267 646 393 513 33 l 92 -267 b 208 -36 131 -200 174 -112 b -33 714 139 218 49 483 l 222 714 b 357 261 274 571 318 417 b 486 714 406 410 451 564 "},"Ŀ":{"ha":772,"x_min":0,"x_max":0,"o":"m 371 968 l 371 233 l 785 233 l 785 0 l 106 0 l 106 968 m 549 701 b 657 601 631 701 657 688 b 549 490 657 507 631 490 b 442 601 468 490 442 507 b 549 701 442 688 468 701 "},"ŀ":{"ha":438,"x_min":0,"x_max":0,"o":"m 342 217 b 383 36 342 149 356 88 l 150 -36 b 88 210 110 19 88 107 l 88 1003 l 342 1003 m 476 676 b 585 576 558 676 585 663 b 476 465 585 482 558 465 b 369 576 396 465 369 482 b 476 676 369 663 396 676 "},"ĭ":{"ha":426,"x_min":0,"x_max":0,"o":"m 342 0 l 88 0 l 88 714 l 342 714 m 144 968 b 219 904 144 915 169 904 b 293 968 267 904 293 915 l 443 968 b 213 763 443 826 358 763 b -17 968 71 763 -17 826 "},"İ":{"ha":476,"x_min":0,"x_max":0,"o":"m 106 968 l 106 0 l 371 0 l 371 968 m 236 1232 b 344 1132 318 1232 344 1218 b 236 1021 344 1038 318 1021 b 129 1132 156 1021 129 1038 b 236 1232 129 1218 156 1232 "},"Ĭ":{"ha":476,"x_min":0,"x_max":0,"o":"m 106 968 l 106 0 l 371 0 l 371 968 m 169 1210 b 244 1146 169 1157 194 1146 b 318 1210 292 1146 318 1157 l 468 1210 b 238 1004 468 1068 383 1004 b 8 1210 96 1004 8 1068 "},"Ã":{"ha":967,"x_min":0,"x_max":0,"o":"m 293 968 b -44 0 190 714 28 254 l 243 0 b 293 186 256 47 272 113 l 668 186 b 738 0 693 113 718 46 l 1031 0 b 697 968 931 249 783 674 m 497 735 b 592 415 518 656 553 538 l 360 415 b 463 735 397 539 435 657 l 497 735 m 747 1144 b 567 1013 722 1078 660 1013 b 368 1069 474 1013 436 1069 b 307 1013 343 1069 326 1057 l 201 1117 b 360 1226 236 1176 285 1226 b 568 1172 469 1226 506 1172 b 632 1238 599 1172 613 1185 "},"Å":{"ha":967,"x_min":0,"x_max":0,"o":"m 697 968 b 1031 0 783 674 931 249 l 738 0 b 668 186 718 46 693 113 l 293 186 b 243 0 272 113 256 47 l -44 0 b 293 968 28 254 190 714 m 463 735 b 360 415 435 657 397 539 l 592 415 b 497 735 553 538 518 656 m 483 1261 b 661 1119 607 1261 661 1232 b 483 978 661 1006 607 978 b 303 1119 358 978 303 1006 b 483 1261 303 1232 358 1261 m 483 1167 b 424 1118 432 1167 424 1154 b 483 1071 424 1081 432 1071 b 542 1118 533 1071 542 1082 b 483 1167 542 1156 533 1167 "},"À":{"ha":967,"x_min":0,"x_max":0,"o":"m 697 968 b 1031 0 783 674 931 249 l 738 0 b 668 186 718 46 693 113 l 293 186 b 243 0 272 113 256 47 l -44 0 b 293 968 28 254 190 714 m 463 735 b 360 415 435 657 397 539 l 592 415 b 497 735 553 538 518 656 m 438 1038 l 221 1217 l 474 1217 l 646 1038 "},"Ä":{"ha":967,"x_min":0,"x_max":0,"o":"m 293 968 b -44 0 190 714 28 254 l 243 0 b 293 186 256 47 272 113 l 668 186 b 738 0 693 113 718 46 l 1031 0 b 697 968 931 249 783 674 m 497 735 b 592 415 518 656 553 538 l 360 415 b 463 735 397 539 435 657 l 497 735 m 318 1224 b 426 1124 400 1224 426 1210 b 318 1013 426 1029 400 1013 b 211 1124 238 1013 211 1029 b 318 1224 211 1210 238 1224 m 649 1224 b 756 1124 729 1224 756 1210 b 649 1013 756 1029 729 1013 b 540 1124 565 1013 540 1029 b 649 1224 540 1210 565 1224 "},"Â":{"ha":967,"x_min":0,"x_max":0,"o":"m 293 968 b -44 0 190 714 28 254 l 243 0 b 293 186 256 47 272 113 l 668 186 b 738 0 693 113 718 46 l 1031 0 b 697 968 931 249 783 674 m 497 735 b 592 415 518 656 553 538 l 360 415 b 463 735 397 539 435 657 l 497 735 m 483 1129 l 401 1038 l 196 1038 l 365 1217 l 604 1217 l 779 1038 l 568 1038 "},"Ă":{"ha":967,"x_min":0,"x_max":0,"o":"m 293 968 b -44 0 190 714 28 254 l 243 0 b 293 186 256 47 272 113 l 668 186 b 738 0 693 113 718 46 l 1031 0 b 697 968 931 249 783 674 m 497 735 b 592 415 518 656 553 538 l 360 415 b 463 735 397 539 435 657 l 497 735 m 413 1210 b 488 1146 413 1157 438 1146 b 561 1210 535 1146 561 1157 l 711 1210 b 481 1004 711 1068 626 1004 b 251 1210 339 1004 251 1068 "},"Á":{"ha":967,"x_min":0,"x_max":0,"o":"m 293 968 b -44 0 190 714 28 254 l 243 0 b 293 186 256 47 272 113 l 668 186 b 738 0 693 113 718 46 l 1031 0 b 697 968 931 249 783 674 m 497 735 b 592 415 518 656 553 538 l 360 415 b 463 735 397 539 435 657 l 497 735 m 313 1038 l 485 1217 l 738 1217 l 521 1038 "},"ß":{"ha":961,"x_min":0,"x_max":0,"o":"m 475 992 b 885 735 778 992 885 929 b 675 506 885 594 849 519 b 903 257 858 497 903 415 b 504 -19 903 51 794 -19 b 383 -14 468 -19 426 -18 l 414 201 b 519 196 444 199 481 196 b 626 289 607 196 626 221 b 522 396 626 374 592 396 l 447 396 l 447 599 l 515 599 b 618 688 601 599 618 636 b 474 769 618 754 589 769 b 342 671 376 769 342 728 l 342 0 l 88 0 l 88 719 b 475 992 88 933 229 992 "},"ﬂ":{"ha":889,"x_min":0,"x_max":0,"o":"m 793 217 b 835 36 793 149 807 88 l 601 -36 b 539 210 561 19 539 107 l 539 793 b 451 801 510 797 476 801 b 363 722 383 801 363 779 l 363 714 l 489 714 l 489 497 l 363 497 l 363 0 l 108 0 l 108 497 l -4 497 l -4 714 l 108 714 l 108 742 b 458 1014 108 956 238 1014 b 793 975 575 1014 676 1001 "},"Ð":{"ha":1069,"x_min":0,"x_max":0,"o":"m 35 579 l 106 579 l 106 968 l 544 968 b 1008 490 857 968 1008 868 b 544 0 1008 113 857 0 l 106 0 l 106 401 l 35 401 m 725 486 b 510 735 725 718 688 735 l 371 735 l 371 579 l 588 579 l 588 401 l 371 401 l 371 235 l 510 235 b 725 486 688 235 725 258 "},"":{"ha":438,"x_min":0,"x_max":0,"o":"m 704 1003 l 624 736 l 474 736 l 499 1003 "},"~":{"ha":754,"x_min":0,"x_max":0,"o":"m 747 519 b 504 342 714 431 629 342 b 236 456 378 342 328 456 b 153 379 203 456 179 440 l 11 519 b 225 668 58 600 124 668 b 506 557 372 668 421 557 b 592 646 547 557 565 575 "},"đ":{"ha":839,"x_min":0,"x_max":0,"o":"m 400 957 l 497 957 l 497 1003 l 751 1003 l 751 957 l 824 957 l 824 788 l 751 788 l 751 29 b 417 -19 674 1 536 -19 b 56 361 167 -19 56 68 b 351 735 56 647 190 735 b 497 713 411 735 456 725 l 497 788 l 400 788 m 497 492 b 413 531 497 511 463 531 b 310 365 335 531 310 490 b 417 190 310 215 336 190 b 497 203 443 190 479 196 "},"¤":{"ha":974,"x_min":0,"x_max":0,"o":"m 493 115 b 399 121 458 115 428 117 l 306 0 l 82 144 l 176 274 b 139 496 151 329 139 401 b 171 704 139 583 150 651 l 78 824 l 317 968 l 397 863 b 493 869 426 867 458 869 b 588 864 526 869 558 867 l 653 968 l 893 825 l 814 713 b 850 496 838 658 850 588 b 814 276 850 403 838 332 l 903 144 l 664 0 l 586 121 b 493 115 557 117 526 115 m 493 661 b 379 492 414 661 379 660 b 493 324 379 329 414 324 b 608 492 574 324 608 329 b 493 661 608 660 574 661 "},"h":{"ha":850,"x_min":0,"x_max":0,"o":"m 772 0 l 518 0 l 518 408 b 418 511 518 496 465 511 b 342 485 378 511 342 503 l 342 0 l 88 0 l 88 1003 l 342 1003 l 342 694 b 526 735 397 715 469 735 b 772 419 667 735 772 692 "},"u":{"ha":850,"x_min":0,"x_max":0,"o":"m 510 714 l 763 714 l 763 46 b 376 -21 667 14 518 -21 b 79 321 182 -21 79 67 l 79 714 l 332 714 l 332 338 b 432 204 332 238 346 204 b 510 214 456 204 479 208 "},"b":{"ha":839,"x_min":0,"x_max":0,"o":"m 342 194 b 422 179 368 183 403 179 b 529 361 503 179 529 197 b 429 518 529 485 507 518 b 342 485 379 518 342 504 m 88 1003 l 342 1003 l 342 699 b 514 735 385 718 456 735 b 782 368 688 735 782 654 b 422 -19 782 75 672 -19 b 88 29 303 -19 164 1 "},"d":{"ha":839,"x_min":0,"x_max":0,"o":"m 497 492 b 413 531 497 511 463 531 b 310 365 335 531 310 490 b 417 190 310 215 336 190 b 497 203 443 190 479 196 m 751 29 b 417 -19 674 1 536 -19 b 56 361 167 -19 56 68 b 351 735 56 647 190 735 b 497 713 411 735 456 725 l 497 1003 l 751 1003 "},"n":{"ha":850,"x_min":0,"x_max":0,"o":"m 342 0 l 88 0 l 88 668 b 474 735 183 700 332 735 b 772 393 668 735 772 647 l 772 0 l 518 0 l 518 376 b 418 510 518 476 504 510 b 342 500 396 510 371 506 "},"c":{"ha":658,"x_min":0,"x_max":0,"o":"m 647 15 b 415 -19 589 -7 490 -19 b 56 361 204 -19 56 68 b 415 735 56 651 206 735 b 647 704 494 735 590 724 l 597 493 b 440 521 560 504 497 521 b 310 357 356 521 310 511 b 440 196 310 211 356 196 b 597 226 501 196 560 213 "},"e":{"ha":776,"x_min":0,"x_max":0,"o":"m 678 19 b 413 -19 607 -4 500 -19 b 56 361 217 -19 56 68 b 397 735 56 651 194 735 b 728 276 646 735 754 664 l 315 276 b 446 189 318 201 363 189 b 642 208 497 189 592 197 m 418 547 b 317 458 349 547 329 525 l 514 458 b 418 547 513 532 486 547 "},"C":{"ha":810,"x_min":0,"x_max":0,"o":"m 61 493 b 525 992 61 889 211 992 b 810 958 617 992 736 978 l 763 725 b 588 749 719 739 644 749 b 344 490 410 749 344 729 b 588 226 344 251 410 226 b 763 250 644 226 719 236 l 810 11 b 525 -19 735 -7 617 -19 b 61 493 211 -19 61 99 "},"ł":{"ha":438,"x_min":0,"x_max":0,"o":"m 342 732 l 425 821 l 425 582 l 342 493 l 342 217 b 383 36 342 149 356 88 l 150 -36 b 88 210 110 19 88 107 l 88 224 l 11 143 l 11 382 l 88 463 l 88 1003 l 342 1003 "},"Ł":{"ha":772,"x_min":0,"x_max":0,"o":"m 575 581 l 371 418 l 371 233 l 785 233 l 785 0 l 106 0 l 106 208 l 21 142 l 21 381 l 106 447 l 106 968 l 371 968 l 371 657 l 575 819 "},"$":{"ha":863,"x_min":0,"x_max":0,"o":"m 507 1146 l 507 958 b 779 914 614 956 713 939 l 729 699 b 507 729 681 711 596 725 l 507 589 b 792 314 688 558 792 478 b 507 13 792 115 711 33 l 507 -190 l 346 -190 l 346 7 b 68 51 236 10 135 26 l 118 268 b 346 236 167 254 256 240 l 346 379 b 61 632 178 404 61 472 b 346 950 61 828 150 924 l 346 1146 m 300 669 b 346 614 300 640 307 625 l 346 721 b 300 669 307 711 300 692 m 550 296 b 507 353 550 325 547 340 l 507 242 b 550 296 542 251 550 268 "},"€":{"ha":810,"x_min":0,"x_max":0,"o":"m 61 493 b 525 992 61 889 211 992 b 810 958 617 992 736 978 l 763 725 b 588 749 719 739 644 749 b 375 679 478 749 411 740 l 633 679 l 633 525 l 344 525 l 344 490 l 344 456 l 633 456 l 633 301 l 375 301 b 588 226 410 236 476 226 b 763 250 644 226 719 236 l 810 11 b 525 -19 735 -7 617 -19 b 61 493 211 -19 61 99 "},"?":{"ha":722,"x_min":0,"x_max":0,"o":"m 228 322 b 404 663 339 457 404 557 b 265 749 404 713 379 749 b 58 725 163 749 101 739 l 11 958 b 296 992 85 978 204 992 b 711 699 594 992 711 906 b 476 322 711 553 596 431 m 357 256 b 504 128 468 256 504 238 b 357 -12 504 8 468 -12 b 213 128 249 -12 213 8 b 357 256 213 238 249 256 "},"q":{"ha":839,"x_min":0,"x_max":0,"o":"m 497 521 b 417 538 471 532 436 538 b 310 356 336 538 310 518 b 410 197 310 231 331 197 b 497 231 458 197 497 211 m 751 -267 l 497 -267 l 497 18 b 324 -19 453 -1 383 -19 b 56 349 150 -19 56 61 b 417 735 56 640 167 735 b 751 686 536 735 674 714 "},"p":{"ha":839,"x_min":0,"x_max":0,"o":"m 342 224 b 425 186 342 204 376 186 b 529 350 504 186 529 226 b 422 525 529 500 503 525 b 342 513 396 525 358 519 m 88 686 b 422 735 164 714 303 735 b 782 356 672 735 782 647 b 486 -19 782 68 647 -19 b 342 4 426 -19 383 -8 l 342 -267 l 88 -267 "},"ý":{"ha":713,"x_min":0,"x_max":0,"o":"m 736 714 b 369 -267 646 393 513 33 l 92 -267 b 208 -36 131 -200 174 -112 b -33 714 139 218 49 483 l 222 714 b 357 261 274 571 318 417 b 486 714 406 410 451 564 m 225 789 l 397 968 l 650 968 l 433 789 "},"g":{"ha":839,"x_min":0,"x_max":0,"o":"m 497 521 b 417 538 471 532 436 538 b 310 356 336 538 310 518 b 410 197 310 231 331 197 b 497 231 458 197 497 211 m 497 21 b 332 -14 453 1 392 -14 b 56 349 160 -14 56 61 b 417 735 56 640 167 735 b 751 686 536 735 674 714 l 751 58 b 343 -283 751 -235 571 -283 b 72 -242 242 -283 142 -265 l 114 -49 b 339 -78 196 -67 257 -78 b 497 21 438 -78 497 -54 "},"F":{"ha":829,"x_min":0,"x_max":0,"o":"m 829 968 l 829 735 l 371 735 l 371 560 l 714 560 l 714 331 l 371 331 l 371 0 l 106 0 l 106 968 "},"L":{"ha":772,"x_min":0,"x_max":0,"o":"m 371 968 l 371 233 l 785 233 l 785 0 l 106 0 l 106 968 "},"T":{"ha":903,"x_min":0,"x_max":0,"o":"m 318 0 l 318 735 l 0 735 l 0 968 l 903 968 l 903 735 l 585 735 l 585 0 "},"P":{"ha":967,"x_min":0,"x_max":0,"o":"m 579 500 b 654 619 619 500 654 525 b 581 742 654 713 626 742 l 371 742 l 371 500 m 106 0 l 106 968 l 682 968 b 944 619 875 968 944 829 b 682 285 944 436 856 285 l 371 285 l 371 0 "},":":{"ha":436,"x_min":0,"x_max":0,"o":"m 217 256 b 364 128 328 256 364 238 b 217 -12 364 8 328 -12 b 72 128 108 -12 72 8 b 217 256 72 238 108 256 m 217 729 b 364 601 328 729 364 713 b 217 463 364 483 328 463 b 72 601 108 463 72 483 b 217 729 72 713 108 729 "},"ﬀ":{"ha":983,"x_min":0,"x_max":0,"o":"m 1003 714 l 1003 497 l 793 497 l 793 0 l 539 0 l 539 497 l 363 497 l 363 0 l 108 0 l 108 497 l -4 497 l -4 714 l 108 714 l 108 742 b 393 1014 108 956 238 1014 b 644 974 474 1014 574 1001 b 824 1014 694 1003 756 1014 b 1056 975 910 1014 996 997 l 1003 782 b 882 801 969 793 924 801 b 793 722 814 801 793 779 l 793 714 m 539 714 l 539 742 b 542 792 539 760 539 776 b 451 801 511 797 478 801 b 363 722 383 801 363 779 l 363 714 "},"ﬃ":{"ha":1311,"x_min":0,"x_max":0,"o":"m 1224 0 l 969 0 l 969 497 l 793 497 l 793 0 l 539 0 l 539 497 l 363 497 l 363 0 l 108 0 l 108 497 l -4 497 l -4 714 l 108 714 l 108 742 b 393 1014 108 956 238 1014 b 653 965 474 1014 569 994 b 922 1014 718 1000 808 1014 b 1208 975 1028 1014 1135 996 l 1156 782 b 967 801 1121 789 1042 801 b 793 722 856 801 793 785 l 793 714 l 1224 714 m 539 714 l 539 742 b 542 792 539 760 539 776 b 451 801 511 797 478 801 b 363 722 383 801 363 779 l 363 714 "},"∞":{"ha":1076,"x_min":0,"x_max":0,"o":"m 440 489 b 350 575 440 549 421 575 b 263 489 272 575 263 549 b 350 401 263 428 272 401 b 440 489 421 401 440 428 m 539 351 b 301 167 524 200 446 167 b 35 489 113 167 35 217 b 301 810 35 760 113 810 b 539 625 446 810 524 778 b 775 810 553 778 631 810 b 1042 489 964 810 1042 760 b 775 167 1042 217 964 167 b 539 351 631 167 553 200 m 636 488 b 726 401 636 428 656 401 b 814 488 804 401 814 428 b 726 575 814 549 804 575 b 636 488 656 575 636 549 "},"π":{"ha":935,"x_min":0,"x_max":0,"o":"m 28 714 l 907 714 l 907 469 l 796 469 l 796 0 l 542 0 l 542 469 l 388 469 l 388 133 b 294 -87 388 26 351 -43 l 113 68 b 133 129 126 83 133 103 l 133 469 l 28 469 "},"ª":{"ha":644,"x_min":0,"x_max":0,"o":"m 561 494 b 301 456 489 469 379 456 b 83 622 129 456 83 489 b 279 788 83 765 157 788 b 382 776 311 788 350 783 b 281 843 382 829 372 843 b 122 822 219 843 165 835 l 97 964 b 328 992 161 979 251 992 b 561 803 478 992 561 943 m 382 664 b 321 669 365 668 344 669 b 268 628 282 669 268 664 b 318 585 268 592 275 585 b 382 596 340 585 364 589 "},"º":{"ha":667,"x_min":0,"x_max":0,"o":"m 332 428 b 71 711 169 428 71 503 b 332 992 71 919 171 992 b 596 711 497 992 596 919 b 332 428 596 503 497 428 m 332 846 b 256 708 276 846 256 828 b 332 572 256 593 276 572 b 410 708 389 572 410 593 b 332 846 410 828 389 846 "},"Ω":{"ha":1140,"x_min":0,"x_max":0,"o":"m 0 244 l 185 244 b 88 553 144 276 88 419 b 569 992 88 889 256 992 b 1050 553 882 992 1050 889 b 953 244 1050 419 993 276 l 1140 244 l 1140 0 l 643 0 l 643 229 b 767 550 753 253 767 343 b 569 746 767 726 747 746 b 371 550 390 746 371 726 b 492 231 371 346 385 256 l 492 0 l 0 0 "},"√":{"ha":854,"x_min":0,"x_max":0,"o":"m 282 714 b 417 261 333 571 378 417 b 632 968 465 410 597 818 l 882 968 b 550 0 817 744 640 224 l 253 0 b 114 458 208 161 163 311 l 0 458 l 0 714 "},"Δ":{"ha":914,"x_min":0,"x_max":0,"o":"m -60 0 b 283 968 11 254 179 714 l 621 968 b 958 0 707 678 851 249 m 433 672 b 292 233 393 564 339 389 l 576 233 b 433 672 521 388 464 561 "},"'":{"ha":329,"x_min":0,"x_max":0,"o":"m 267 968 l 240 621 l 78 621 l 63 968 "},"−":{"ha":754,"x_min":0,"x_max":0,"o":"m 35 631 l 719 631 l 719 386 l 35 386 "},"+":{"ha":754,"x_min":0,"x_max":0,"o":"m 35 631 l 254 631 l 254 851 l 499 851 l 499 631 l 719 631 l 719 386 l 499 386 l 499 167 l 254 167 l 254 386 l 35 386 "},"=":{"ha":754,"x_min":0,"x_max":0,"o":"m 35 404 l 719 404 l 719 160 l 35 160 m 35 861 l 719 861 l 719 617 l 35 617 "},">":{"ha":754,"x_min":0,"x_max":0,"o":"m 381 504 l 81 767 l 210 954 l 714 568 l 714 446 l 211 61 l 81 246 "},"\\":{"ha":704,"x_min":0,"x_max":0,"o":"m 254 968 l 749 0 l 481 0 l -14 968 "},"]":{"ha":578,"x_min":0,"x_max":0,"o":"m 447 1049 l 447 -361 l -25 -361 l -25 -143 l 185 -143 l 185 829 l -25 829 l -25 1049 "},"_":{"ha":754,"x_min":0,"x_max":0,"o":"m 35 -37 l 719 -37 l 719 -282 l 35 -282 "},"}":{"ha":581,"x_min":0,"x_max":0,"o":"m 515 453 l 515 240 b 360 -39 433 240 360 183 b 110 -390 360 -275 225 -351 l -10 -204 b 119 72 78 -167 119 -122 b 242 346 119 276 196 332 b 119 625 196 360 119 419 b -10 900 119 818 83 860 l 110 1082 b 360 731 225 1043 360 967 b 515 451 360 508 433 451 "},"`":{"ha":651,"x_min":0,"x_max":0,"o":"m 333 789 l 117 968 l 369 968 l 542 789 "},"ˆ":{"ha":890,"x_min":0,"x_max":0,"o":"m 463 881 l 381 789 l 175 789 l 344 968 l 583 968 l 758 789 l 547 789 "},"←":{"ha":1100,"x_min":0,"x_max":0,"o":"m 14 496 l 574 1036 l 760 857 l 511 618 l 1086 618 l 1086 375 l 511 375 l 760 136 l 574 -43 "},"↑":{"ha":1107,"x_min":0,"x_max":0,"o":"m 553 1032 l 1093 472 l 914 286 l 675 535 l 675 -40 l 432 -40 l 432 535 l 193 286 l 14 472 "},"→":{"ha":1100,"x_min":0,"x_max":0,"o":"m 1086 496 l 526 -44 l 340 135 l 589 374 l 14 374 l 14 617 l 589 617 l 340 856 l 526 1035 "},"↓":{"ha":1107,"x_min":0,"x_max":0,"o":"m 554 -40 l 14 519 l 193 706 l 432 457 l 432 1032 l 675 1032 l 675 457 l 914 706 l 1093 519 "},"‡":{"ha":657,"x_min":0,"x_max":0,"o":"m 42 525 l 226 525 l 226 611 l 42 611 l 42 815 l 226 815 l 226 1000 l 429 1000 l 429 815 l 615 815 l 615 611 l 429 611 l 429 525 l 615 525 l 615 321 l 429 321 l 429 136 l 226 136 l 226 321 l 42 321 "},"∂":{"ha":875,"x_min":0,"x_max":0,"o":"m 531 968 b 826 308 717 771 826 571 b 442 -24 826 58 760 -24 b 61 310 150 -24 61 50 b 424 614 61 532 142 614 l 476 614 b 213 968 424 717 322 846 m 463 390 b 336 304 350 390 336 378 b 442 221 336 235 354 221 b 543 331 532 221 543 242 b 540 389 543 350 543 369 b 463 390 513 390 486 390 "},"ð":{"ha":875,"x_min":0,"x_max":0,"o":"m 244 767 l 338 819 b 213 968 299 869 256 918 l 531 968 b 553 943 538 960 546 951 l 618 981 l 708 868 l 646 832 b 826 308 761 676 826 511 b 442 -24 826 58 760 -24 b 61 310 150 -24 61 50 b 424 614 61 532 142 614 l 476 614 b 422 703 461 642 443 672 l 335 653 m 463 390 b 336 304 350 390 336 378 b 442 221 336 235 354 221 b 543 331 532 221 543 242 b 540 389 543 350 543 369 b 463 390 513 390 486 390 "},"Þ":{"ha":967,"x_min":0,"x_max":0,"o":"m 371 968 l 371 844 l 682 844 b 944 496 875 844 944 706 b 682 161 944 313 856 161 l 371 161 l 371 0 l 106 0 l 106 968 m 579 376 b 654 496 619 376 654 401 b 581 618 654 589 626 618 l 371 618 l 371 376 "},"×":{"ha":754,"x_min":0,"x_max":0,"o":"m 49 353 l 204 508 l 47 664 l 221 838 l 376 681 l 532 838 l 706 664 l 549 508 l 704 353 l 532 181 l 376 336 l 221 181 "},"°":{"ha":640,"x_min":0,"x_max":0,"o":"m 319 992 b 613 672 538 992 613 925 b 319 339 613 415 538 339 b 28 672 101 339 28 415 b 319 992 28 925 101 992 m 319 513 b 392 672 382 513 392 526 b 319 821 392 808 382 821 b 246 672 257 821 246 808 b 319 513 246 526 257 513 "},"¼":{"ha":1308,"x_min":0,"x_max":0,"o":"m 1028 968 l 379 0 l 139 0 l 788 968 m 665 117 l 665 211 b 928 619 735 333 853 515 l 1183 619 l 1183 293 l 1260 293 l 1260 117 l 1183 117 l 1183 0 l 983 0 l 983 117 m 983 457 b 878 293 944 404 903 339 l 983 293 m 185 364 l 185 729 l 51 678 l -4 846 l 386 1003 l 386 364 "},"¾":{"ha":1308,"x_min":0,"x_max":0,"o":"m 1124 968 l 475 0 l 235 0 l 883 968 m 706 117 l 706 211 b 968 619 775 333 893 515 l 1224 619 l 1224 293 l 1300 293 l 1300 117 l 1224 117 l 1224 0 l 1024 0 l 1024 117 m 1024 457 b 918 293 985 404 943 339 l 1024 293 m 138 751 l 238 751 b 286 789 279 751 286 763 b 183 821 286 811 276 821 b 43 806 147 821 75 815 l 14 969 b 229 990 71 982 158 990 b 513 826 417 990 513 950 b 367 679 513 736 478 688 b 525 519 483 674 525 621 b 229 343 525 389 415 343 b 11 363 164 343 71 351 l 42 529 b 183 514 72 521 147 514 b 296 550 282 514 296 526 b 242 597 296 588 282 597 l 138 597 "},"¹":{"ha":581,"x_min":0,"x_max":0,"o":"m 225 364 l 225 729 l 92 678 l 36 846 l 426 1003 l 426 364 "},"²":{"ha":665,"x_min":0,"x_max":0,"o":"m 67 958 b 296 990 114 976 211 990 b 568 788 467 990 568 940 b 474 607 568 713 547 632 b 296 536 357 568 301 563 l 569 536 l 569 364 l 51 364 b 226 678 60 538 104 617 b 361 764 288 708 361 717 b 276 807 361 797 344 807 b 99 782 219 807 140 793 "},"³":{"ha":654,"x_min":0,"x_max":0,"o":"m 192 751 l 292 751 b 340 789 333 751 340 763 b 238 821 340 811 331 821 b 97 806 201 821 129 815 l 68 969 b 283 990 125 982 213 990 b 567 826 471 990 567 950 b 421 679 567 736 532 688 b 579 519 538 674 579 621 b 283 343 579 389 469 343 b 65 363 218 343 125 351 l 96 529 b 238 514 126 521 201 514 b 350 550 336 514 350 526 b 296 597 350 588 336 597 l 192 597 "},"±":{"ha":754,"x_min":0,"x_max":0,"o":"m 35 242 l 719 242 l 719 -3 l 35 -3 m 35 747 l 254 747 l 254 968 l 499 968 l 499 747 l 719 747 l 719 503 l 499 503 l 499 283 l 254 283 l 254 503 l 35 503 "},"≤":{"ha":754,"x_min":0,"x_max":0,"o":"m 35 242 l 719 242 l 719 -3 l 35 -3 m 390 642 l 690 415 l 561 254 l 57 588 l 57 692 l 560 1024 l 690 864 "},"≥":{"ha":754,"x_min":0,"x_max":0,"o":"m 721 -3 l 36 -3 l 36 242 l 721 242 m 65 864 l 196 1024 l 699 692 l 699 588 l 194 254 l 65 415 l 365 642 "},"µ":{"ha":850,"x_min":0,"x_max":0,"o":"m 61 -267 l 79 321 l 79 714 l 332 714 l 332 338 b 432 204 332 238 346 204 b 510 214 456 204 479 208 l 510 714 l 763 714 l 763 46 b 376 -21 667 14 518 -21 b 297 -15 349 -21 322 -19 l 306 -267 "},"∏":{"ha":1054,"x_min":0,"x_max":0,"o":"m 371 0 l 106 0 l 106 968 l 949 968 l 949 0 l 685 0 l 685 721 l 371 721 "},"∫":{"ha":450,"x_min":0,"x_max":0,"o":"m 104 742 b 389 1014 104 956 233 1014 b 635 975 475 1014 575 997 l 582 782 b 447 801 549 793 489 801 b 358 722 379 801 358 779 l 358 0 l 357 0 b 38 -282 354 -217 194 -282 b -212 -247 -60 -282 -142 -269 l -172 -65 b 3 -89 -121 -81 -67 -89 b 103 0 68 -89 103 -58 "},"ƒ":{"ha":553,"x_min":0,"x_max":0,"o":"m 85 0 l 172 497 l 46 497 l 85 714 l 211 714 l 215 742 b 549 1014 253 956 393 1014 b 788 975 635 1014 732 997 l 700 782 b 569 801 669 793 611 801 b 467 722 501 801 476 779 l 465 714 l 689 714 l 650 497 l 426 497 l 339 0 l 338 0 b -31 -282 296 -217 125 -282 b -274 -247 -128 -282 -207 -269 l -201 -65 b -31 -89 -153 -81 -100 -89 b 83 0 33 -89 74 -58 "},"¿":{"ha":722,"x_min":0,"x_max":0,"o":"m 246 400 b 11 24 126 292 11 169 b 426 -269 11 -183 128 -269 b 711 -236 518 -269 638 -256 l 664 -3 b 457 -26 621 -17 560 -26 b 318 60 343 -26 318 10 b 494 400 318 165 383 265 l 246 400 m 365 467 b 218 594 254 467 218 485 b 365 735 218 714 254 735 b 510 594 474 735 510 714 b 365 467 510 485 474 467 "},"¡":{"ha":464,"x_min":0,"x_max":0,"o":"m 85 -246 l 142 378 l 324 378 l 381 -246 m 231 467 b 83 594 119 467 83 485 b 231 735 83 714 119 735 b 375 594 339 735 375 714 b 231 467 375 485 339 467 "},"≈":{"ha":754,"x_min":0,"x_max":0,"o":"m 747 325 b 504 147 714 236 629 147 b 236 261 378 147 328 261 b 153 185 203 261 179 246 l 11 325 b 225 474 58 406 124 474 b 506 363 372 474 421 363 b 592 451 547 363 565 381 m 747 658 b 504 481 714 569 629 481 b 236 594 378 481 328 594 b 153 518 203 594 179 579 l 11 658 b 225 807 58 739 124 807 b 506 696 372 807 421 696 b 592 785 547 696 565 714 "},"›":{"ha":578,"x_min":0,"x_max":0,"o":"m 217 449 l 28 711 l 171 857 l 550 451 l 172 47 l 28 190 "},"«":{"ha":1031,"x_min":0,"x_max":0,"o":"m 361 454 l 550 192 l 407 46 l 28 451 l 406 856 l 550 713 m 814 454 l 1003 192 l 860 46 l 481 451 l 858 856 l 1003 713 "},"»":{"ha":1031,"x_min":0,"x_max":0,"o":"m 669 449 l 481 711 l 624 857 l 1003 451 l 625 47 l 481 190 m 217 449 l 28 711 l 171 857 l 550 451 l 172 47 l 28 190 "}," ":{"ha":343,"x_min":0,"x_max":0,"o":""},"‘":{"ha":410,"x_min":0,"x_max":0,"o":"m 185 1072 l 379 1072 l 271 701 l 33 701 "},"“":{"ha":726,"x_min":0,"x_max":0,"o":"m 185 1072 l 379 1072 l 271 701 l 33 701 m 499 1072 l 693 1072 l 585 701 l 347 701 "},"”":{"ha":726,"x_min":0,"x_max":0,"o":"m 542 690 l 347 690 l 456 1061 l 693 1061 m 228 690 l 33 690 l 142 1061 l 379 1061 "},"◊":{"ha":967,"x_min":0,"x_max":0,"o":"m 13 350 b 293 968 94 551 211 810 l 697 968 b 958 350 764 786 868 543 b 697 -267 868 158 764 -85 l 293 -267 b 13 350 211 -108 94 150 m 497 -82 b 682 350 518 -19 643 254 b 497 783 643 447 518 721 l 463 783 b 278 350 435 722 315 449 b 463 -82 315 253 435 -21 "},"ﬄ":{"ha":1319,"x_min":0,"x_max":0,"o":"m 1224 217 b 1265 36 1224 149 1238 88 l 1032 -36 b 969 210 992 19 969 107 l 969 793 b 882 801 940 797 907 801 b 793 722 814 801 793 779 l 793 714 l 919 714 l 919 497 l 793 497 l 793 0 l 539 0 l 539 497 l 363 497 l 363 0 l 108 0 l 108 497 l -4 497 l -4 714 l 108 714 l 108 742 b 393 1014 108 956 238 1014 b 647 968 472 1014 572 994 b 889 1014 707 1001 788 1014 b 1224 975 1006 1014 1107 1001 m 539 714 l 539 742 b 542 792 539 760 539 776 b 451 801 511 797 478 801 b 363 722 383 801 363 779 l 363 714 "},"Đ":{"ha":1069,"x_min":0,"x_max":0,"o":"m 35 579 l 106 579 l 106 968 l 544 968 b 1008 490 857 968 1008 868 b 544 0 1008 113 857 0 l 106 0 l 106 401 l 35 401 m 725 486 b 510 735 725 718 688 735 l 371 735 l 371 579 l 588 579 l 588 401 l 371 401 l 371 235 l 510 235 b 725 486 688 235 725 258 "},"℮":{"ha":1017,"x_min":0,"x_max":0,"o":"m 842 11 b 557 -19 767 -7 649 -19 b 61 497 243 -19 61 99 b 515 992 61 889 229 992 b 963 372 846 992 983 799 l 347 372 b 557 224 358 240 414 224 b 794 250 614 224 751 236 m 515 746 b 349 617 403 746 360 733 l 681 617 b 515 746 668 733 626 746 "},"":{"ha":651,"x_min":0,"x_max":0,"o":"m 361 1038 l 144 1217 l 397 1217 l 569 1038 "},"@":{"ha":1314,"x_min":0,"x_max":0,"o":"m 607 678 b 282 379 350 678 282 642 b 657 44 282 97 347 44 b 1039 435 969 44 1039 121 b 1013 656 1039 511 1029 611 l 1225 656 b 1250 426 1240 596 1250 506 b 660 -157 1250 -19 1078 -157 b 64 371 233 -157 64 -44 b 611 879 64 785 281 879 b 969 481 883 879 969 813 b 636 132 969 174 907 132 b 356 365 408 132 356 181 b 604 596 356 551 411 596 b 742 583 656 596 710 590 b 607 678 740 654 726 678 m 661 431 b 590 372 610 431 590 424 b 671 314 590 324 601 314 b 742 368 719 314 742 324 l 742 425 b 661 431 717 429 682 431 "},"‰":{"ha":2083,"x_min":0,"x_max":0,"o":"m 1164 968 l 521 0 l 296 0 l 938 968 m 319 992 b 613 672 538 992 613 925 b 319 339 613 415 538 339 b 28 672 101 339 28 415 b 319 992 28 925 101 992 m 319 513 b 392 672 382 513 392 526 b 319 821 392 808 382 821 b 246 672 257 821 246 808 b 319 513 246 526 257 513 m 1147 633 b 1440 314 1365 633 1440 567 b 1147 -19 1440 57 1365 -19 b 856 314 929 -19 856 57 b 1147 633 856 567 929 633 m 1147 154 b 1219 314 1210 154 1219 168 b 1147 463 1219 450 1210 463 b 1074 314 1085 463 1074 450 b 1147 154 1074 168 1085 154 m 1763 633 b 2056 314 1981 633 2056 567 b 1763 -19 2056 57 1981 -19 b 1471 314 1544 -19 1471 57 b 1763 633 1471 567 1544 633 m 1763 154 b 1835 314 1825 154 1835 168 b 1763 463 1835 450 1825 463 b 1689 314 1700 463 1689 450 b 1763 154 1689 168 1700 154 "},"&":{"ha":1158,"x_min":0,"x_max":0,"o":"m 835 0 b 786 65 818 22 801 44 b 438 -19 682 13 563 -19 b 51 250 135 -19 51 51 b 322 490 51 408 138 482 b 111 718 149 504 111 578 b 479 992 111 900 168 992 b 847 743 772 992 847 925 b 607 518 847 603 781 532 b 811 397 660 515 735 468 b 842 544 831 439 842 488 l 1118 544 b 978 211 1118 421 1065 306 b 1139 0 1026 150 1079 81 m 440 396 b 333 289 364 396 333 363 b 439 196 333 215 354 196 b 646 239 510 196 582 210 b 440 396 561 343 490 396 m 474 600 b 579 688 542 600 579 619 b 481 772 579 763 549 772 b 379 688 410 772 379 763 b 474 600 379 619 403 600 "},"Л":{"ha":1032,"x_min":0,"x_max":0,"o":"m 468 735 b 308 0 444 508 401 267 l 28 0 b 224 968 122 288 208 615 l 926 968 l 926 0 l 663 0 l 663 735 "},"У":{"ha":929,"x_min":0,"x_max":0,"o":"m 481 549 b 654 968 549 692 614 851 l 965 968 b 489 0 839 646 642 260 l 149 0 b 314 256 199 67 269 176 b -35 968 242 436 82 776 l 288 968 b 481 549 350 857 424 694 "},"Ф":{"ha":1192,"x_min":0,"x_max":0,"o":"m 721 968 l 721 867 b 1147 486 1050 847 1147 744 b 721 106 1147 226 1049 125 l 721 0 l 456 0 l 456 104 b 44 486 131 124 44 225 b 456 867 44 746 131 849 l 456 968 m 872 486 b 721 651 872 614 857 647 l 721 319 b 872 486 857 324 872 358 m 314 486 b 456 319 314 361 335 325 l 456 650 b 314 486 333 646 314 613 "},"Ю":{"ha":1404,"x_min":0,"x_max":0,"o":"m 938 992 b 1343 497 1188 992 1343 889 b 938 -19 1343 99 1188 -19 b 529 386 713 -19 553 76 l 371 386 l 371 0 l 106 0 l 106 968 l 371 968 l 371 633 l 531 633 b 938 992 561 914 719 992 m 939 226 b 1067 497 1050 226 1067 251 b 939 749 1067 729 1050 749 b 804 497 829 749 804 729 b 939 226 804 251 829 226 "},"б":{"ha":814,"x_min":0,"x_max":0,"o":"m 317 344 b 406 178 317 193 340 178 b 504 346 478 178 504 183 b 404 490 504 471 483 490 b 317 344 329 490 317 463 m 317 633 b 478 701 354 681 418 701 b 758 353 650 701 758 640 b 397 -19 758 61 647 -19 b 63 428 193 -19 63 38 b 439 989 63 903 158 969 b 724 1039 556 997 647 1011 l 724 822 b 457 779 665 799 579 789 b 317 633 351 771 328 721 "},"в":{"ha":846,"x_min":0,"x_max":0,"o":"m 486 183 b 529 228 511 183 529 190 b 481 275 529 269 510 275 l 342 275 l 342 183 m 342 447 l 482 447 b 517 488 503 447 517 451 b 482 531 517 524 503 531 l 342 531 m 596 372 b 790 189 754 367 790 306 b 568 0 790 43 703 0 l 88 0 l 88 714 l 568 714 b 778 542 733 714 778 661 b 596 372 778 438 744 382 "},"ы":{"ha":1183,"x_min":0,"x_max":0,"o":"m 486 174 b 529 233 511 174 529 196 b 481 296 529 275 510 296 l 342 296 l 342 174 m 568 482 b 790 238 703 482 790 394 b 568 0 790 57 703 0 l 88 0 l 88 714 l 342 714 l 342 482 m 1096 714 l 842 714 l 842 0 l 1096 0 "},"п":{"ha":860,"x_min":0,"x_max":0,"o":"m 342 0 l 88 0 l 88 714 l 772 714 l 772 0 l 518 0 l 518 497 l 342 497 "},"и":{"ha":878,"x_min":0,"x_max":0,"o":"m 342 385 b 536 714 401 453 488 614 l 790 714 l 790 0 l 536 0 l 536 314 b 342 0 476 196 408 89 l 88 0 l 88 714 l 342 714 "},"д":{"ha":996,"x_min":0,"x_max":0,"o":"m 851 714 l 851 217 l 996 217 l 940 -214 l 732 -214 l 732 0 l 265 0 l 265 -214 l 56 -214 l 0 217 l 139 217 b 222 714 182 392 213 564 m 451 497 b 404 217 447 422 431 322 l 597 217 l 597 497 "},"м":{"ha":1142,"x_min":0,"x_max":0,"o":"m 582 393 b 719 714 629 513 672 617 l 1054 714 l 1054 0 l 804 0 l 804 410 b 654 33 760 314 690 135 l 479 33 b 339 410 449 131 381 318 l 339 0 l 88 0 l 88 714 l 438 714 b 582 393 490 615 532 511 "},"Ћ":{"ha":1093,"x_min":0,"x_max":0,"o":"m 1015 0 l 761 0 l 761 297 b 661 400 761 385 708 400 b 585 376 622 400 588 392 l 585 0 l 318 0 l 318 735 l 0 735 l 0 968 l 903 968 l 903 735 l 585 735 l 585 583 b 769 624 640 604 713 624 b 1015 308 910 624 1015 581 "},"џ":{"ha":860,"x_min":0,"x_max":0,"o":"m 342 217 l 518 217 l 518 714 l 772 714 l 772 0 l 546 0 l 517 -267 l 346 -267 l 317 0 l 88 0 l 88 714 l 342 714 "},"я":{"ha":885,"x_min":0,"x_max":0,"o":"m 543 518 l 397 518 b 351 460 371 518 351 501 b 399 401 351 415 375 401 l 543 401 m 275 296 b 76 504 124 307 76 401 b 306 714 76 624 138 714 l 797 714 l 797 0 l 543 0 l 543 208 l 460 208 b 311 0 386 208 356 171 l 21 0 b 275 296 96 226 147 279 "},"А":{"ha":967,"x_min":0,"x_max":0,"o":"m 697 968 b 1031 0 783 674 931 249 l 738 0 b 668 186 718 46 693 113 l 293 186 b 243 0 272 113 256 47 l -44 0 b 293 968 28 254 190 714 m 463 735 b 360 415 435 657 397 539 l 592 415 b 497 735 553 538 518 656 "},"В":{"ha":1021,"x_min":0,"x_max":0,"o":"m 604 226 b 654 306 633 226 654 243 b 599 390 654 372 632 390 l 371 390 l 371 226 m 371 606 l 600 606 b 640 672 624 606 640 613 b 600 742 640 729 624 742 l 371 742 m 715 506 b 942 257 900 497 942 415 b 682 0 942 58 839 0 l 106 0 l 106 968 l 682 968 b 926 735 875 968 926 897 b 715 506 926 594 889 519 "},"Е":{"ha":876,"x_min":0,"x_max":0,"o":"m 847 968 l 847 735 l 371 735 l 371 613 l 714 613 l 714 383 l 371 383 l 371 233 l 847 233 l 847 0 l 106 0 l 106 968 "},"З":{"ha":900,"x_min":0,"x_max":0,"o":"m 249 613 l 419 613 b 517 678 485 613 517 618 b 336 749 517 735 481 749 b 103 725 279 749 153 739 l 56 958 b 407 992 146 978 296 992 b 801 735 700 992 801 929 b 592 506 801 594 765 519 b 821 257 775 497 821 415 b 407 -19 821 51 697 -19 b 53 11 304 -19 144 -7 l 100 250 b 336 226 149 236 279 226 b 531 304 490 226 531 242 b 426 383 531 371 490 383 l 249 383 "},"И":{"ha":1136,"x_min":0,"x_max":0,"o":"m 1031 0 l 769 0 l 769 576 b 450 0 668 381 560 186 l 106 0 l 106 968 l 365 968 l 365 371 b 707 968 481 565 599 768 l 1031 968 "},"К":{"ha":988,"x_min":0,"x_max":0,"o":"m 697 0 b 371 443 592 342 503 426 l 371 0 l 106 0 l 106 968 l 371 968 l 371 507 b 672 968 444 599 568 776 l 985 968 b 706 535 842 718 743 575 b 1013 0 797 494 894 410 "},"М":{"ha":1338,"x_min":0,"x_max":0,"o":"m 682 456 b 897 968 743 618 835 836 l 1232 968 l 1232 0 l 975 0 l 975 586 b 767 72 917 456 818 210 l 554 72 b 361 586 508 204 417 463 l 361 0 l 106 0 l 106 968 l 456 968 b 682 456 524 833 617 617 "},"Н":{"ha":1054,"x_min":0,"x_max":0,"o":"m 371 0 l 106 0 l 106 968 l 371 968 l 371 633 l 685 633 l 685 968 l 949 968 l 949 0 l 685 0 l 685 386 l 371 386 "},"О":{"ha":1085,"x_min":0,"x_max":0,"o":"m 543 992 b 1024 497 856 992 1024 889 b 543 -19 1024 99 856 -19 b 61 497 229 -19 61 99 b 543 992 61 889 229 992 m 543 224 b 740 494 721 224 740 249 b 543 746 740 726 721 746 b 344 494 364 746 344 726 b 543 224 344 249 364 224 "},"П":{"ha":1054,"x_min":0,"x_max":0,"o":"m 371 0 l 106 0 l 106 968 l 949 968 l 949 0 l 685 0 l 685 735 l 371 735 "},"Р":{"ha":967,"x_min":0,"x_max":0,"o":"m 579 500 b 654 619 619 500 654 525 b 581 742 654 713 626 742 l 371 742 l 371 500 m 106 0 l 106 968 l 682 968 b 944 619 875 968 944 829 b 682 285 944 436 856 285 l 371 285 l 371 0 "},"С":{"ha":810,"x_min":0,"x_max":0,"o":"m 61 493 b 525 992 61 889 211 992 b 810 958 617 992 736 978 l 763 725 b 588 749 719 739 644 749 b 344 490 410 749 344 729 b 588 226 344 251 410 226 b 763 250 644 226 719 236 l 810 11 b 525 -19 735 -7 617 -19 b 61 493 211 -19 61 99 "},"Т":{"ha":903,"x_min":0,"x_max":0,"o":"m 318 0 l 318 735 l 0 735 l 0 968 l 903 968 l 903 735 l 585 735 l 585 0 "},"Х":{"ha":974,"x_min":0,"x_max":0,"o":"m 321 968 b 497 726 364 910 426 824 b 649 968 560 818 618 910 l 982 968 b 664 492 900 839 782 664 b 999 0 800 297 935 101 l 664 0 b 496 254 625 63 565 154 b 306 0 425 157 361 69 l -28 0 b 329 489 33 76 183 282 b -29 968 188 685 43 879 l 321 968 "},"Я":{"ha":1025,"x_min":0,"x_max":0,"o":"m 654 742 l 431 742 b 376 638 399 742 376 713 b 432 536 376 560 404 536 l 654 536 m 310 410 b 81 685 136 424 81 544 b 343 968 81 847 150 968 l 919 968 l 919 0 l 654 0 l 654 321 l 529 321 b 333 0 432 321 401 274 l 28 0 b 310 410 136 353 199 399 "},"ј":{"ha":426,"x_min":0,"x_max":0,"o":"m 214 1036 b 356 919 321 1036 356 1021 b 214 789 356 808 321 789 b 72 919 107 789 72 808 b 214 1036 72 1021 107 1036 m 342 714 l 88 714 l 88 1 b -11 -79 88 -49 54 -79 l -11 -282 b 342 10 246 -282 342 -204 "},"Ѕ":{"ha":863,"x_min":0,"x_max":0,"o":"m 758 718 b 483 749 694 733 600 749 b 329 686 349 749 329 725 b 508 606 329 636 349 625 b 824 307 726 578 824 493 b 382 -19 824 57 704 -19 b 54 29 254 -19 133 0 l 107 256 b 378 224 169 240 264 224 b 536 288 514 224 536 239 b 339 371 536 336 518 350 b 47 644 142 394 47 464 b 486 992 47 894 181 992 b 810 943 613 992 733 972 "},"ѕ":{"ha":664,"x_min":0,"x_max":0,"o":"m 571 511 b 358 539 515 525 432 539 b 283 500 308 539 283 538 b 399 456 283 474 294 471 b 631 233 558 432 631 385 b 296 -19 631 32 472 -19 b 43 19 217 -19 107 -4 l 89 207 b 283 181 143 193 214 181 b 389 221 357 181 389 185 b 257 268 389 247 369 257 b 42 483 115 282 42 325 b 369 735 42 685 193 735 b 615 694 449 735 553 718 "},"а":{"ha":803,"x_min":0,"x_max":0,"o":"m 725 36 b 369 -19 624 1 479 -19 b 58 217 124 -19 58 29 b 336 449 58 417 163 449 b 485 432 382 449 438 442 b 339 526 485 507 471 526 b 113 497 251 526 174 514 l 76 696 b 406 735 168 718 297 735 b 725 457 621 735 725 667 m 485 275 b 394 282 460 281 428 282 b 318 224 339 282 318 275 b 390 164 318 174 329 164 b 485 179 422 164 458 169 "},"е":{"ha":776,"x_min":0,"x_max":0,"o":"m 678 19 b 413 -19 607 -4 500 -19 b 56 361 217 -19 56 68 b 397 735 56 651 194 735 b 728 276 646 735 754 664 l 315 276 b 446 189 318 201 363 189 b 642 208 497 189 592 197 m 418 547 b 317 458 349 547 329 525 l 514 458 b 418 547 513 532 486 547 "},"о":{"ha":822,"x_min":0,"x_max":0,"o":"m 410 -19 b 56 361 176 -19 56 68 b 410 735 56 653 179 735 b 767 361 644 735 767 653 b 410 -19 767 68 646 -19 m 410 540 b 310 357 331 540 310 525 b 410 175 310 194 331 175 b 511 357 490 175 511 194 b 410 540 511 525 490 540 "},"р":{"ha":839,"x_min":0,"x_max":0,"o":"m 342 224 b 425 186 342 204 376 186 b 529 350 504 186 529 226 b 422 525 529 500 503 525 b 342 513 396 525 358 519 m 88 686 b 422 735 164 714 303 735 b 782 356 672 735 782 647 b 486 -19 782 68 647 -19 b 342 4 426 -19 383 -8 l 342 -267 l 88 -267 "},"с":{"ha":658,"x_min":0,"x_max":0,"o":"m 647 15 b 415 -19 589 -7 490 -19 b 56 361 204 -19 56 68 b 415 735 56 651 206 735 b 647 704 494 735 590 724 l 597 493 b 440 521 560 504 497 521 b 310 357 356 521 310 511 b 440 196 310 211 356 196 b 597 226 501 196 560 213 "},"х":{"ha":722,"x_min":0,"x_max":0,"o":"m 753 714 b 513 363 704 636 608 497 b 754 0 606 226 700 88 l 479 0 b 372 165 456 42 417 100 b 247 0 318 93 274 32 l -26 0 b 242 356 25 61 135 208 b -22 714 140 500 36 642 l 264 714 b 378 554 290 679 333 618 b 481 714 424 621 460 679 "},"Б":{"ha":1019,"x_min":0,"x_max":0,"o":"m 604 226 b 654 306 633 226 654 243 b 599 390 654 372 632 390 l 371 390 l 371 226 m 882 735 l 371 735 l 371 606 l 682 606 b 942 303 839 606 942 513 b 682 0 942 58 839 0 l 106 0 l 106 968 l 882 968 "},"Г":{"ha":772,"x_min":0,"x_max":0,"o":"m 106 0 l 106 968 l 813 968 l 813 735 l 371 735 l 371 0 "},"Ж":{"ha":1471,"x_min":0,"x_max":0,"o":"m -25 0 b 275 535 93 410 183 494 b 3 968 238 575 146 718 l 315 968 b 603 508 418 778 533 601 l 603 968 l 868 968 l 868 508 b 1156 968 938 601 1053 778 l 1468 968 b 1196 535 1325 718 1233 575 b 1496 0 1288 494 1378 410 l 1181 0 b 868 443 1075 342 997 426 l 868 0 l 603 0 l 603 443 b 290 0 472 426 394 342 "},"Ь":{"ha":990,"x_min":0,"x_max":0,"o":"m 371 464 l 371 226 l 581 226 b 654 349 626 226 654 256 b 579 464 654 443 619 464 m 371 968 l 371 688 l 682 688 b 944 349 856 688 944 532 b 682 0 944 139 875 0 l 106 0 l 106 968 "},"Д":{"ha":1169,"x_min":0,"x_max":0,"o":"m 1001 247 l 1169 247 l 1138 -214 l 901 -214 l 901 0 l 282 0 l 282 -214 l 44 -214 l 13 247 l 174 247 b 299 968 238 471 288 707 l 1001 968 m 738 735 l 543 735 b 456 247 526 578 501 415 l 738 247 "},"Й":{"ha":1136,"x_min":0,"x_max":0,"o":"m 1031 968 l 707 968 b 365 371 599 768 481 565 l 365 968 l 106 968 l 106 0 l 450 0 b 769 576 560 186 668 381 l 769 0 l 1031 0 m 493 1210 b 568 1146 493 1157 518 1146 b 642 1210 615 1146 642 1157 l 792 1210 b 561 1004 792 1068 707 1004 b 332 1210 419 1004 332 1068 "},"№":{"ha":1738,"x_min":0,"x_max":0,"o":"m 1031 0 l 701 0 b 364 593 593 200 479 399 l 364 0 l 106 0 l 106 968 l 449 968 b 768 392 558 782 667 588 l 768 968 l 1031 968 m 1125 274 l 1654 274 l 1654 85 l 1125 85 m 1389 992 b 1682 672 1607 992 1682 925 b 1389 339 1682 415 1607 339 b 1097 672 1171 339 1097 415 b 1389 992 1097 925 1171 992 m 1389 513 b 1461 672 1451 513 1461 526 b 1389 821 1461 808 1451 821 b 1315 672 1326 821 1315 808 b 1389 513 1315 526 1326 513 "},"І":{"ha":476,"x_min":0,"x_max":0,"o":"m 371 968 l 371 0 l 106 0 l 106 968 "},"Ѓ":{"ha":772,"x_min":0,"x_max":0,"o":"m 371 0 l 371 735 l 813 735 l 813 968 l 106 968 l 106 0 m 306 1038 l 478 1217 l 731 1217 l 514 1038 "},"к":{"ha":868,"x_min":0,"x_max":0,"o":"m 571 0 b 342 314 486 228 426 289 l 342 0 l 88 0 l 88 714 l 342 714 l 342 371 b 560 714 390 440 474 569 l 850 714 b 626 386 743 529 657 415 b 861 0 693 358 754 300 "},"ќ":{"ha":868,"x_min":0,"x_max":0,"o":"m 571 0 b 342 314 486 228 426 289 l 342 0 l 88 0 l 88 714 l 342 714 l 342 371 b 560 714 390 440 474 569 l 850 714 b 626 386 743 529 657 415 b 861 0 693 358 754 300 m 311 789 l 483 968 l 736 968 l 519 789 "},"Ќ":{"ha":988,"x_min":0,"x_max":0,"o":"m 1013 0 b 706 535 894 410 797 494 b 985 968 743 575 842 718 l 672 968 b 371 507 568 776 444 599 l 371 968 l 106 968 l 106 0 l 371 0 l 371 443 b 697 0 503 426 592 342 m 394 1038 l 567 1217 l 819 1217 l 603 1038 "},"Ў":{"ha":929,"x_min":0,"x_max":0,"o":"m 481 549 b 288 968 424 694 350 857 l -35 968 b 314 256 82 776 242 436 b 149 0 269 176 199 67 l 489 0 b 965 968 642 260 839 646 l 654 968 b 481 549 614 851 549 692 m 406 1210 b 481 1146 406 1157 431 1146 b 554 1210 528 1146 554 1157 l 704 1210 b 474 1004 704 1068 619 1004 b 244 1210 332 1004 244 1068 "},"ў":{"ha":713,"x_min":0,"x_max":0,"o":"m 736 714 b 369 -267 646 393 513 33 l 92 -267 b 208 -36 131 -200 174 -112 b -33 714 139 218 49 483 l 222 714 b 357 261 274 571 318 417 b 486 714 406 410 451 564 m 285 968 b 360 904 285 915 310 904 b 433 968 407 904 433 915 l 583 968 b 353 763 583 826 499 763 b 124 968 211 763 124 826 "},"Ё":{"ha":876,"x_min":0,"x_max":0,"o":"m 106 968 l 106 0 l 847 0 l 847 233 l 371 233 l 371 383 l 714 383 l 714 613 l 371 613 l 371 735 l 847 735 l 847 968 m 304 1224 b 413 1124 386 1224 413 1210 b 304 1013 413 1029 386 1013 b 197 1124 224 1013 197 1029 b 304 1224 197 1210 224 1224 m 635 1224 b 742 1124 715 1224 742 1210 b 635 1013 742 1029 715 1013 b 526 1124 551 1013 526 1029 b 635 1224 526 1210 551 1224 "},"ё":{"ha":776,"x_min":0,"x_max":0,"o":"m 642 208 b 446 189 592 197 497 189 b 315 276 363 189 318 201 l 728 276 b 397 735 754 664 646 735 b 56 361 194 735 56 651 b 413 -19 56 68 217 -19 b 678 19 500 -19 607 -4 m 418 547 b 514 458 486 547 513 532 l 317 458 b 418 547 329 525 349 547 m 238 981 b 346 881 319 981 346 967 b 238 769 346 786 319 769 b 131 881 157 769 131 786 b 238 981 131 967 157 981 m 568 981 b 675 881 649 981 675 967 b 568 769 675 786 649 769 b 460 881 485 769 460 786 b 568 981 460 967 485 981 "},"і":{"ha":426,"x_min":0,"x_max":0,"o":"m 342 714 l 88 714 l 88 0 l 342 0 m 214 1036 b 356 919 321 1036 356 1021 b 214 789 356 808 321 789 b 72 919 107 789 72 808 b 214 1036 72 1021 107 1036 "},"Ј":{"ha":671,"x_min":0,"x_max":0,"o":"m 574 267 b 250 -19 574 46 408 -19 b 0 15 153 -19 69 -7 l 39 250 b 214 226 89 235 143 226 b 306 315 278 226 306 257 l 306 968 l 572 968 "},"Ы":{"ha":1393,"x_min":0,"x_max":0,"o":"m 371 464 l 371 226 l 581 226 b 654 349 626 226 654 256 b 579 464 654 443 619 464 m 371 968 l 371 688 l 682 688 b 944 349 856 688 944 532 b 682 0 944 139 875 0 l 106 0 l 106 968 m 1288 968 l 1288 0 l 1022 0 l 1022 968 "},"Э":{"ha":867,"x_min":0,"x_max":0,"o":"m 167 613 l 513 613 b 265 749 490 736 406 749 b 76 725 208 749 119 739 l 29 958 b 328 992 103 978 236 992 b 806 493 642 992 806 889 b 328 -19 806 99 642 -19 b 29 11 236 -19 104 -7 l 76 250 b 265 226 119 236 208 226 b 515 383 411 226 496 243 l 167 383 "},"Є":{"ha":867,"x_min":0,"x_max":0,"o":"m 700 383 l 351 383 b 601 226 371 243 456 226 b 790 250 658 226 747 236 l 838 11 b 539 -19 763 -7 631 -19 b 61 493 225 -19 61 99 b 539 992 61 889 225 992 b 838 958 631 992 764 978 l 790 725 b 601 749 747 739 658 749 b 354 613 461 749 376 736 l 700 613 "},"Ц":{"ha":1117,"x_min":0,"x_max":0,"o":"m 371 247 l 685 247 l 685 968 l 949 968 l 949 247 l 1117 247 l 1085 -214 l 849 -214 l 849 0 l 106 0 l 106 968 l 371 968 "},"Щ":{"ha":1513,"x_min":0,"x_max":0,"o":"m 371 247 l 593 247 l 593 968 l 858 968 l 858 247 l 1081 247 l 1081 968 l 1344 968 l 1344 247 l 1513 247 l 1481 -214 l 1244 -214 l 1244 0 l 106 0 l 106 968 l 371 968 "},"Ш":{"ha":1450,"x_min":0,"x_max":0,"o":"m 1344 0 l 106 0 l 106 968 l 371 968 l 371 247 l 593 247 l 593 968 l 858 968 l 858 247 l 1081 247 l 1081 968 l 1344 968 "},"Ъ":{"ha":1060,"x_min":0,"x_max":0,"o":"m 28 735 l 28 968 l 440 968 l 440 688 l 751 688 b 1014 349 925 688 1014 532 b 751 0 1014 139 944 0 l 175 0 l 175 735 m 440 464 l 440 226 l 650 226 b 724 349 696 226 724 256 b 649 464 724 443 689 464 "},"Ч":{"ha":1019,"x_min":0,"x_max":0,"o":"m 649 968 l 914 968 l 914 0 l 649 0 l 649 283 b 415 251 599 264 510 251 b 69 608 231 251 69 321 l 69 968 l 336 968 l 336 614 b 485 500 336 526 364 500 b 649 579 606 500 649 526 "},"є":{"ha":665,"x_min":0,"x_max":0,"o":"m 644 15 b 415 -19 586 -7 490 -19 b 56 361 218 -19 56 68 b 413 735 56 651 217 735 b 644 704 492 735 588 724 l 597 511 b 435 531 560 522 492 531 b 318 458 383 531 336 521 l 556 458 l 556 276 l 315 276 b 435 185 331 200 379 185 b 597 206 496 185 560 192 "},"э":{"ha":665,"x_min":0,"x_max":0,"o":"m 68 206 b 231 185 106 192 169 185 b 350 276 286 185 335 200 l 110 276 l 110 458 l 347 458 b 231 531 329 521 282 531 b 68 511 174 531 106 522 l 21 704 b 253 735 78 724 174 735 b 610 361 449 735 610 651 b 253 -19 610 68 450 -19 b 21 15 178 -19 79 -7 "},"Ї":{"ha":476,"x_min":0,"x_max":0,"o":"m 106 968 l 106 0 l 371 0 l 371 968 m 72 1224 b 181 1124 154 1224 181 1210 b 72 1013 181 1029 154 1013 b -35 1124 -8 1013 -35 1029 b 72 1224 -35 1210 -8 1224 m 403 1224 b 510 1124 483 1224 510 1210 b 403 1013 510 1029 483 1013 b 294 1124 319 1013 294 1029 b 403 1224 294 1210 319 1224 "},"ї":{"ha":426,"x_min":0,"x_max":0,"o":"m 342 0 l 88 0 l 88 714 l 342 714 m 49 981 b 157 881 131 981 157 967 b 49 769 157 786 131 769 b -58 881 -32 769 -58 786 b 49 981 -58 967 -32 981 m 379 981 b 486 881 460 981 486 967 b 379 769 486 786 460 769 b 271 881 296 769 271 786 b 379 981 271 967 296 981 "},"ћ":{"ha":850,"x_min":0,"x_max":0,"o":"m 33 957 l 88 957 l 88 1003 l 342 1003 l 342 957 l 457 957 l 457 788 l 342 788 l 342 694 b 526 735 397 715 469 735 b 772 419 667 735 772 692 l 772 0 l 518 0 l 518 408 b 418 511 518 496 465 511 b 342 485 378 511 342 503 l 342 0 l 88 0 l 88 788 l 33 788 "},"ж":{"ha":1279,"x_min":0,"x_max":0,"o":"m 7 0 b 244 386 108 300 181 358 b 18 714 215 415 118 529 l 306 714 b 513 376 383 574 463 447 l 513 714 l 767 714 l 767 376 b 974 714 815 447 896 574 l 1261 714 b 1035 386 1161 529 1064 415 b 1272 0 1099 358 1171 300 l 985 0 b 767 314 904 214 835 289 l 767 0 l 513 0 l 513 314 b 294 0 444 289 374 214 "},"Ђ":{"ha":1085,"x_min":0,"x_max":0,"o":"m 585 735 l 585 583 b 769 624 640 604 713 624 b 1029 235 928 624 1029 569 b 840 -271 1029 -60 942 -210 l 643 -107 b 761 224 719 -54 761 18 b 661 400 761 382 731 400 b 585 376 622 400 588 392 l 585 0 l 318 0 l 318 735 l 0 735 l 0 968 l 903 968 l 903 735 "},"ђ":{"ha":842,"x_min":0,"x_max":0,"o":"m 342 663 b 526 703 397 686 469 703 b 786 300 685 703 786 635 b 597 -271 786 6 699 -210 l 400 -107 b 518 289 476 -54 518 83 b 418 465 518 447 488 465 b 342 442 379 465 344 457 l 342 0 l 88 0 l 88 788 l 33 788 l 33 957 l 88 957 l 88 1003 l 342 1003 l 342 957 l 457 957 l 457 788 l 342 788 "},"Љ":{"ha":1547,"x_min":0,"x_max":0,"o":"m 468 721 b 308 0 444 494 401 267 l 28 0 b 224 968 122 288 208 615 l 928 968 l 928 683 l 1239 683 b 1501 349 1413 683 1501 532 b 1239 0 1501 139 1432 0 l 663 0 l 663 721 m 928 468 l 928 226 l 1138 226 b 1211 349 1183 226 1211 256 b 1136 468 1211 443 1176 468 "},"Њ":{"ha":1569,"x_min":0,"x_max":0,"o":"m 371 0 l 106 0 l 106 968 l 371 968 l 371 674 l 685 674 l 685 968 l 950 968 l 950 672 l 1261 672 b 1524 340 1435 672 1524 524 b 1261 0 1524 131 1454 0 l 685 0 l 685 449 l 371 449 m 950 449 l 950 226 l 1160 226 b 1233 340 1206 226 1233 247 b 1158 449 1233 435 1199 449 "},"Џ":{"ha":1054,"x_min":0,"x_max":0,"o":"m 643 0 l 614 -267 l 443 -267 l 414 0 l 106 0 l 106 968 l 371 968 l 371 247 l 685 247 l 685 968 l 949 968 l 949 0 "},"л":{"ha":860,"x_min":0,"x_max":0,"o":"m 383 497 b 300 0 372 321 342 139 l 36 0 b 143 714 92 207 128 483 l 772 714 l 772 0 l 518 0 l 518 497 "},"г":{"ha":624,"x_min":0,"x_max":0,"o":"m 342 0 l 88 0 l 88 714 l 624 714 l 624 497 l 342 497 "},"з":{"ha":740,"x_min":0,"x_max":0,"o":"m 219 454 l 332 454 b 410 486 394 454 410 461 b 319 525 410 515 399 525 b 81 492 218 525 142 508 l 35 707 b 325 735 121 724 193 735 b 678 543 607 735 678 697 b 511 372 678 433 643 382 b 693 186 647 365 693 304 b 325 -19 693 22 604 -19 b 32 6 204 -19 119 -8 l 78 231 b 318 192 129 213 231 192 b 422 236 408 192 422 203 b 332 275 422 271 393 275 l 219 275 "},"н":{"ha":860,"x_min":0,"x_max":0,"o":"m 342 475 l 518 475 l 518 714 l 772 714 l 772 0 l 518 0 l 518 258 l 342 258 l 342 0 l 88 0 l 88 714 l 342 714 "},"т":{"ha":679,"x_min":0,"x_max":0,"o":"m 467 0 l 213 0 l 213 497 l 0 497 l 0 714 l 679 714 l 679 497 l 467 497 "},"у":{"ha":713,"x_min":0,"x_max":0,"o":"m 736 714 b 369 -267 646 393 513 33 l 92 -267 b 208 -36 131 -200 174 -112 b -33 714 139 218 49 483 l 222 714 b 357 261 274 571 318 417 b 486 714 406 410 451 564 "},"ф":{"ha":1157,"x_min":0,"x_max":0,"o":"m 451 1003 l 706 1003 l 706 732 b 768 735 719 735 742 735 b 1100 356 1018 735 1100 647 b 832 -19 1100 68 993 -19 b 706 4 772 -19 736 -10 l 706 -267 l 451 -267 l 451 4 b 325 -19 421 -10 385 -19 b 57 356 164 -19 57 68 b 389 735 57 647 139 735 b 451 732 415 735 438 735 m 386 186 b 451 221 433 186 451 203 l 451 518 b 389 525 435 524 415 525 b 296 350 322 525 296 500 b 386 186 296 226 326 186 m 771 186 b 861 350 831 186 861 226 b 768 525 861 500 835 525 b 706 518 742 525 722 524 l 706 221 b 771 186 706 203 724 186 "},"й":{"ha":878,"x_min":0,"x_max":0,"o":"m 342 385 b 536 714 401 453 488 614 l 790 714 l 790 0 l 536 0 l 536 314 b 342 0 476 196 408 89 l 88 0 l 88 714 l 342 714 m 365 968 b 440 904 365 915 390 904 b 514 968 488 904 514 915 l 664 968 b 433 763 664 826 579 763 b 204 968 292 763 204 826 "},"ь":{"ha":846,"x_min":0,"x_max":0,"o":"m 486 174 b 529 235 511 174 529 197 b 481 296 529 276 510 296 l 342 296 l 342 174 m 568 482 b 790 238 703 482 790 394 b 568 0 790 57 703 0 l 88 0 l 88 714 l 342 714 l 342 482 "},"ъ":{"ha":874,"x_min":0,"x_max":0,"o":"m 596 482 b 818 238 731 482 818 394 b 596 0 818 57 731 0 l 115 0 l 115 497 l 14 497 l 14 714 l 369 714 l 369 482 m 514 174 b 557 235 539 174 557 197 b 508 296 557 276 538 296 l 369 296 l 369 174 "},"ю":{"ha":1235,"x_min":0,"x_max":0,"o":"m 822 -19 b 474 258 618 -19 500 47 l 342 258 l 342 0 l 88 0 l 88 714 l 342 714 l 342 475 l 475 475 b 822 735 506 675 625 735 b 1179 361 1057 735 1179 653 b 822 -19 1179 68 1058 -19 m 822 540 b 722 357 743 540 722 525 b 822 175 722 194 743 175 b 924 357 903 175 924 194 b 822 540 924 525 903 540 "},"ц":{"ha":960,"x_min":0,"x_max":0,"o":"m 960 217 l 903 -214 l 694 -214 l 694 0 l 88 0 l 88 714 l 342 714 l 342 217 l 518 217 l 518 714 l 772 714 l 772 217 "},"щ":{"ha":1390,"x_min":0,"x_max":0,"o":"m 1390 217 l 1333 -214 l 1125 -214 l 1125 0 l 88 0 l 88 714 l 342 714 l 342 217 l 518 217 l 518 714 l 772 714 l 772 217 l 949 217 l 949 714 l 1203 714 l 1203 217 "},"ч":{"ha":814,"x_min":0,"x_max":0,"o":"m 42 714 l 296 714 l 296 525 b 396 422 296 438 349 422 b 472 449 436 422 472 431 l 472 714 l 726 714 l 726 0 l 472 0 l 472 239 b 288 199 417 218 344 199 b 42 514 147 199 42 242 "},"ш":{"ha":1290,"x_min":0,"x_max":0,"o":"m 1203 0 l 88 0 l 88 714 l 342 714 l 342 217 l 518 217 l 518 714 l 772 714 l 772 217 l 949 217 l 949 714 l 1203 714 "},"њ":{"ha":1276,"x_min":0,"x_max":0,"o":"m 999 482 b 1221 238 1133 482 1221 394 b 999 0 1221 57 1133 0 l 518 0 l 518 296 l 342 296 l 342 0 l 88 0 l 88 714 l 342 714 l 342 482 l 518 482 l 518 714 l 772 714 l 772 482 m 917 174 b 960 236 942 174 960 199 b 911 296 960 278 940 296 l 772 296 l 772 174 "},"љ":{"ha":1276,"x_min":0,"x_max":0,"o":"m 383 497 b 300 0 372 321 342 139 l 36 0 b 143 714 92 207 128 483 l 772 714 l 772 482 l 999 482 b 1221 238 1133 482 1221 394 b 999 0 1221 57 1133 0 l 518 0 l 518 497 m 917 174 b 960 235 942 174 960 197 b 911 296 960 276 940 296 l 772 296 l 772 174 "},"ѓ":{"ha":624,"x_min":0,"x_max":0,"o":"m 342 0 l 88 0 l 88 714 l 624 714 l 624 497 l 342 497 m 197 789 l 369 968 l 622 968 l 406 789 "},"Ґ":{"ha":772,"x_min":0,"x_max":0,"o":"m 106 968 l 583 968 l 642 1235 l 813 1235 l 813 735 l 371 735 l 371 0 l 106 0 "},"ґ":{"ha":624,"x_min":0,"x_max":0,"o":"m 422 714 l 481 968 l 624 968 l 624 497 l 342 497 l 342 0 l 88 0 l 88 714 "},"Š":{"ha":863,"x_min":0,"x_max":0,"o":"m 758 718 b 483 749 694 733 600 749 b 329 686 349 749 329 725 b 508 606 329 636 349 625 b 824 307 726 578 824 493 b 382 -19 824 57 704 -19 b 54 29 254 -19 133 0 l 107 256 b 378 224 169 240 264 224 b 536 288 514 224 536 239 b 339 371 536 336 518 350 b 47 644 142 394 47 464 b 486 992 47 894 181 992 b 810 943 613 992 733 972 m 454 1125 l 536 1217 l 742 1217 l 572 1038 l 333 1038 l 158 1217 l 369 1217 "},"":{"ha":822,"x_min":0,"x_max":0,"o":"m 596 714 b 842 0 660 497 768 183 l 582 0 b 533 131 568 32 550 79 l 265 131 b 231 0 251 79 239 33 l -26 0 b 222 714 26 188 147 526 m 386 519 b 321 313 365 465 343 392 l 472 313 b 411 519 444 399 426 464 "},"":{"ha":1189,"x_min":0,"x_max":0,"o":"m 1147 517 l 810 517 l 810 454 l 1054 454 l 1054 268 l 810 268 l 810 197 l 1147 197 l 1147 0 l 556 0 l 556 138 l 263 138 b 182 0 229 83 201 35 l -83 0 b 399 714 31 188 263 526 l 1147 714 m 556 319 l 556 542 l 521 542 b 378 319 482 485 428 400 "},"":{"ha":822,"x_min":0,"x_max":0,"o":"m 222 714 b -26 0 147 526 26 188 l 231 0 b 265 131 239 33 251 79 l 533 131 b 582 0 550 79 568 32 l 842 0 b 596 714 768 183 660 497 m 411 519 b 472 313 426 464 444 399 l 321 313 b 386 519 343 392 365 465 l 411 519 m 221 789 l 393 968 l 646 968 l 429 789 "},"":{"ha":822,"x_min":0,"x_max":0,"o":"m 596 714 b 842 0 660 497 768 183 l 582 0 b 533 131 568 32 550 79 l 265 131 b 231 0 251 79 239 33 l -26 0 b 222 714 26 188 147 526 m 386 519 b 321 313 365 465 343 392 l 472 313 b 411 519 444 399 426 464 m 376 789 l 160 968 l 413 968 l 585 789 "},"":{"ha":822,"x_min":0,"x_max":0,"o":"m 222 714 b -26 0 147 526 26 188 l 231 0 b 265 131 239 33 251 79 l 533 131 b 582 0 550 79 568 32 l 842 0 b 596 714 768 183 660 497 m 411 519 b 472 313 426 464 444 399 l 321 313 b 386 519 343 392 365 465 l 411 519 m 399 881 l 317 789 l 111 789 l 281 968 l 519 968 l 694 789 l 483 789 "},"":{"ha":822,"x_min":0,"x_max":0,"o":"m 222 714 b -26 0 147 526 26 188 l 231 0 b 265 131 239 33 251 79 l 533 131 b 582 0 550 79 568 32 l 842 0 b 596 714 768 183 660 497 m 411 519 b 472 313 426 464 444 399 l 321 313 b 386 519 343 392 365 465 l 411 519 m 239 981 b 347 881 321 981 347 967 b 239 769 347 786 321 769 b 132 881 158 769 132 786 b 239 981 132 967 158 981 m 569 981 b 676 881 650 981 676 967 b 569 769 676 786 650 769 b 461 881 486 769 461 786 b 569 981 461 967 486 981 "},"":{"ha":822,"x_min":0,"x_max":0,"o":"m 222 714 b -26 0 147 526 26 188 l 231 0 b 265 131 239 33 251 79 l 533 131 b 582 0 550 79 568 32 l 842 0 b 596 714 768 183 660 497 m 411 519 b 472 313 426 464 444 399 l 321 313 b 386 519 343 392 365 465 l 411 519 m 675 900 b 494 768 650 833 588 768 b 296 825 401 768 364 825 b 235 768 271 825 254 813 l 129 872 b 288 982 164 932 213 982 b 496 928 397 982 433 928 b 560 993 526 928 540 940 "},"":{"ha":822,"x_min":0,"x_max":0,"o":"m 596 714 b 842 0 660 497 768 183 l 582 0 b 533 131 568 32 550 79 l 265 131 b 231 0 251 79 239 33 l -26 0 b 222 714 26 188 147 526 m 386 519 b 321 313 365 465 343 392 l 472 313 b 411 519 444 399 426 464 m 399 1033 b 576 892 522 1033 576 1004 b 399 750 576 778 522 750 b 218 892 274 750 218 778 b 399 1033 218 1004 274 1033 m 399 939 b 339 890 347 939 339 926 b 399 843 339 853 347 843 b 457 890 449 843 457 854 b 399 939 457 928 449 939 "},"":{"ha":721,"x_min":0,"x_max":0,"o":"m 679 517 l 342 517 l 342 454 l 586 454 l 586 268 l 342 268 l 342 197 l 679 197 l 679 0 l 88 0 l 88 714 l 679 714 m 358 789 l 142 968 l 394 968 l 567 789 "},"":{"ha":721,"x_min":0,"x_max":0,"o":"m 679 517 l 342 517 l 342 454 l 586 454 l 586 268 l 342 268 l 342 197 l 679 197 l 679 0 l 88 0 l 88 714 l 679 714 m 222 789 l 394 968 l 647 968 l 431 789 "},"":{"ha":721,"x_min":0,"x_max":0,"o":"m 679 517 l 342 517 l 342 454 l 586 454 l 586 268 l 342 268 l 342 197 l 679 197 l 679 0 l 88 0 l 88 714 l 679 714 m 399 881 l 317 789 l 111 789 l 281 968 l 519 968 l 694 789 l 483 789 "},"":{"ha":721,"x_min":0,"x_max":0,"o":"m 679 517 l 342 517 l 342 454 l 586 454 l 586 268 l 342 268 l 342 197 l 679 197 l 679 0 l 88 0 l 88 714 l 679 714 m 232 981 b 340 881 314 981 340 967 b 232 769 340 786 314 769 b 125 881 151 769 125 786 b 232 981 125 967 151 981 m 563 981 b 669 881 643 981 669 967 b 563 769 669 786 643 769 b 454 881 479 769 454 786 b 563 981 454 967 479 981 "},"":{"ha":450,"x_min":0,"x_max":0,"o":"m 361 714 l 313 338 l 131 338 l 88 714 m 224 249 b 371 121 335 249 371 231 b 224 -19 371 1 335 -19 b 79 121 115 -19 79 1 b 224 249 79 231 115 249 "},"":{"ha":815,"x_min":0,"x_max":0,"o":"m 732 29 b 401 -19 636 0 517 -19 b 56 361 199 -19 56 68 b 429 735 56 651 219 735 b 689 704 508 735 632 724 l 628 504 b 440 532 590 515 525 532 b 310 357 356 532 310 511 b 426 185 310 211 356 185 b 515 203 456 185 494 192 l 515 249 l 411 249 l 411 442 l 732 442 "},"":{"ha":644,"x_min":0,"x_max":0,"o":"m 342 225 l 651 225 l 651 0 l 88 0 l 88 149 l 38 108 l 38 308 l 88 349 l 88 714 l 342 714 l 342 556 l 460 653 l 460 450 l 342 354 "},"":{"ha":878,"x_min":0,"x_max":0,"o":"m 342 322 b 536 0 401 254 488 100 l 790 0 l 790 714 l 536 714 l 536 400 b 336 714 476 518 403 625 l 88 714 l 88 0 l 342 0 m 722 900 b 542 768 697 833 635 768 b 343 825 449 768 411 825 b 282 768 318 825 301 813 l 176 872 b 335 982 211 932 260 982 b 543 928 444 982 481 928 b 607 993 574 928 588 940 "},"":{"ha":1114,"x_min":0,"x_max":0,"o":"m 1072 517 l 747 517 b 763 454 754 496 760 478 l 979 454 l 979 268 l 763 268 b 746 197 760 238 753 217 l 1072 197 l 1072 0 l 569 0 b 410 -19 524 -14 471 -19 b 56 361 176 -19 56 68 b 410 735 56 653 179 735 b 575 714 474 735 528 728 l 1072 714 m 410 540 b 310 357 331 540 310 525 b 410 175 310 194 331 175 b 511 357 490 175 511 194 b 410 540 511 525 490 540 "},"":{"ha":693,"x_min":0,"x_max":0,"o":"m 218 322 b 382 490 344 411 382 454 b 289 539 382 521 371 539 b 61 510 213 539 126 528 l 31 715 b 317 746 110 729 218 746 b 667 554 588 746 667 692 b 449 322 667 464 600 396 m 329 256 b 476 128 440 256 476 238 b 329 -12 476 8 440 -12 b 185 128 221 -12 185 8 b 329 256 185 238 221 256 "},"":{"ha":842,"x_min":0,"x_max":0,"o":"m 422 204 b 510 310 494 204 510 238 l 510 714 l 763 714 l 763 321 b 422 -19 763 67 672 -19 b 79 321 172 -19 79 67 l 79 714 l 332 714 l 332 310 b 422 204 332 238 350 204 m 421 881 l 339 789 l 133 789 l 303 968 l 542 968 l 717 789 l 506 789 "},"":{"ha":842,"x_min":0,"x_max":0,"o":"m 422 204 b 510 310 494 204 510 238 l 510 714 l 763 714 l 763 321 b 422 -19 763 67 672 -19 b 79 321 172 -19 79 67 l 79 714 l 332 714 l 332 310 b 422 204 332 238 350 204 m 250 789 l 422 968 l 675 968 l 458 789 "},"":{"ha":842,"x_min":0,"x_max":0,"o":"m 422 204 b 510 310 494 204 510 238 l 510 714 l 763 714 l 763 321 b 422 -19 763 67 672 -19 b 79 321 172 -19 79 67 l 79 714 l 332 714 l 332 310 b 422 204 332 238 350 204 m 257 981 b 365 881 339 981 365 967 b 257 769 365 786 339 769 b 150 881 176 769 150 786 b 257 981 150 967 176 981 m 588 981 b 694 881 668 981 694 967 b 588 769 694 786 668 769 b 479 881 504 769 479 786 b 588 981 479 967 504 981 "},"":{"ha":842,"x_min":0,"x_max":0,"o":"m 422 204 b 510 310 494 204 510 238 l 510 714 l 763 714 l 763 321 b 422 -19 763 67 672 -19 b 79 321 172 -19 79 67 l 79 714 l 332 714 l 332 310 b 422 204 332 238 350 204 m 357 789 l 140 968 l 393 968 l 565 789 "},"":{"ha":697,"x_min":0,"x_max":0,"o":"m 364 519 b 489 714 406 576 465 671 l 757 714 b 488 315 672 574 575 428 l 488 0 l 233 0 l 233 315 b -60 714 132 460 -1 642 l 225 714 b 364 519 258 672 322 583 "},"":{"ha":697,"x_min":0,"x_max":0,"o":"m 364 519 b 489 714 406 576 465 671 l 757 714 b 488 315 672 574 575 428 l 488 0 l 233 0 l 233 315 b -60 714 132 460 -1 642 l 225 714 b 364 519 258 672 322 583 m 186 789 l 358 968 l 611 968 l 394 789 "},"":{"ha":697,"x_min":0,"x_max":0,"o":"m 364 519 b 489 714 406 576 465 671 l 757 714 b 488 315 672 574 575 428 l 488 0 l 233 0 l 233 315 b -60 714 132 460 -1 642 l 225 714 b 364 519 258 672 322 583 m 203 981 b 311 881 285 981 311 967 b 203 769 311 786 285 769 b 96 881 122 769 96 786 b 203 981 96 967 122 981 m 533 981 b 640 881 614 981 640 967 b 533 769 640 786 614 769 b 425 881 450 769 425 786 b 533 981 425 967 450 981 "},"":{"ha":806,"x_min":0,"x_max":0,"o":"m 342 603 l 547 603 b 778 364 713 603 778 517 b 575 122 778 232 724 122 l 342 122 l 342 0 l 88 0 l 88 714 l 342 714 m 342 297 l 479 297 b 517 357 500 297 517 321 b 479 419 517 393 500 419 l 342 419 "},"":{"ha":654,"x_min":0,"x_max":0,"o":"m 569 267 b 250 -19 569 46 408 -19 b 0 15 153 -19 71 -7 l 40 225 b 215 201 92 210 146 201 b 315 290 281 201 315 232 l 315 714 l 569 714 "},"":{"ha":806,"x_min":0,"x_max":0,"o":"m 778 475 b 575 233 778 343 724 233 l 342 233 l 342 0 l 88 0 l 88 714 l 547 714 b 778 475 713 714 778 628 m 342 408 l 479 408 b 517 468 500 408 517 432 b 479 531 517 504 500 531 l 342 531 "},"":{"ha":842,"x_min":0,"x_max":0,"o":"m 422 204 b 510 310 494 204 510 238 l 510 714 l 763 714 l 763 321 b 422 -19 763 67 672 -19 b 79 321 172 -19 79 67 l 79 714 l 332 714 l 332 310 b 422 204 332 238 350 204 "},"":{"ha":721,"x_min":0,"x_max":0,"o":"m 679 517 l 342 517 l 342 454 l 586 454 l 586 268 l 342 268 l 342 197 l 679 197 l 679 0 l 88 0 l 88 714 l 679 714 "},"":{"ha":822,"x_min":0,"x_max":0,"o":"m 382 -19 b 56 361 190 -19 56 68 b 410 735 56 653 179 735 b 767 361 644 735 767 653 b 626 24 767 188 710 78 b 864 -253 689 3 736 -50 l 596 -253 b 382 -19 510 -103 443 -19 m 410 540 b 310 357 331 540 310 525 b 410 175 310 194 331 175 b 511 357 490 175 511 194 b 410 540 511 525 490 540 "},"":{"ha":822,"x_min":0,"x_max":0,"o":"m 840 714 l 726 586 b 767 361 753 531 767 458 b 410 -19 767 68 646 -19 b 214 14 332 -19 267 -8 l 201 0 l -15 0 l 97 126 b 56 361 69 183 56 260 b 410 735 56 653 179 735 b 611 700 490 735 558 725 l 624 714 m 410 540 b 310 363 331 540 310 525 l 463 533 b 410 540 449 539 432 540 m 410 175 b 511 346 488 175 510 193 l 361 179 b 410 175 374 175 390 175 "},"":{"ha":693,"x_min":0,"x_max":0,"o":"m 689 714 l 689 679 b 390 217 611 544 476 339 l 667 217 l 667 0 l 1 0 l 1 33 b 301 497 103 174 254 410 l 26 497 l 26 714 m 357 876 l 439 968 l 644 968 l 475 789 l 236 789 l 61 968 l 272 968 "},"":{"ha":664,"x_min":0,"x_max":0,"o":"m 571 511 b 358 539 515 525 432 539 b 283 500 308 539 283 538 b 399 456 283 474 294 471 b 631 233 558 432 631 385 b 296 -19 631 32 472 -19 b 43 19 217 -19 107 -4 l 89 207 b 283 181 143 193 214 181 b 389 221 357 181 389 185 b 257 268 389 247 369 257 b 42 483 115 282 42 325 b 369 735 42 685 193 735 b 615 694 449 735 553 718 m 350 876 l 432 968 l 638 968 l 468 789 l 229 789 l 54 968 l 265 968 "},"":{"ha":426,"x_min":0,"x_max":0,"o":"m 342 0 l 88 0 l 88 714 l 342 714 m 163 789 l -54 968 l 199 968 l 371 789 "},"":{"ha":426,"x_min":0,"x_max":0,"o":"m 342 0 l 88 0 l 88 714 l 342 714 m 50 789 l 222 968 l 475 968 l 258 789 "},"":{"ha":426,"x_min":0,"x_max":0,"o":"m 342 0 l 88 0 l 88 714 l 342 714 m 211 881 l 129 789 l -76 789 l 93 968 l 332 968 l 507 789 l 296 789 "},"":{"ha":426,"x_min":0,"x_max":0,"o":"m 342 0 l 88 0 l 88 714 l 342 714 m 51 981 b 160 881 133 981 160 967 b 51 769 160 786 133 769 b -56 881 -29 769 -56 786 b 51 981 -56 967 -29 981 m 382 981 b 489 881 463 981 489 967 b 382 769 489 786 463 769 b 274 881 299 769 274 786 b 382 981 274 967 299 981 "},"":{"ha":822,"x_min":0,"x_max":0,"o":"m 410 -19 b 56 361 176 -19 56 68 b 410 735 56 653 179 735 b 767 361 644 735 767 653 b 410 -19 767 68 646 -19 m 410 540 b 310 357 331 540 310 525 b 410 175 310 194 331 175 b 511 357 490 175 511 194 b 410 540 511 525 490 540 m 360 789 l 143 968 l 396 968 l 568 789 "},"":{"ha":822,"x_min":0,"x_max":0,"o":"m 410 -19 b 767 361 646 -19 767 68 b 410 735 767 653 644 735 b 56 361 179 735 56 653 b 410 -19 56 68 176 -19 m 410 540 b 511 357 490 540 511 525 b 410 175 511 194 490 175 b 310 357 331 175 310 194 b 410 540 310 525 331 540 m 249 789 l 421 968 l 674 968 l 457 789 "},"":{"ha":822,"x_min":0,"x_max":0,"o":"m 410 -19 b 767 361 646 -19 767 68 b 410 735 767 653 644 735 b 56 361 179 735 56 653 b 410 -19 56 68 176 -19 m 410 540 b 511 357 490 540 511 525 b 410 175 511 194 490 175 b 310 357 331 175 310 194 b 410 540 310 525 331 540 m 403 881 l 321 789 l 115 789 l 285 968 l 524 968 l 699 789 l 488 789 "},"":{"ha":822,"x_min":0,"x_max":0,"o":"m 410 -19 b 767 361 646 -19 767 68 b 410 735 767 653 644 735 b 56 361 179 735 56 653 b 410 -19 56 68 176 -19 m 410 540 b 511 357 490 540 511 525 b 410 175 511 194 490 175 b 310 357 331 175 310 194 b 410 540 310 525 331 540 m 682 900 b 501 768 657 833 594 768 b 303 825 408 768 371 825 b 242 768 278 825 261 813 l 136 872 b 294 982 171 932 219 982 b 503 928 404 982 440 928 b 567 993 533 928 547 940 "},"":{"ha":822,"x_min":0,"x_max":0,"o":"m 410 -19 b 767 361 646 -19 767 68 b 410 735 767 653 644 735 b 56 361 179 735 56 653 b 410 -19 56 68 176 -19 m 410 540 b 511 357 490 540 511 525 b 410 175 511 194 490 175 b 310 357 331 175 310 194 b 410 540 310 525 331 540 m 244 981 b 353 881 326 981 353 967 b 244 769 353 786 326 769 b 138 881 164 769 138 786 b 244 981 138 967 164 981 m 575 981 b 682 881 656 981 682 967 b 575 769 682 786 656 769 b 467 881 492 769 467 786 b 575 981 467 967 492 981 "},"":{"ha":658,"x_min":0,"x_max":0,"o":"m 647 15 b 415 -19 589 -7 490 -19 b 56 361 204 -19 56 68 b 415 735 56 651 206 735 b 647 704 494 735 590 724 l 597 493 b 440 521 560 504 497 521 b 310 357 356 521 310 511 b 440 196 310 211 356 196 b 597 226 501 196 560 213 "},"":{"ha":426,"x_min":0,"x_max":0,"o":"m 342 0 l 88 0 l 88 714 l 342 714 "},"":{"ha":822,"x_min":0,"x_max":0,"o":"m 410 -19 b 56 361 176 -19 56 68 b 410 735 56 653 179 735 b 767 361 644 735 767 653 b 410 -19 767 68 646 -19 m 410 540 b 310 357 331 540 310 525 b 410 175 310 194 331 175 b 511 357 490 175 511 194 b 410 540 511 525 490 540 "},"":{"ha":860,"x_min":0,"x_max":0,"o":"m 342 475 l 518 475 l 518 714 l 772 714 l 772 0 l 518 0 l 518 258 l 342 258 l 342 0 l 88 0 l 88 714 l 342 714 "},"":{"ha":679,"x_min":0,"x_max":0,"o":"m 467 0 l 213 0 l 213 497 l 0 497 l 0 714 l 679 714 l 679 497 l 467 497 "},"":{"ha":664,"x_min":0,"x_max":0,"o":"m 571 511 b 358 539 515 525 432 539 b 283 500 308 539 283 538 b 399 456 283 474 294 471 b 631 233 558 432 631 385 b 296 -19 631 32 472 -19 b 43 19 217 -19 107 -4 l 89 207 b 283 181 143 193 214 181 b 389 221 357 181 389 185 b 257 268 389 247 369 257 b 42 483 115 282 42 325 b 369 735 42 685 193 735 b 615 694 449 735 553 718 "},"":{"ha":868,"x_min":0,"x_max":0,"o":"m 342 0 l 88 0 l 88 714 l 342 714 m 868 0 b 631 390 753 238 660 368 b 850 714 661 419 743 529 l 560 714 b 342 378 446 521 372 410 b 578 0 369 361 443 238 "},"":{"ha":847,"x_min":0,"x_max":0,"o":"m 342 401 l 482 401 b 529 460 506 401 529 415 b 483 518 529 501 510 518 l 342 518 m 606 296 b 847 0 686 274 726 236 l 557 0 b 407 208 475 169 440 208 l 342 208 l 342 0 l 88 0 l 88 714 l 575 714 b 790 504 743 714 790 624 b 606 296 790 401 757 307 "},"":{"ha":744,"x_min":0,"x_max":0,"o":"m 247 714 b 382 261 299 571 343 417 b 511 714 431 410 476 564 l 761 714 b 515 0 696 490 606 224 l 218 0 b -8 714 147 256 74 483 "},"":{"ha":1176,"x_min":0,"x_max":0,"o":"m 583 351 b 490 0 564 249 517 82 l 193 0 b -33 714 122 256 49 483 l 222 714 b 357 268 274 571 318 424 b 481 714 393 382 451 599 l 700 714 b 821 268 735 601 794 386 b 950 714 869 417 915 564 l 1200 714 b 954 0 1133 490 1044 224 l 656 0 b 583 351 639 93 604 260 "},"":{"ha":878,"x_min":0,"x_max":0,"o":"m 342 0 l 88 0 l 88 714 l 336 714 b 536 400 403 625 476 518 l 536 714 l 790 714 l 790 0 l 536 0 b 342 322 488 100 401 254 "},"":{"ha":722,"x_min":0,"x_max":0,"o":"m 753 714 b 513 363 704 636 608 497 b 754 0 606 226 700 88 l 479 0 b 372 165 456 42 417 100 b 247 0 318 93 274 32 l -26 0 b 242 356 25 61 135 208 b -22 714 140 500 36 642 l 264 714 b 378 554 290 679 333 618 b 481 714 424 621 460 679 "},"":{"ha":1142,"x_min":0,"x_max":0,"o":"m 582 393 b 719 714 629 513 672 617 l 1054 714 l 1054 0 l 804 0 l 804 410 b 654 33 760 314 690 135 l 479 33 b 339 410 449 131 381 318 l 339 0 l 88 0 l 88 714 l 438 714 b 582 393 490 615 532 511 "},"":{"ha":693,"x_min":0,"x_max":0,"o":"m 689 714 l 689 679 b 390 217 611 544 476 339 l 667 217 l 667 0 l 1 0 l 1 33 b 301 497 103 174 254 410 l 26 497 l 26 714 "},"":{"ha":644,"x_min":0,"x_max":0,"o":"m 342 225 l 651 225 l 651 0 l 88 0 l 88 714 l 342 714 "},"":{"ha":846,"x_min":0,"x_max":0,"o":"m 486 183 b 529 228 511 183 529 190 b 481 275 529 269 510 275 l 342 275 l 342 183 m 342 447 l 482 447 b 517 488 503 447 517 451 b 482 531 517 524 503 531 l 342 531 m 596 372 b 790 189 754 367 790 306 b 568 0 790 43 703 0 l 88 0 l 88 714 l 568 714 b 778 542 733 714 778 661 b 596 372 778 438 744 382 "},"":{"ha":686,"x_min":0,"x_max":0,"o":"m 679 517 l 342 517 l 342 417 l 586 417 l 586 226 l 342 226 l 342 0 l 88 0 l 88 714 l 679 714 "},"":{"ha":850,"x_min":0,"x_max":0,"o":"m 447 714 b 794 360 682 714 794 638 b 447 0 794 82 683 0 l 88 0 l 88 714 m 342 531 l 342 183 l 413 183 b 539 357 493 183 539 203 b 413 531 539 515 493 531 "},"":{"ha":850,"x_min":0,"x_max":0,"o":"m 36 447 l 88 447 l 88 714 l 447 714 b 794 360 682 714 794 638 b 447 0 794 82 683 0 l 88 0 l 88 278 l 36 278 m 342 531 l 342 447 l 411 447 l 411 278 l 342 278 l 342 183 l 413 183 b 539 357 493 183 539 203 b 413 531 539 515 493 531 "},"":{"ha":450,"x_min":0,"x_max":0,"o":"m 89 0 l 138 378 l 319 378 l 363 0 m 226 467 b 79 594 115 467 79 485 b 226 735 79 714 115 735 b 371 594 335 735 371 714 b 226 467 371 485 335 467 "},"":{"ha":693,"x_min":0,"x_max":0,"o":"m 249 400 b 31 168 97 326 31 258 b 382 -19 31 31 111 -19 b 667 7 501 -19 588 -7 l 636 213 b 408 183 571 194 485 183 b 315 232 326 183 315 201 b 479 400 315 268 353 311 l 249 400 m 368 467 b 221 594 257 467 221 485 b 368 735 221 714 257 735 b 513 594 476 735 513 714 b 368 467 513 485 476 467 "},"":{"ha":875,"x_min":0,"x_max":0,"o":"m 249 356 l 406 356 b 489 421 471 356 489 361 b 322 492 489 478 467 492 b 103 468 265 492 153 482 l 56 701 b 393 735 146 721 282 735 b 774 478 686 735 774 672 b 564 249 774 338 738 263 b 793 0 747 240 793 158 b 393 -276 793 -206 683 -276 b 53 -246 290 -276 144 -264 l 100 -7 b 322 -31 149 -21 265 -31 b 503 47 476 -31 503 -15 b 413 126 503 114 476 126 l 249 126 "},"":{"ha":875,"x_min":0,"x_max":0,"o":"m 8 0 l 8 90 b 403 714 117 274 292 558 l 729 714 l 729 204 l 850 204 l 850 0 l 729 0 l 729 -267 l 479 -267 l 479 0 m 479 471 b 318 204 424 392 356 272 l 479 204 "},"":{"ha":875,"x_min":0,"x_max":0,"o":"m 767 714 l 767 481 l 363 481 l 363 363 b 438 365 389 364 415 365 b 794 60 718 365 794 282 b 411 -282 794 -201 701 -282 b 71 -251 321 -282 146 -269 l 118 -12 b 340 -36 161 -26 283 -36 b 504 53 482 -36 504 -25 b 335 139 504 126 492 139 b 114 128 274 139 175 135 l 114 714 "},"":{"ha":875,"x_min":0,"x_max":0,"o":"m 746 725 b 507 749 701 739 607 749 b 349 613 399 749 361 736 b 464 619 385 618 422 619 b 826 315 746 619 826 538 b 446 -19 826 54 736 -19 b 61 493 161 -19 61 99 b 507 992 61 889 163 992 b 793 958 599 992 719 978 l 746 725 m 551 308 b 425 396 551 375 536 396 b 344 392 397 396 371 393 b 446 226 350 243 375 226 b 551 308 532 226 551 244 "},"":{"ha":875,"x_min":0,"x_max":0,"o":"m 861 640 b 439 -267 761 481 522 -4 l 139 -267 b 508 481 228 -22 400 350 l 61 481 l 61 714 l 861 714 "},"":{"ha":875,"x_min":0,"x_max":0,"o":"m 439 196 b 546 289 524 196 546 215 b 439 396 546 363 526 396 b 331 289 350 396 331 363 b 439 196 331 215 354 196 m 439 600 b 538 688 507 600 538 619 b 439 772 538 763 507 772 b 338 688 368 772 338 763 b 439 600 338 619 368 600 m 438 -19 b 54 257 135 -19 54 58 b 281 506 54 415 96 497 b 69 735 107 519 69 594 b 438 992 69 917 126 992 b 806 735 749 992 806 917 b 594 506 806 594 768 519 b 821 257 779 497 821 415 b 439 -19 821 58 742 -19 "},"":{"ha":875,"x_min":0,"x_max":0,"o":"m 204 -267 b 476 97 314 -144 424 -6 l 424 97 b 61 401 142 97 61 179 b 442 735 61 661 150 735 b 826 403 760 735 826 653 b 522 -267 826 140 708 -69 l 204 -267 m 463 321 b 540 322 486 321 513 321 b 543 381 543 342 543 361 b 442 490 543 469 532 490 b 336 407 354 490 336 476 b 463 321 336 333 350 321 "},"":{"ha":658,"x_min":0,"x_max":0,"o":"m 647 15 b 415 -19 589 -7 490 -19 b 56 361 204 -19 56 68 b 415 735 56 651 206 735 b 647 704 494 735 590 724 l 597 493 b 440 521 560 504 497 521 b 310 357 356 521 310 511 b 440 196 310 211 356 196 b 597 226 501 196 560 213 m 442 0 l 442 -50 b 581 -162 529 -50 581 -82 b 374 -282 581 -253 526 -282 b 249 -267 314 -282 282 -276 l 285 -175 b 360 -185 299 -182 332 -185 b 396 -158 388 -185 396 -175 b 301 -131 396 -132 369 -125 l 351 0 "},"":{"ha":875,"x_min":0,"x_max":0,"o":"m 436 -19 b 110 361 231 -19 110 68 b 436 735 110 653 233 735 b 765 361 643 735 765 653 b 436 -19 765 68 644 -19 m 436 540 b 364 357 385 540 364 525 b 436 175 364 194 385 175 b 510 357 493 175 510 194 b 436 540 510 525 489 540 "},"":{"ha":875,"x_min":0,"x_max":0,"o":"m 400 0 l 400 415 l 183 333 l 115 546 l 656 735 l 656 0 "},"":{"ha":875,"x_min":0,"x_max":0,"o":"m 99 699 b 439 735 176 718 325 735 b 756 514 685 735 756 678 b 468 197 756 390 701 297 l 779 197 l 779 0 l 106 0 l 106 178 b 485 451 457 375 485 404 b 382 513 485 497 467 513 b 157 474 319 513 213 494 "},"":{"ha":1039,"x_min":0,"x_max":0,"o":"m 1010 415 b 874 167 1010 324 956 238 b 1010 0 921 118 967 63 l 732 0 b 692 51 718 18 704 35 b 375 -19 590 7 476 -19 b 42 186 96 -19 42 22 b 238 372 42 304 101 365 b 79 543 106 382 79 433 b 397 735 79 697 115 735 b 715 543 679 735 715 697 b 540 372 715 433 672 382 b 693 313 579 369 633 349 b 732 415 719 344 732 382 m 385 164 b 553 211 440 164 517 182 b 379 275 493 258 418 275 b 310 218 329 275 310 261 b 385 164 310 174 331 164 m 403 461 b 472 508 453 461 472 471 b 403 557 472 547 457 557 b 332 508 347 557 332 547 b 403 461 332 471 351 461 "},"š":{"ha":664,"x_min":0,"x_max":0,"o":"m 571 511 b 358 539 515 525 432 539 b 283 500 308 539 283 538 b 399 456 283 474 294 471 b 631 233 558 432 631 385 b 296 -19 631 32 472 -19 b 43 19 217 -19 107 -4 l 89 207 b 283 181 143 193 214 181 b 389 221 357 181 389 185 b 257 268 389 247 369 257 b 42 483 115 282 42 325 b 369 735 42 685 193 735 b 615 694 449 735 553 718 m 350 876 l 432 968 l 638 968 l 468 789 l 229 789 l 54 968 l 265 968 "},"Ý":{"ha":929,"x_min":0,"x_max":0,"o":"m 254 968 b 483 653 308 896 393 781 b 689 968 571 781 649 896 l 1018 968 b 614 371 917 807 761 579 l 614 0 l 349 0 l 349 369 b -99 968 182 601 -8 860 l 254 968 m 322 1038 l 494 1217 l 747 1217 l 531 1038 "}}}
